<?xml version="1.0" encoding="utf-8"?>
<!-- Generator: Adobe Illustrator 16.0.0, SVG Export Plug-In . SVG Version: 6.00 Build 0)  -->
<!DOCTYPE svg PUBLIC "-//W3C//DTD SVG 1.1//EN" "http://www.w3.org/Graphics/SVG/1.1/DTD/svg11.dtd">
<svg version="1.1" id="圖層_1" xmlns="http://www.w3.org/2000/svg" xmlns:xlink="http://www.w3.org/1999/xlink" x="0px" y="0px"
	 width="359.245px" height="359.245px" viewBox="629.874 760.89 359.245 359.245"
	 enable-background="new 629.874 760.89 359.245 359.245" xml:space="preserve">
<path fill="#8169AC" d="M641.708,925.982L967.66,817.33c5.885-2.036,11.092-0.791,15.617,3.736c0.566,0.565,1.303,1.527,2.207,2.886
	c1.924,3.055,2.66,6.338,2.207,9.846c-0.451,3.509-1.924,6.508-4.414,8.998l-97.785,97.787l97.785,97.784
	c2.49,2.491,3.963,5.489,4.414,8.999c0.453,3.507-0.283,6.79-2.207,9.846c-1.924,3.057-4.527,5.207-7.809,6.452
	c-3.281,1.243-6.619,1.301-10.016,0.169L641.708,955.181c-2.265-0.679-4.3-1.924-6.112-3.733c-3.055-3.057-4.527-6.679-4.414-10.866
	c-0.113-3.282,0.792-6.282,2.716-8.999C635.822,928.867,638.425,927.001,641.708,925.982z"/>
</svg>
