<?xml version="1.0" encoding="utf-8"?>
<!-- Generator: Adobe Illustrator 16.0.0, SVG Export Plug-In . SVG Version: 6.00 Build 0)  -->
<!DOCTYPE svg PUBLIC "-//W3C//DTD SVG 1.1//EN" "http://www.w3.org/Graphics/SVG/1.1/DTD/svg11.dtd">
<svg version="1.1" id="圖層_1" xmlns="http://www.w3.org/2000/svg" xmlns:xlink="http://www.w3.org/1999/xlink" x="0px" y="0px"
	 width="37.889px" height="26.374px" viewBox="160.935 188.789 37.889 26.374"
	 enable-background="new 160.935 188.789 37.889 26.374" xml:space="preserve">
<path fill="#8169AC" d="M162.192,200.445l34.36-11.453c0.62-0.215,1.169-0.084,1.646,0.394c0.06,0.06,0.137,0.161,0.232,0.305
	c0.203,0.321,0.28,0.667,0.232,1.038c-0.047,0.369-0.203,0.686-0.465,0.948l-10.309,10.309l10.309,10.308
	c0.262,0.263,0.418,0.578,0.465,0.948c0.048,0.369-0.029,0.716-0.232,1.038s-0.477,0.549-0.823,0.68
	c-0.346,0.131-0.697,0.138-1.056,0.019l-34.36-11.454c-0.239-0.071-0.454-0.203-0.645-0.394c-0.322-0.322-0.477-0.704-0.465-1.145
	c-0.012-0.347,0.083-0.663,0.287-0.949C161.571,200.749,161.846,200.552,162.192,200.445z"/>
</svg>
