<?xml version="1.0" encoding="utf-8"?>
<!-- Generator: Adobe Illustrator 16.0.0, SVG Export Plug-In . SVG Version: 6.00 Build 0)  -->
<!DOCTYPE svg PUBLIC "-//W3C//DTD SVG 1.1//EN" "http://www.w3.org/Graphics/SVG/1.1/DTD/svg11.dtd">
<svg version="1.1" id="圖層_1" xmlns="http://www.w3.org/2000/svg" xmlns:xlink="http://www.w3.org/1999/xlink" x="0px" y="0px"
	 width="178.363px" height="43.729px" viewBox="0 0 178.363 43.729" enable-background="new 0 0 178.363 43.729"
	 xml:space="preserve">
<g>
	<g>
		<path fill="#382963" d="M10.597,0.104l0.467-0.031L10.597,0.104L10.597,0.104l0.467-0.031L10.597,0.104L10.597,0.104
			c0.001,0.012,0.016,0.24,0.016,0.739c0,1.248-0.09,4.191-0.703,9.634c-0.499,4.447-1.867,7.58-3.34,9.583
			c-0.369,0.502-0.742,0.933-1.112,1.296c-0.551,0.542-1.089,0.935-1.561,1.186c-0.236,0.124-0.454,0.212-0.646,0.271
			c-0.193,0.059-0.362,0.085-0.493,0.086l0,0c-0.022,0-0.049,0.002-0.07,0.002c-0.281,0-0.497-0.043-0.666-0.105
			c-0.128-0.046-0.225-0.104-0.308-0.167c-0.061-0.049-0.111-0.102-0.154-0.156c-0.065-0.082-0.114-0.177-0.147-0.279
			s-0.053-0.214-0.053-0.33c0-0.137,0.024-0.267,0.073-0.385c0.035-0.086,0.083-0.169,0.141-0.241
			c0.048-0.055,0.098-0.106,0.164-0.154c0.094-0.069,0.211-0.131,0.367-0.178c0.152-0.047,0.346-0.079,0.583-0.079
			c0.021,0,0.045,0,0.07,0l0,0c0.176,0.004,0.414,0.051,0.693,0.157c0.244,0.092,0.52,0.229,0.813,0.417
			c0.514,0.33,1.077,0.807,1.646,1.449c0.854,0.958,1.709,2.281,2.426,4.006c0.715,1.72,1.288,3.841,1.575,6.394
			c0.613,5.444,0.703,8.387,0.703,9.636c0,0.267-0.003,0.454-0.008,0.576c-0.003,0.06-0.003,0.103-0.006,0.129
			c0,0.013,0,0.021-0.001,0.027v0.004l0,0l0.321,0.023l-0.321-0.023l0,0l0.321,0.023l-0.321-0.023l0.55,0.038l-0.55-0.038l0,0
			l0.55,0.038l-0.55-0.038l0,0l0.742,0.051l-0.742-0.051l0,0l0.742,0.051l-0.742-0.051l1.535,0.106
			c0.003-0.021,0.021-0.279,0.021-0.845c0-1.321-0.094-4.32-0.711-9.808c-0.526-4.677-1.977-8.069-3.633-10.321
			c-0.827-1.127-1.706-1.97-2.558-2.545c-0.426-0.291-0.845-0.51-1.255-0.667c-0.408-0.152-0.809-0.244-1.2-0.256l0,0
			c-0.036,0-0.074,0-0.109,0c-0.44,0-0.841,0.067-1.202,0.201c-0.27,0.1-0.513,0.235-0.725,0.403
			c-0.157,0.124-0.297,0.265-0.417,0.418c-0.177,0.229-0.311,0.482-0.396,0.748c-0.086,0.263-0.128,0.537-0.128,0.807
			c0,0.322,0.059,0.646,0.181,0.955c0.094,0.231,0.221,0.452,0.386,0.652c0.124,0.148,0.267,0.286,0.43,0.408
			c0.244,0.182,0.525,0.326,0.843,0.42c0.314,0.095,0.658,0.145,1.029,0.145c0.035,0,0.073,0,0.109-0.002l0,0
			c0.392-0.009,0.792-0.101,1.2-0.255c0.36-0.135,0.726-0.322,1.097-0.563c0.649-0.416,1.317-0.985,1.968-1.72
			c0.978-1.102,1.918-2.573,2.693-4.438c0.776-1.864,1.386-4.128,1.688-6.813c0.617-5.487,0.711-8.484,0.711-9.807
			c0-0.563-0.018-0.823-0.021-0.843L10.597,0.104z"/>
		<path fill="#382963" d="M18.031,1.046h-3.23c-0.257,0-0.499,0.129-0.64,0.347c-0.069,0.102-0.114,0.204-0.149,0.302
			c-0.049,0.145-0.074,0.287-0.091,0.428c-0.014,0.14-0.02,0.283-0.02,0.433c0,0.152,0.005,0.313,0.016,0.486
			c0.017,0.3,0.047,0.633,0.083,0.998c0.051,0.549,0.116,1.174,0.165,1.873c0.049,0.698,0.086,1.467,0.086,2.3
			c0,0.2-0.002,0.403-0.006,0.611c-0.01,0.396-0.033,0.848-0.072,1.335c-0.068,0.856-0.183,1.822-0.332,2.826
			c-0.228,1.502-0.535,3.081-0.9,4.459c-0.182,0.69-0.376,1.332-0.58,1.883c-0.101,0.277-0.202,0.532-0.306,0.758
			c-0.103,0.227-0.205,0.428-0.303,0.591c-0.109,0.186-0.2,0.371-0.263,0.563c-0.034,0.096-0.057,0.195-0.075,0.294
			c-0.018,0.101-0.025,0.201-0.025,0.301c0,0.099,0.008,0.194,0.023,0.287c0.024,0.143,0.063,0.271,0.112,0.394
			c0.049,0.119,0.105,0.229,0.165,0.333c0.146,0.248,0.305,0.58,0.458,0.97c0.135,0.342,0.271,0.727,0.401,1.146
			c0.232,0.734,0.452,1.571,0.65,2.447c0.298,1.316,0.55,2.727,0.732,4.04c0.092,0.656,0.165,1.289,0.216,1.872
			c0.055,0.585,0.088,1.12,0.098,1.579c0.004,0.208,0.006,0.413,0.006,0.613c0,1.269-0.085,2.39-0.171,3.334
			c-0.045,0.476-0.088,0.902-0.122,1.288c-0.018,0.192-0.031,0.375-0.041,0.546c-0.01,0.173-0.016,0.334-0.016,0.489
			c0,0.101,0,0.196,0.008,0.29c0.01,0.144,0.027,0.281,0.062,0.425c0.018,0.072,0.038,0.143,0.07,0.22
			c0.029,0.075,0.068,0.151,0.12,0.229c0.141,0.213,0.383,0.344,0.64,0.344h3.23c0.426,0,0.772-0.344,0.772-0.771
			c0-0.424-0.347-0.77-0.772-0.77h-3.23v0.77l0.644-0.424l-0.236,0.158l0.255-0.122c-0.001-0.008-0.007-0.021-0.019-0.036
			l-0.236,0.158l0.255-0.122l-0.11,0.055l0.118-0.043c0,0-0.003-0.003-0.007-0.011l-0.11,0.055l0.118-0.043l-0.017,0.006
			l0.017-0.006l0,0l-0.017,0.006l0.017-0.006V41.53c-0.002-0.008-0.013-0.048-0.019-0.108c-0.008-0.063-0.012-0.146-0.012-0.249
			c0-0.111,0.004-0.245,0.016-0.396c0.014-0.266,0.043-0.583,0.078-0.945c0.051-0.542,0.116-1.182,0.169-1.906
			c0.051-0.725,0.088-1.533,0.088-2.409c0-0.212-0.001-0.429-0.005-0.646c-0.01-0.439-0.04-0.929-0.083-1.45
			c-0.077-0.913-0.202-1.936-0.365-2.99c-0.246-1.583-0.58-3.24-0.971-4.713c-0.194-0.734-0.404-1.426-0.628-2.041
			c-0.112-0.309-0.226-0.599-0.346-0.865c-0.12-0.268-0.244-0.515-0.375-0.738c-0.043-0.075-0.067-0.128-0.079-0.163
			c-0.006-0.018-0.008-0.029-0.01-0.041s-0.002-0.02-0.002-0.032c0-0.01,0-0.021,0.002-0.04c0.005-0.026,0.016-0.065,0.038-0.122
			c0.022-0.055,0.058-0.125,0.108-0.212c0.204-0.346,0.391-0.742,0.567-1.182c0.152-0.385,0.302-0.802,0.441-1.246
			c0.243-0.777,0.468-1.637,0.666-2.531c0.3-1.342,0.546-2.757,0.725-4.087c0.088-0.664,0.158-1.304,0.212-1.904
			c0.051-0.602,0.084-1.156,0.096-1.653c0.004-0.22,0.005-0.438,0.005-0.646c0-1.337-0.088-2.511-0.178-3.478
			c-0.043-0.483-0.089-0.911-0.12-1.281c-0.016-0.184-0.03-0.353-0.037-0.502c-0.012-0.153-0.016-0.287-0.016-0.396
			c0-0.075,0.002-0.139,0.006-0.188c0.005-0.081,0.015-0.138,0.021-0.162c0-0.003,0.002-0.007,0.002-0.007V2.195L15.27,2.126
			l0.173,0.115c0.019-0.028,0.024-0.046,0.024-0.046L15.27,2.126l0.173,0.115L14.8,1.817v0.77h3.23c0.426,0,0.771-0.345,0.771-0.77
			S18.458,1.046,18.031,1.046z"/>
	</g>
	<g>
		<path fill="#382963" d="M178.313,20.908c-0.093-0.228-0.222-0.452-0.387-0.652c-0.123-0.148-0.267-0.286-0.43-0.407
			c-0.241-0.182-0.525-0.324-0.843-0.418c-0.313-0.097-0.658-0.145-1.027-0.145c-0.037,0-0.076,0-0.112,0
			c-0.393,0.012-0.79,0.104-1.197,0.256c-0.36,0.139-0.727,0.324-1.097,0.562c-0.301,0.192-0.604,0.417-0.905,0.676
			c-0.823-0.952-1.646-2.243-2.337-3.904c-0.715-1.724-1.288-3.843-1.577-6.397c-0.61-5.442-0.7-8.387-0.7-9.634
			c0-0.266,0.003-0.456,0.008-0.576c0.002-0.062,0.003-0.104,0.003-0.13c0.002-0.014,0.004-0.021,0.004-0.027V0.104l0,0
			l-0.313-0.021l0.313,0.021l-0.479-0.031l-0.287-0.02L166.177,0c0,0.021-0.018,0.279-0.018,0.842c0,1.323,0.094,4.32,0.711,9.808
			c0.526,4.677,1.979,8.071,3.631,10.324c0.236,0.319,0.477,0.613,0.717,0.889c-0.966,1.1-1.895,2.555-2.662,4.399
			c-0.775,1.867-1.384,4.129-1.686,6.813c-0.617,5.487-0.711,8.483-0.711,9.808c0,0.565,0.018,0.824,0.018,0.845l1.074-0.075
			l0.463-0.032l0,0l0,0l0,0l0,0c-0.002-0.015-0.015-0.244-0.015-0.738c0-1.249,0.09-4.19,0.7-9.635
			c0.501-4.445,1.872-7.579,3.345-9.583c0.188-0.257,0.379-0.495,0.569-0.717c0.25,0.213,0.499,0.402,0.744,0.57
			c0.427,0.289,0.847,0.511,1.258,0.666c0.407,0.154,0.806,0.246,1.197,0.255h0.012h-0.01c0.034,0.002,0.073,0.002,0.11,0.002
			c0.438,0.002,0.841-0.069,1.198-0.202c0.271-0.099,0.515-0.235,0.725-0.401c0.159-0.125,0.3-0.267,0.418-0.42
			c0.181-0.228,0.312-0.482,0.396-0.747c0.087-0.263,0.128-0.538,0.128-0.809C178.491,21.541,178.434,21.219,178.313,20.908z
			 M176.881,22.247c-0.035,0.091-0.081,0.169-0.145,0.244c-0.043,0.055-0.096,0.106-0.16,0.153c-0.095,0.07-0.213,0.133-0.369,0.179
			c-0.152,0.047-0.347,0.078-0.58,0.078c-0.022,0-0.049-0.002-0.071-0.002c-0.176-0.003-0.415-0.048-0.691-0.154
			c-0.245-0.093-0.522-0.229-0.814-0.419c-0.202-0.129-0.415-0.284-0.631-0.463c0.351-0.287,0.688-0.512,0.998-0.675
			c0.235-0.125,0.455-0.216,0.648-0.275c0.19-0.057,0.359-0.083,0.49-0.086c0.022,0,0.049,0,0.071,0
			c0.279,0,0.497,0.043,0.664,0.106c0.126,0.045,0.227,0.103,0.308,0.167c0.061,0.049,0.11,0.101,0.154,0.154
			c0.064,0.084,0.113,0.177,0.147,0.279c0.035,0.104,0.053,0.216,0.053,0.33C176.954,22,176.926,22.131,176.881,22.247z"/>
		<path fill="#382963" d="M166.561,23.052c0.108-0.188,0.199-0.372,0.264-0.564c0.033-0.098,0.058-0.196,0.074-0.294
			c0.016-0.102,0.024-0.2,0.024-0.303c0-0.099-0.008-0.192-0.021-0.287c-0.025-0.14-0.067-0.271-0.114-0.392
			c-0.049-0.12-0.104-0.229-0.166-0.333c-0.146-0.25-0.301-0.58-0.456-0.97c-0.136-0.34-0.271-0.729-0.401-1.148
			c-0.232-0.734-0.452-1.571-0.648-2.447c-0.299-1.316-0.554-2.727-0.734-4.038c-0.091-0.656-0.164-1.288-0.219-1.874
			c-0.053-0.583-0.086-1.119-0.096-1.578c-0.004-0.208-0.008-0.411-0.008-0.611c0-1.27,0.086-2.39,0.175-3.336
			c0.044-0.473,0.086-0.902,0.12-1.288c0.018-0.192,0.031-0.374,0.043-0.546c0.008-0.173,0.016-0.334,0.016-0.486
			c0-0.103-0.004-0.197-0.01-0.291c-0.01-0.144-0.025-0.282-0.061-0.425c-0.021-0.069-0.042-0.145-0.071-0.22
			s-0.066-0.153-0.119-0.228c-0.14-0.216-0.385-0.347-0.643-0.347h-3.229c-0.426,0-0.772,0.347-0.772,0.771s0.348,0.77,0.772,0.77
			h2.593c-0.002,0.106-0.007,0.229-0.015,0.365c-0.019,0.263-0.045,0.581-0.078,0.943c-0.053,0.542-0.117,1.184-0.169,1.909
			c-0.051,0.723-0.091,1.531-0.091,2.408c0,0.21,0,0.427,0.007,0.646c0.01,0.438,0.039,0.927,0.082,1.449
			c0.074,0.914,0.2,1.937,0.365,2.99c0.247,1.583,0.579,3.238,0.97,4.711c0.195,0.737,0.405,1.427,0.627,2.043
			c0.111,0.307,0.228,0.597,0.348,0.863c0.119,0.27,0.243,0.515,0.375,0.74c0.043,0.073,0.064,0.128,0.079,0.163
			c0.005,0.016,0.008,0.029,0.01,0.04c0.002,0.012,0.004,0.02,0.004,0.031s-0.002,0.023-0.006,0.042
			c-0.003,0.025-0.015,0.063-0.035,0.12c-0.023,0.055-0.06,0.125-0.107,0.213c-0.207,0.344-0.393,0.74-0.569,1.181
			c-0.154,0.385-0.303,0.802-0.441,1.247c-0.246,0.78-0.467,1.636-0.666,2.531c-0.301,1.34-0.548,2.757-0.724,4.085
			c-0.09,0.664-0.16,1.306-0.216,1.904c-0.051,0.602-0.083,1.159-0.094,1.656l0,0c-0.007,0.218-0.007,0.435-0.007,0.646
			c0,1.337,0.091,2.512,0.18,3.476c0.045,0.483,0.088,0.914,0.119,1.281c0.018,0.184,0.029,0.354,0.039,0.504
			c0.008,0.135,0.013,0.257,0.015,0.363h-2.593c-0.426,0-0.771,0.345-0.771,0.77c0,0.427,0.347,0.771,0.771,0.771h3.229
			c0.258,0,0.503-0.131,0.643-0.344c0.068-0.104,0.113-0.207,0.146-0.303c0.053-0.146,0.075-0.287,0.094-0.428
			c0.016-0.141,0.021-0.283,0.021-0.433c0-0.154-0.008-0.315-0.016-0.489c-0.021-0.298-0.049-0.632-0.084-0.998
			c-0.054-0.548-0.114-1.174-0.168-1.871c-0.047-0.697-0.086-1.467-0.086-2.3c0-0.2,0.004-0.405,0.008-0.613l0,0
			c0.01-0.396,0.033-0.846,0.073-1.335c0.067-0.853,0.183-1.823,0.331-2.824c0.227-1.505,0.539-3.083,0.901-4.462
			c0.181-0.691,0.376-1.33,0.578-1.882c0.102-0.279,0.203-0.532,0.305-0.758C166.359,23.414,166.462,23.216,166.561,23.052z"/>
	</g>
</g>
<g enable-background="new    ">
	<path fill="#382963" d="M42.504,9.658c0.605,0,0.907,0.284,0.907,0.853c0,0.587-0.302,0.88-0.907,0.88h-0.879v22.654
		c0,0.604-0.285,0.907-0.853,0.907c-0.587,0-0.88-0.303-0.88-0.907v-2.97c-0.586,0.22-1.283,0.431-2.089,0.633
		c-0.788,0.22-1.742,0.421-2.859,0.604c-0.568-0.037-0.871-0.367-0.907-0.989c0-0.587,0.266-0.926,0.797-1.018
		c0.312-0.019,0.595-0.046,0.852-0.083V11.39h-0.962c-0.587,0-0.88-0.293-0.88-0.88c0-0.568,0.293-0.853,0.88-0.853H42.504z
		 M37.583,16.449h2.309V11.39h-2.309V16.449z M37.583,22.854h2.309v-4.729h-2.309V22.854z M37.583,29.893
		c0.788-0.165,1.484-0.357,2.089-0.578c0.073-0.018,0.146-0.036,0.22-0.055v-4.784h-2.309V29.893z M46.38,8.97
		c0.257,0,0.486,0.064,0.688,0.192c0.183,0.129,0.275,0.294,0.275,0.495c0,0.146-0.037,0.321-0.11,0.522
		c-0.752,1.467-1.595,2.749-2.529,3.849c0.623,0.367,1.2,0.725,1.732,1.072c0.605-1.026,1.173-2.07,1.705-3.134
		c0.183-0.385,0.44-0.577,0.77-0.577c0.66,0,0.99,0.339,0.99,1.017c0,0.349-0.156,0.752-0.468,1.21
		c-1.54,2.64-3.042,4.82-4.509,6.543c0.367-0.055,0.688-0.109,0.962-0.164c0.917-0.129,1.796-0.293,2.639-0.495
		c-0.11-0.513-0.22-0.972-0.33-1.375l-0.055-0.33c0-0.439,0.256-0.659,0.77-0.659c0.348,0,0.595,0.137,0.742,0.412
		c0.275,0.715,0.541,1.879,0.797,3.491c0.073,0.349,0.11,0.587,0.11,0.715c0,0.514-0.302,0.771-0.907,0.771
		c-0.458,0-0.706-0.257-0.742-0.771c-0.037-0.237-0.064-0.477-0.083-0.715c-0.605,0.184-1.302,0.349-2.09,0.495
		c-0.678,0.11-1.429,0.202-2.254,0.275c-0.935,0.109-1.476,0.165-1.622,0.165c-0.66,0-0.99-0.34-0.99-1.018
		c0-0.385,0.21-0.596,0.632-0.633c0.128-0.018,0.266-0.027,0.413-0.027c0.018-0.055,0.037-0.128,0.055-0.22
		c0.935-1.137,1.805-2.327,2.612-3.574c-0.037-0.018-0.064-0.036-0.083-0.055c-0.862-0.568-1.861-1.146-2.997-1.732
		c-0.348-0.22-0.522-0.449-0.522-0.688c0-0.494,0.293-0.742,0.879-0.742c0.165,0,0.339,0.027,0.522,0.083
		c0.77-1.063,1.549-2.383,2.337-3.959C45.812,9.118,46.032,8.97,46.38,8.97z M48.8,22.965c0.568,0,0.853,0.293,0.853,0.88v4.262
		c0,0.843-0.138,1.631-0.413,2.364c-0.293,0.77-0.825,1.484-1.594,2.145c-0.715,0.623-1.732,1.209-3.052,1.759
		c-0.275,0.092-0.45,0.138-0.522,0.138c-0.66,0-0.99-0.33-0.99-0.989c0-0.459,0.174-0.752,0.522-0.88
		c1.228-0.44,2.126-0.898,2.694-1.375c0.568-0.458,0.999-0.952,1.292-1.484c0.018-0.036,0.027-0.073,0.027-0.11h-2.694
		c-1.082,0-1.622-0.559-1.622-1.677v-4.041c0-0.587,0.256-0.88,0.77-0.88c0.568,0,0.852,0.293,0.852,0.88v3.408
		c0,0.495,0.229,0.743,0.688,0.743h2.31v-4.262C47.92,23.258,48.213,22.965,48.8,22.965z M54.738,9.081
		c0.275,0,0.522,0.073,0.743,0.22c0.238,0.184,0.357,0.376,0.357,0.577c0,0.11-0.046,0.248-0.138,0.413
		c-0.66,1.503-1.42,2.831-2.282,3.986c0.623,0.33,1.209,0.669,1.759,1.017c0.715-1.246,1.375-2.547,1.979-3.903
		c0.165-0.275,0.375-0.413,0.632-0.413c0.678,0,1.018,0.285,1.018,0.853c0,0.349-0.147,0.715-0.44,1.1
		c-1.467,2.914-2.887,5.27-4.262,7.066c0.312-0.037,0.586-0.064,0.825-0.083c0.935-0.146,1.814-0.33,2.639-0.55
		c-0.092-0.385-0.174-0.742-0.248-1.072l-0.055-0.274c0-0.458,0.247-0.688,0.742-0.688c0.366,0,0.632,0.155,0.797,0.467
		c0.238,0.642,0.504,1.705,0.797,3.189c0.055,0.312,0.082,0.532,0.082,0.66c0,0.494-0.293,0.742-0.879,0.742
		c-0.55,0-0.853-0.248-0.907-0.742c-0.019-0.221-0.046-0.44-0.083-0.66c-0.568,0.184-1.274,0.367-2.117,0.55
		c-0.642,0.11-1.356,0.202-2.145,0.275c-0.917,0.109-1.448,0.165-1.594,0.165c-0.66,0-0.99-0.34-0.99-1.018
		c0-0.44,0.265-0.688,0.797-0.742c0.11,0,0.21-0.01,0.303-0.027c0.018-0.184,0.101-0.367,0.248-0.55
		c0.696-0.936,1.365-1.906,2.007-2.915c-0.019-0.018-0.037-0.027-0.055-0.027c-0.953-0.623-2.053-1.246-3.299-1.869
		c-0.349-0.22-0.522-0.449-0.522-0.688c0-0.495,0.293-0.742,0.88-0.742c0.183,0,0.394,0.037,0.632,0.109
		c0.055,0.019,0.1,0.037,0.137,0.056c0.642-1.063,1.301-2.41,1.979-4.042C54.17,9.227,54.39,9.081,54.738,9.081z M53.061,22.854
		c0.604,0,0.907,0.294,0.907,0.88v4.481h2.31c0.439,0,0.66-0.247,0.66-0.742v-3.409c0-0.586,0.284-0.88,0.852-0.88
		c0.678,0,1.018,0.294,1.018,0.88v3.932c0,1.191-0.669,1.787-2.007,1.787h-2.832v3.849c0,0.587-0.303,0.88-0.907,0.88
		c-0.587,0-0.88-0.293-0.88-0.88v-9.897C52.181,23.148,52.474,22.854,53.061,22.854z"/>
	<path fill="#382963" d="M67.358,8.778c0.311,0,0.568,0.064,0.77,0.192c0.22,0.165,0.33,0.349,0.33,0.55
		c0,0.165-0.037,0.357-0.11,0.577c-0.88,1.889-1.87,3.565-2.969,5.031l0.027,0.028c0.605,0.586,1.164,1.265,1.677,2.034
		c0.971-1.484,1.869-3.015,2.694-4.592c0.22-0.274,0.513-0.412,0.879-0.412c0.257,0,0.468,0.083,0.632,0.247
		c0.183,0.165,0.275,0.367,0.275,0.605c0,0.257-0.073,0.477-0.22,0.659c-0.898,1.687-1.897,3.3-2.997,4.839
		c-0.66,0.898-1.384,1.77-2.172,2.612c1.356-0.092,2.612-0.229,3.767-0.412c-0.128-0.312-0.257-0.605-0.385-0.88
		c-0.073-0.165-0.11-0.303-0.11-0.413c0-0.531,0.302-0.797,0.907-0.797c0.22,0,0.44,0.156,0.66,0.468
		c0.513,0.935,0.953,1.988,1.32,3.161c0.073,0.257,0.11,0.486,0.11,0.688c0,0.514-0.367,0.77-1.1,0.77
		c-0.312,0-0.541-0.22-0.688-0.659c-0.055-0.238-0.11-0.468-0.165-0.688h-0.028c-0.532,0.109-1.044,0.202-1.54,0.274v10.97
		c0,0.66-0.33,0.99-0.99,0.99c-0.678,0-1.017-0.33-1.017-0.99V22.965c-1.32,0.184-2.594,0.321-3.822,0.412
		c-0.604,0-0.907-0.402-0.907-1.209c0-0.55,0.303-0.834,0.907-0.853c0.256,0,0.504-0.019,0.742-0.055
		c0.807-0.844,1.53-1.695,2.172-2.558c-0.055-0.055-0.12-0.109-0.192-0.165c-0.679-0.879-1.247-1.576-1.705-2.089
		c-0.422-0.422-0.88-0.861-1.375-1.32c-0.22-0.237-0.33-0.485-0.33-0.742c0-0.586,0.302-0.88,0.907-0.88
		c0.165,0,0.385,0.064,0.66,0.192c0.055,0.056,0.101,0.102,0.138,0.138c0.825-1.246,1.658-2.795,2.501-4.646
		C66.725,8.916,66.972,8.778,67.358,8.778z M64.306,24.697c0.66,0,0.99,0.266,0.99,0.797c0,0.202-0.037,0.458-0.11,0.77
		c-0.275,2.512-0.642,4.82-1.1,6.929c-0.202,0.366-0.495,0.55-0.88,0.55c-0.678,0-1.017-0.303-1.017-0.907
		c0-0.202,0.073-0.412,0.22-0.633c0.439-2.145,0.77-4.417,0.99-6.818C63.509,24.927,63.811,24.697,64.306,24.697z M71.014,24.697
		c0.403,0,0.688,0.192,0.853,0.577c0.275,1.026,0.541,2.704,0.797,5.031c0.073,0.477,0.11,0.815,0.11,1.018
		c0,0.513-0.302,0.77-0.907,0.77c-0.532,0-0.816-0.257-0.853-0.77c-0.202-2.145-0.44-3.969-0.715-5.472l-0.055-0.468
		C70.244,24.927,70.501,24.697,71.014,24.697z M76.155,14.854c-0.22,0.403-0.458,0.779-0.714,1.127
		c-0.44,0.642-0.962,1.201-1.567,1.678c-0.202,0.164-0.431,0.247-0.688,0.247c-0.22,0-0.421-0.11-0.604-0.33
		c-0.165-0.183-0.248-0.403-0.248-0.66c0-0.274,0.11-0.504,0.33-0.687c0.531-0.458,0.98-0.972,1.347-1.54
		c0.458-0.696,0.861-1.438,1.209-2.227c0.33-0.752,0.614-1.65,0.853-2.694c0.128-0.458,0.458-0.688,0.99-0.688
		c0.22,0,0.412,0.073,0.577,0.22c0.183,0.184,0.275,0.412,0.275,0.688c0,0.128-0.037,0.303-0.11,0.522
		c-0.037,0.165-0.074,0.32-0.11,0.467h7.396c0.953,0,1.43,0.514,1.43,1.54c0,0.403-0.165,0.944-0.495,1.622
		c-0.568,1.191-1.301,2.291-2.199,3.299c-0.624,0.715-1.265,1.348-1.925,1.897c0.586,0.385,1.292,0.77,2.117,1.154
		c0.733,0.367,1.713,0.752,2.942,1.155c0.513,0.184,0.77,0.513,0.77,0.989c0,0.733-0.33,1.1-0.99,1.1
		c-0.092,0-0.238-0.027-0.44-0.082c-1.576-0.605-2.841-1.173-3.794-1.705c-0.843-0.421-1.577-0.88-2.199-1.374
		c-1.577,1.137-3.409,2.089-5.499,2.859c-0.367,0.109-0.615,0.165-0.743,0.165c-0.733,0-1.1-0.357-1.1-1.072
		c0-0.312,0.229-0.568,0.688-0.771c2.181-0.806,3.831-1.576,4.949-2.31c0.091-0.055,0.174-0.109,0.247-0.164
		c-0.513-0.551-0.999-1.191-1.457-1.925C76.898,16.55,76.485,15.716,76.155,14.854z M76.073,24.284h8.468
		c1.008,0,1.512,0.468,1.512,1.402v7.148c0,0.972-0.504,1.457-1.512,1.457h-8.468c-1.027,0-1.54-0.485-1.54-1.457v-7.148
		C74.533,24.752,75.046,24.284,76.073,24.284z M83.331,32.532c0.513,0,0.77-0.302,0.77-0.907v-4.729c0-0.568-0.257-0.853-0.77-0.853
		h-6.048c-0.532,0-0.797,0.284-0.797,0.853v4.729c0,0.605,0.266,0.907,0.797,0.907H83.331z M80.444,18.18
		c0.55-0.476,1.063-0.952,1.54-1.43c0.843-0.935,1.466-1.832,1.87-2.694c0.238-0.385,0.357-0.641,0.357-0.77
		c0-0.312-0.119-0.467-0.357-0.467h-6.461c-0.092,0-0.174-0.01-0.247-0.028c0,0.019-0.01,0.028-0.028,0.028
		c0.183,0.109,0.312,0.302,0.385,0.577c0.513,1.356,1.054,2.456,1.623,3.299C79.51,17.228,79.949,17.722,80.444,18.18z"/>
	<path fill="#382963" d="M101.449,9.19c0.732,0,1.1,0.367,1.1,1.101c0,0.385-0.211,0.687-0.633,0.907
		c-1.264,0.494-2.63,0.916-4.096,1.265v3.876h6.873c-0.165-1.997-0.248-4.151-0.248-6.461c0-0.806,0.33-1.209,0.99-1.209
		c0.732,0,1.1,0.403,1.1,1.209c0,2.364,0.082,4.519,0.248,6.461h8.33c0.66,0,0.99,0.33,0.99,0.99c0,0.678-0.33,1.017-0.99,1.017
		h-8.139c0.129,1.027,0.293,1.979,0.496,2.859c0.311,1.668,0.723,3.181,1.236,4.536c0.165-0.293,0.33-0.595,0.495-0.907
		c0.642-1.19,1.219-2.73,1.731-4.618c0.166-0.385,0.449-0.577,0.854-0.577c0.311,0,0.576,0.092,0.797,0.274
		c0.201,0.184,0.303,0.395,0.303,0.633c0,0.22-0.027,0.477-0.083,0.77c-0.55,1.979-1.155,3.602-1.814,4.866
		c-0.385,0.733-0.788,1.393-1.21,1.979c0.55,1.082,1.173,2.071,1.869,2.969c0.477,0.642,0.861,0.963,1.155,0.963
		c0.165,0,0.312-0.284,0.44-0.853c0.219-1.154,0.33-2.337,0.33-3.547c0.055-0.659,0.385-0.989,0.989-0.989
		c0.642,0.146,0.962,0.577,0.962,1.292c0,1.668-0.229,3.299-0.688,4.894c-0.422,1.155-1.035,1.732-1.842,1.732
		c-0.88,0-1.806-0.514-2.777-1.54c-0.696-0.88-1.355-1.906-1.979-3.079c-0.643,0.642-1.348,1.237-2.117,1.787
		c-1.063,0.825-2.43,1.576-4.097,2.255c-0.385,0.165-0.651,0.247-0.798,0.247c-0.293,0-0.549-0.101-0.77-0.303
		c-0.22-0.201-0.33-0.431-0.33-0.687c0-0.514,0.193-0.844,0.578-0.99c1.594-0.679,2.896-1.394,3.904-2.145
		c0.934-0.696,1.759-1.438,2.474-2.227c0.036-0.037,0.083-0.083,0.138-0.138c-0.917-2.218-1.631-4.912-2.145-8.083
		c-0.092-0.458-0.156-0.916-0.192-1.375H97.82v5.224c1.777-0.421,3.316-0.889,4.619-1.401c0.182-0.073,0.338-0.11,0.467-0.11
		c0.623,0.037,0.953,0.339,0.99,0.907c0,0.458-0.221,0.825-0.66,1.1c-1.394,0.623-3.199,1.201-5.416,1.732v6.186
		c0,1.687-1.055,2.529-3.162,2.529c-0.88,0-2.053-0.257-3.52-0.77c-0.586-0.202-0.879-0.568-0.879-1.1
		c0.018-0.715,0.348-1.091,0.989-1.127c0.128,0,0.312,0.036,0.55,0.109c1.447,0.458,2.4,0.688,2.859,0.688
		c0.66,0,0.99-0.293,0.99-0.88v-5.113c-1.338,0.293-2.842,0.559-4.51,0.797c-0.641-0.036-0.971-0.394-0.989-1.072
		c0-0.696,0.293-1.1,0.88-1.21c1.869-0.237,3.409-0.485,4.619-0.742v-5.746h-4.619c-0.66,0-0.99-0.339-0.99-1.017
		c0-0.66,0.33-0.99,0.99-0.99h4.619v-3.491c-1.338,0.22-2.631,0.366-3.877,0.439c-0.807,0-1.209-0.402-1.209-1.21
		c0.035-0.586,0.365-0.879,0.989-0.879c1.393-0.146,2.813-0.33,4.261-0.55C97.645,10.373,99.524,9.887,101.449,9.19z M109.285,9.411
		c0.183,0,0.402,0.082,0.659,0.247c1.558,1.1,2.942,2.19,4.151,3.271c0.312,0.275,0.468,0.568,0.468,0.88
		c0,0.679-0.33,1.018-0.989,1.018c-0.313,0-0.568-0.073-0.771-0.22c-1.155-1.155-2.475-2.291-3.959-3.409
		c-0.458-0.257-0.688-0.522-0.688-0.798C108.157,9.74,108.533,9.411,109.285,9.411z"/>
	<path fill="#382963" d="M123.664,9.301c0.293,0,0.539,0.092,0.742,0.275c0.237,0.201,0.357,0.439,0.357,0.715
		c0,0.146-0.037,0.339-0.11,0.577c-0.403,2.017-0.907,3.831-1.513,5.443v17.541c0,0.586-0.339,0.879-1.017,0.879
		c-0.587,0-0.88-0.293-0.88-0.879V20.435c-0.313,0.55-0.633,1.091-0.963,1.622c-0.348,0.312-0.604,0.468-0.77,0.468
		c-0.732,0-1.1-0.33-1.1-0.99c0-0.22,0.064-0.412,0.192-0.577c0.917-1.411,1.723-2.97,2.419-4.674
		c0.752-1.796,1.385-3.895,1.897-6.296C123.012,9.53,123.26,9.301,123.664,9.301z M127.429,20.765v12.757
		c0,0.586-0.33,0.88-0.989,0.88c-0.587,0-0.88-0.294-0.88-0.88V11.39c0-1.082,0.541-1.622,1.622-1.622h4.866
		c1.173,0,1.76,0.54,1.76,1.622v7.726c0,1.1-0.587,1.649-1.76,1.649H127.429z M130.481,11.5h-2.199c-0.568,0-0.853,0.34-0.853,1.018
		v1.76h4.481v-2.09c0-0.458-0.211-0.688-0.632-0.688H130.481z M131.911,16.036h-4.481v2.97h3.85c0.421,0,0.632-0.22,0.632-0.66
		V16.036z M138.427,9.658h3.408c1.155,0,1.732,0.55,1.732,1.649v21.115c0,1.539-1.055,2.309-3.162,2.309
		c-0.916,0-1.906-0.229-2.969-0.687c-0.678-0.129-1.018-0.449-1.018-0.963c0-0.733,0.34-1.1,1.018-1.1
		c1.246,0.44,2.236,0.66,2.969,0.66c0.881,0,1.32-0.514,1.32-1.54V20.765h-5.086c-0.953,0-1.43-0.477-1.43-1.43v-8.248
		c0-0.953,0.477-1.43,1.43-1.43H138.427z M141.726,14.277v-2.09c0-0.531-0.193-0.797-0.578-0.797h-3.271
		c-0.514,0-0.77,0.302-0.77,0.907v1.979H141.726z M141.726,19.006v-2.97h-4.619v2.09c0,0.587,0.256,0.88,0.77,0.88H141.726z"/>
</g>
<g>
	<g>
		<g>
			<path fill="#382963" d="M-479.427-270.238l0.468-0.032l-0.468,0.03V-270.238l0.468-0.032l-0.468,0.03l0,0
				c0.003,0.011,0.016,0.239,0.016,0.737c0,1.25-0.09,4.193-0.703,9.634c-0.497,4.449-1.867,7.581-3.34,9.586
				c-0.37,0.5-0.741,0.931-1.11,1.294c-0.554,0.543-1.092,0.936-1.563,1.186c-0.234,0.125-0.453,0.214-0.646,0.272
				c-0.195,0.059-0.364,0.084-0.493,0.087l0,0c-0.024,0-0.05,0.001-0.072,0.001c-0.279,0-0.496-0.043-0.664-0.106
				c-0.128-0.046-0.225-0.104-0.307-0.168c-0.063-0.048-0.112-0.1-0.155-0.156c-0.064-0.083-0.114-0.177-0.146-0.278
				c-0.033-0.103-0.054-0.213-0.054-0.329c0-0.137,0.025-0.27,0.072-0.385c0.036-0.088,0.083-0.168,0.142-0.242
				c0.049-0.056,0.1-0.106,0.163-0.153c0.095-0.071,0.212-0.133,0.366-0.18c0.153-0.047,0.346-0.078,0.583-0.079
				c0.022,0,0.047,0.001,0.072,0.001l0,0c0.174,0.005,0.414,0.05,0.691,0.156c0.244,0.093,0.52,0.229,0.813,0.418
				c0.515,0.328,1.078,0.806,1.647,1.446c0.853,0.96,1.708,2.284,2.426,4.007c0.715,1.722,1.288,3.842,1.573,6.395
				c0.613,5.443,0.703,8.385,0.703,9.636c0,0.267-0.003,0.455-0.008,0.575c-0.004,0.061-0.004,0.104-0.005,0.13
				c0,0.014,0,0.022-0.003,0.028c0,0.002,0,0.003,0,0.003v0.001l0.321,0.021l-0.321-0.021l0,0l0.321,0.021l-0.321-0.021l0.551,0.036
				l-0.551-0.037v0.001l0.551,0.036l-0.551-0.037l0,0l0.743,0.051l-0.743-0.051l0,0l0.743,0.051l-0.743-0.051l1.535,0.104
				c0.003-0.02,0.021-0.278,0.021-0.842c0-1.322-0.095-4.32-0.711-9.808c-0.525-4.678-1.976-8.07-3.634-10.323
				c-0.826-1.127-1.705-1.969-2.557-2.546c-0.427-0.289-0.845-0.51-1.256-0.665c-0.407-0.155-0.809-0.245-1.198-0.256l0,0
				c-0.038,0-0.074-0.002-0.111-0.002c-0.438,0-0.84,0.068-1.201,0.202c-0.27,0.1-0.513,0.236-0.725,0.401
				c-0.157,0.125-0.297,0.267-0.416,0.418c-0.177,0.23-0.312,0.485-0.396,0.749c-0.087,0.264-0.128,0.536-0.128,0.808
				c0,0.321,0.061,0.646,0.182,0.954c0.093,0.23,0.22,0.451,0.385,0.652c0.124,0.149,0.267,0.287,0.43,0.408
				c0.244,0.182,0.527,0.325,0.843,0.419c0.314,0.096,0.659,0.145,1.028,0.145c0.037,0,0.073,0,0.111-0.001l0,0
				c0.391-0.011,0.791-0.101,1.199-0.256c0.359-0.136,0.726-0.321,1.096-0.561c0.649-0.417,1.317-0.988,1.969-1.721
				c0.979-1.103,1.918-2.572,2.693-4.438s1.385-4.129,1.688-6.813c0.616-5.486,0.711-8.484,0.711-9.808
				c0-0.563-0.018-0.822-0.021-0.842L-479.427-270.238z"/>
			<path fill="#382963" d="M-471.993-269.297h-3.229c-0.258,0-0.499,0.13-0.641,0.345c-0.069,0.104-0.114,0.205-0.149,0.303
				c-0.049,0.146-0.074,0.287-0.09,0.428c-0.015,0.14-0.021,0.282-0.021,0.432c0,0.154,0.006,0.316,0.017,0.488
				c0.016,0.3,0.046,0.632,0.082,0.999c0.051,0.548,0.115,1.174,0.165,1.871c0.049,0.698,0.087,1.468,0.087,2.301
				c0,0.2-0.003,0.403-0.007,0.612c-0.011,0.396-0.032,0.846-0.072,1.334c-0.068,0.854-0.184,1.823-0.331,2.826
				c-0.229,1.503-0.537,3.082-0.902,4.461c-0.181,0.689-0.377,1.329-0.58,1.883c-0.1,0.276-0.201,0.531-0.306,0.758
				c-0.102,0.227-0.204,0.425-0.303,0.59c-0.109,0.188-0.199,0.373-0.264,0.564c-0.032,0.096-0.057,0.194-0.073,0.295
				c-0.02,0.099-0.025,0.2-0.025,0.301c0,0.097,0.007,0.193,0.022,0.287c0.023,0.14,0.063,0.271,0.111,0.391
				c0.05,0.121,0.105,0.231,0.165,0.335c0.146,0.248,0.306,0.58,0.458,0.97c0.135,0.341,0.271,0.729,0.402,1.147
				c0.231,0.735,0.451,1.571,0.648,2.448c0.3,1.316,0.552,2.726,0.733,4.039c0.092,0.656,0.164,1.288,0.215,1.871
				c0.058,0.584,0.089,1.12,0.1,1.579c0.004,0.208,0.007,0.412,0.007,0.611c0,1.271-0.086,2.392-0.171,3.337
				c-0.046,0.474-0.089,0.902-0.122,1.287c-0.019,0.193-0.031,0.375-0.041,0.547c-0.011,0.172-0.017,0.334-0.017,0.487
				c0,0.102,0,0.197,0.008,0.291c0.01,0.143,0.027,0.281,0.062,0.424c0.018,0.072,0.039,0.145,0.07,0.221
				c0.028,0.073,0.068,0.15,0.12,0.228c0.142,0.214,0.383,0.345,0.641,0.345h3.229c0.428,0,0.772-0.345,0.772-0.77
				s-0.346-0.771-0.772-0.771h-3.229v0.771l0.642-0.425l-0.235,0.157l0.256-0.122c-0.001-0.01-0.007-0.021-0.021-0.035l-0.235,0.157
				l0.256-0.122l-0.112,0.054l0.118-0.043c0,0-0.002-0.004-0.006-0.011l-0.112,0.054l0.118-0.043l-0.016,0.007l0.016-0.007l0,0
				l-0.016,0.007l0.016-0.007v-0.001c-0.002-0.008-0.012-0.047-0.018-0.108c-0.009-0.062-0.013-0.146-0.013-0.25
				c0-0.111,0.004-0.245,0.018-0.396c0.013-0.266,0.042-0.582,0.077-0.943c0.052-0.543,0.115-1.184,0.17-1.908
				c0.051-0.725,0.087-1.533,0.087-2.411c0-0.211-0.001-0.426-0.005-0.645c-0.011-0.439-0.04-0.928-0.082-1.45
				c-0.077-0.914-0.202-1.936-0.365-2.99c-0.246-1.584-0.58-3.239-0.971-4.712c-0.194-0.735-0.404-1.425-0.628-2.042
				c-0.112-0.308-0.228-0.598-0.347-0.865s-0.244-0.516-0.375-0.739c-0.044-0.074-0.066-0.127-0.079-0.162
				c-0.005-0.019-0.008-0.03-0.01-0.042c-0.002-0.011-0.002-0.021-0.002-0.03s0-0.021,0.002-0.04
				c0.006-0.026,0.016-0.065,0.039-0.121c0.021-0.056,0.057-0.127,0.108-0.213c0.204-0.345,0.391-0.741,0.566-1.181
				c0.153-0.385,0.303-0.802,0.441-1.248c0.243-0.777,0.468-1.637,0.666-2.53c0.301-1.34,0.547-2.757,0.725-4.085
				c0.089-0.664,0.159-1.306,0.213-1.905c0.052-0.601,0.084-1.156,0.097-1.654c0.004-0.22,0.005-0.435,0.005-0.646
				c0-1.339-0.087-2.513-0.179-3.477c-0.044-0.483-0.089-0.913-0.119-1.281c-0.017-0.184-0.029-0.353-0.036-0.504
				c-0.014-0.151-0.018-0.285-0.018-0.396c0-0.072,0.002-0.136,0.007-0.188c0.006-0.08,0.017-0.136,0.021-0.159
				c0-0.005,0.002-0.009,0.002-0.011l0,0l-0.198-0.07l0.173,0.116c0.021-0.03,0.025-0.046,0.025-0.046l-0.198-0.07l0.173,0.116
				l-0.642-0.425v0.771h3.229c0.427,0,0.771-0.345,0.771-0.771C-471.22-268.952-471.566-269.297-471.993-269.297z"/>
		</g>
		<g>
			<path fill="#382963" d="M-311.711-249.435c-0.093-0.229-0.22-0.452-0.385-0.652c-0.124-0.148-0.267-0.287-0.43-0.408
				c-0.242-0.182-0.527-0.324-0.844-0.419c-0.313-0.096-0.657-0.145-1.026-0.145c-0.038,0-0.077,0.001-0.113,0.002
				c-0.391,0.011-0.79,0.101-1.198,0.256c-0.359,0.136-0.726,0.323-1.096,0.562c-0.301,0.19-0.604,0.416-0.905,0.674
				c-0.823-0.951-1.646-2.243-2.338-3.904c-0.715-1.723-1.288-3.842-1.576-6.396c-0.61-5.441-0.701-8.385-0.701-9.635
				c0-0.265,0.004-0.455,0.009-0.575c0.002-0.06,0.004-0.104,0.004-0.129c0.001-0.014,0.004-0.021,0.004-0.026
				c0-0.003,0-0.005,0-0.005v-0.001l-0.314-0.021l0.314,0.021l-0.481-0.032l-0.287-0.021l-0.77-0.053
				c0,0.021-0.017,0.279-0.017,0.842c0,1.324,0.094,4.321,0.71,9.808c0.526,4.678,1.979,8.069,3.631,10.323
				c0.235,0.319,0.476,0.616,0.718,0.891c-0.967,1.099-1.896,2.555-2.664,4.399c-0.775,1.866-1.382,4.129-1.685,6.814
				c-0.616,5.487-0.71,8.482-0.71,9.808c0,0.563,0.017,0.822,0.017,0.842l1.074-0.073l0.464-0.03v-0.001l0,0l0,0l0,0
				c-0.003-0.016-0.016-0.245-0.016-0.737c0-1.25,0.09-4.192,0.7-9.636c0.5-4.447,1.871-7.578,3.345-9.583
				c0.188-0.257,0.379-0.496,0.569-0.716c0.249,0.212,0.499,0.401,0.743,0.568c0.427,0.289,0.847,0.512,1.258,0.666
				c0.408,0.155,0.809,0.246,1.198,0.256l0.011,0.001l-0.01-0.001c0.035,0.001,0.074,0.001,0.112,0.001
				c0.436,0.001,0.841-0.067,1.197-0.201c0.271-0.102,0.516-0.237,0.725-0.403c0.16-0.125,0.3-0.266,0.419-0.418
				c0.18-0.229,0.311-0.484,0.395-0.747c0.087-0.264,0.128-0.538,0.128-0.809C-311.533-248.802-311.59-249.126-311.711-249.435z
				 M-313.143-248.095c-0.035,0.089-0.081,0.168-0.145,0.242c-0.043,0.055-0.097,0.105-0.161,0.153
				c-0.094,0.07-0.212,0.133-0.368,0.18c-0.153,0.047-0.347,0.079-0.579,0.079c-0.023,0-0.049-0.001-0.073-0.001
				c-0.174-0.004-0.414-0.051-0.69-0.156c-0.246-0.092-0.521-0.231-0.814-0.418c-0.202-0.13-0.414-0.285-0.631-0.463
				c0.351-0.288,0.688-0.514,0.998-0.677c0.234-0.125,0.456-0.216,0.647-0.273c0.192-0.058,0.361-0.083,0.49-0.087
				c0.023,0,0.05-0.001,0.073-0.001c0.277,0.001,0.497,0.043,0.663,0.105c0.127,0.047,0.227,0.104,0.307,0.168
				c0.062,0.049,0.112,0.101,0.155,0.156c0.064,0.083,0.113,0.177,0.146,0.279c0.035,0.104,0.053,0.214,0.053,0.33
				C-313.071-248.344-313.098-248.212-313.143-248.095z"/>
			<path fill="#382963" d="M-323.462-247.293c0.109-0.186,0.2-0.372,0.263-0.563c0.033-0.097,0.06-0.195,0.074-0.294
				c0.018-0.1,0.026-0.2,0.026-0.302c0-0.098-0.008-0.192-0.022-0.286c-0.024-0.141-0.065-0.271-0.112-0.392
				c-0.051-0.121-0.105-0.229-0.167-0.334c-0.146-0.249-0.301-0.579-0.456-0.97c-0.136-0.341-0.272-0.729-0.401-1.148
				c-0.233-0.734-0.452-1.57-0.649-2.447c-0.298-1.315-0.553-2.726-0.733-4.037c-0.09-0.657-0.164-1.289-0.218-1.873
				c-0.055-0.583-0.086-1.119-0.097-1.578c-0.004-0.208-0.008-0.412-0.008-0.612c0-1.27,0.087-2.391,0.175-3.337
				c0.043-0.473,0.086-0.902,0.119-1.287c0.019-0.192,0.031-0.375,0.044-0.547c0.007-0.172,0.017-0.334,0.017-0.488
				c0-0.101-0.004-0.196-0.011-0.291c-0.01-0.143-0.024-0.28-0.062-0.424c-0.021-0.069-0.041-0.144-0.07-0.218
				c-0.029-0.075-0.065-0.152-0.12-0.229c-0.139-0.215-0.385-0.346-0.642-0.346h-3.229c-0.427,0-0.771,0.346-0.771,0.771
				s0.346,0.771,0.771,0.771h2.593c-0.002,0.105-0.007,0.228-0.015,0.363c-0.019,0.266-0.045,0.583-0.079,0.944
				c-0.053,0.543-0.116,1.185-0.168,1.907c-0.051,0.726-0.09,1.533-0.09,2.411c0,0.21,0,0.426,0.005,0.646
				c0.011,0.439,0.04,0.928,0.082,1.449c0.075,0.914,0.201,1.937,0.365,2.991c0.248,1.583,0.58,3.239,0.971,4.711
				c0.195,0.736,0.404,1.426,0.627,2.041c0.112,0.31,0.229,0.599,0.348,0.865c0.121,0.27,0.244,0.515,0.375,0.74
				c0.044,0.074,0.063,0.127,0.079,0.162c0.007,0.018,0.008,0.03,0.01,0.042c0.002,0.01,0.004,0.02,0.004,0.03
				c0,0.01-0.002,0.022-0.006,0.041c-0.001,0.026-0.015,0.064-0.035,0.121c-0.023,0.056-0.059,0.125-0.108,0.214
				c-0.206,0.344-0.393,0.739-0.567,1.18c-0.156,0.385-0.305,0.802-0.442,1.247c-0.246,0.778-0.468,1.637-0.666,2.531
				c-0.301,1.34-0.548,2.757-0.723,4.085c-0.091,0.664-0.161,1.306-0.216,1.905c-0.052,0.601-0.083,1.158-0.096,1.655l0,0
				c-0.005,0.219-0.005,0.434-0.005,0.646c0,1.338,0.09,2.513,0.179,3.477c0.045,0.483,0.089,0.913,0.119,1.281
				c0.019,0.184,0.029,0.353,0.039,0.503c0.009,0.137,0.013,0.259,0.015,0.365h-2.593c-0.427,0-0.771,0.345-0.771,0.77
				s0.346,0.771,0.771,0.771h3.229c0.257,0,0.503-0.131,0.642-0.346c0.069-0.103,0.114-0.205,0.147-0.303
				c0.051-0.147,0.075-0.287,0.092-0.428c0.018-0.142,0.022-0.283,0.022-0.433c0-0.153-0.01-0.315-0.017-0.487
				c-0.02-0.301-0.049-0.633-0.084-0.998c-0.054-0.548-0.115-1.174-0.167-1.872c-0.048-0.697-0.087-1.467-0.087-2.3
				c0-0.2,0.004-0.403,0.008-0.612l0,0c0.011-0.396,0.032-0.846,0.073-1.334c0.067-0.855,0.182-1.824,0.331-2.827
				c0.226-1.503,0.538-3.081,0.901-4.46c0.181-0.69,0.377-1.33,0.58-1.882c0.1-0.277,0.201-0.531,0.304-0.757
				C-323.666-246.928-323.561-247.128-323.462-247.293z"/>
		</g>
	</g>
	<text transform="matrix(1 0 0 1 -463.3757 -240.011)" fill="#382963" font-family="'DFYuan-Md-HKP-BF'" font-size="28.1529">登入/註冊</text>
</g>
</svg>
