<?xml version="1.0" encoding="utf-8"?>
<!-- Generator: Adobe Illustrator 16.0.0, SVG Export Plug-In . SVG Version: 6.00 Build 0)  -->
<!DOCTYPE svg PUBLIC "-//W3C//DTD SVG 1.1//EN" "http://www.w3.org/Graphics/SVG/1.1/DTD/svg11.dtd">
<svg version="1.1" id="圖層_1" xmlns="http://www.w3.org/2000/svg" xmlns:xlink="http://www.w3.org/1999/xlink" x="0px" y="0px"
	 width="178.148px" height="43.727px" viewBox="0 0 178.148 43.727" enable-background="new 0 0 178.148 43.727"
	 xml:space="preserve">
<g>
	<g>
		<path fill="#382963" d="M10.777,0.105l0.467-0.032l-0.467,0.03V0.105l0.467-0.032l-0.467,0.03l0,0
			c0.002,0.011,0.016,0.24,0.016,0.738c0,1.25-0.091,4.193-0.703,9.634c-0.499,4.449-1.867,7.581-3.341,9.585
			c-0.369,0.5-0.742,0.932-1.11,1.294c-0.553,0.543-1.091,0.937-1.563,1.187c-0.235,0.125-0.453,0.214-0.646,0.271
			c-0.195,0.06-0.364,0.084-0.493,0.087l0,0c-0.023,0-0.049,0.001-0.071,0.001c-0.281,0-0.497-0.043-0.666-0.105
			c-0.127-0.046-0.223-0.104-0.306-0.168c-0.062-0.048-0.112-0.101-0.155-0.156c-0.064-0.083-0.114-0.177-0.147-0.279
			c-0.032-0.102-0.053-0.213-0.053-0.329c0-0.137,0.026-0.269,0.073-0.385c0.036-0.087,0.083-0.168,0.142-0.242
			c0.047-0.055,0.099-0.105,0.163-0.152c0.095-0.071,0.212-0.134,0.367-0.181c0.153-0.047,0.346-0.078,0.583-0.079
			c0.022,0,0.045,0.001,0.071,0.001l0,0c0.175,0.006,0.415,0.051,0.692,0.156c0.243,0.093,0.52,0.23,0.812,0.418
			c0.515,0.328,1.078,0.807,1.647,1.447c0.853,0.96,1.708,2.284,2.426,4.006c0.715,1.722,1.289,3.842,1.574,6.396
			c0.612,5.442,0.703,8.385,0.703,9.636c0,0.266-0.004,0.455-0.008,0.575c-0.005,0.06-0.005,0.103-0.006,0.13
			c0,0.013,0,0.021-0.002,0.027c0,0.003,0,0.004,0,0.004v0.001l0.321,0.021l-0.321-0.021l0,0l0.321,0.021l-0.321-0.021l0.549,0.035
			l-0.549-0.036v0.001l0.549,0.035l-0.549-0.036l0,0l0.742,0.051l-0.742-0.051l0,0l0.742,0.051l-0.742-0.051l1.535,0.104
			c0.002-0.02,0.02-0.279,0.02-0.842c0-1.323-0.094-4.321-0.711-9.809c-0.524-4.678-1.975-8.069-3.633-10.322
			c-0.826-1.127-1.707-1.97-2.557-2.546c-0.427-0.289-0.845-0.511-1.255-0.665c-0.408-0.155-0.809-0.245-1.199-0.256l0,0
			c-0.038,0-0.075-0.003-0.11-0.003c-0.44,0-0.84,0.068-1.202,0.202c-0.269,0.101-0.512,0.237-0.725,0.402
			c-0.157,0.125-0.297,0.266-0.417,0.418c-0.177,0.23-0.311,0.485-0.396,0.749C0.041,21.319,0,21.592,0,21.863
			c0,0.322,0.06,0.646,0.182,0.954c0.092,0.231,0.22,0.452,0.385,0.653c0.124,0.149,0.267,0.287,0.43,0.408
			c0.244,0.182,0.526,0.325,0.842,0.419c0.314,0.096,0.658,0.144,1.029,0.144c0.036,0,0.073,0,0.11-0.001l0,0
			c0.391-0.01,0.791-0.1,1.199-0.255c0.359-0.136,0.726-0.322,1.097-0.561c0.649-0.417,1.317-0.988,1.968-1.722
			c0.978-1.102,1.919-2.571,2.694-4.438c0.774-1.866,1.384-4.129,1.687-6.814c0.617-5.485,0.711-8.483,0.711-9.807
			c0-0.563-0.018-0.823-0.02-0.842L10.777,0.105z"/>
		<path fill="#382963" d="M18.212,1.047h-3.229c-0.258,0-0.499,0.13-0.642,0.345c-0.067,0.104-0.112,0.205-0.148,0.302
			c-0.049,0.147-0.074,0.287-0.09,0.429c-0.015,0.14-0.021,0.281-0.021,0.432c0,0.154,0.006,0.316,0.017,0.488
			c0.016,0.3,0.047,0.632,0.083,0.999c0.051,0.548,0.114,1.174,0.165,1.871c0.048,0.697,0.086,1.468,0.086,2.301
			c0,0.2-0.002,0.403-0.007,0.612c-0.01,0.396-0.032,0.846-0.071,1.334c-0.069,0.854-0.184,1.822-0.333,2.825
			c-0.229,1.503-0.535,3.082-0.9,4.461c-0.181,0.69-0.378,1.329-0.58,1.884c-0.1,0.275-0.202,0.53-0.306,0.758
			c-0.104,0.226-0.205,0.425-0.303,0.59c-0.11,0.187-0.2,0.373-0.264,0.563c-0.032,0.097-0.058,0.194-0.075,0.296
			c-0.018,0.099-0.024,0.199-0.024,0.301c0,0.097,0.008,0.192,0.022,0.287c0.023,0.14,0.063,0.271,0.112,0.391
			c0.049,0.121,0.105,0.231,0.165,0.335c0.146,0.248,0.305,0.58,0.457,0.969c0.136,0.342,0.271,0.729,0.403,1.148
			c0.23,0.735,0.451,1.571,0.648,2.448c0.299,1.315,0.551,2.726,0.732,4.039c0.092,0.655,0.165,1.288,0.217,1.871
			c0.055,0.584,0.088,1.119,0.098,1.578c0.005,0.208,0.007,0.412,0.007,0.612c0,1.271-0.085,2.391-0.172,3.336
			c-0.045,0.475-0.088,0.903-0.121,1.288c-0.019,0.193-0.031,0.375-0.041,0.546c-0.011,0.172-0.017,0.334-0.017,0.488
			c0,0.101,0,0.197,0.008,0.291c0.011,0.142,0.027,0.281,0.062,0.424c0.018,0.072,0.04,0.145,0.071,0.22
			c0.028,0.074,0.067,0.151,0.118,0.229c0.143,0.214,0.384,0.345,0.642,0.345h3.229c0.427,0,0.771-0.345,0.771-0.77
			c0-0.426-0.346-0.771-0.771-0.771h-3.229v0.771l0.643-0.426l-0.235,0.157l0.255-0.122c-0.001-0.009-0.009-0.02-0.02-0.035
			l-0.235,0.157l0.255-0.122l-0.111,0.055l0.118-0.043c0,0-0.002-0.005-0.007-0.012l-0.111,0.055l0.118-0.043l-0.017,0.007
			l0.017-0.007l0,0l-0.017,0.007l0.017-0.007V41.53c-0.002-0.008-0.012-0.047-0.019-0.107c-0.008-0.063-0.013-0.147-0.013-0.25
			c0-0.112,0.005-0.245,0.016-0.397c0.016-0.265,0.045-0.582,0.079-0.942c0.052-0.543,0.116-1.185,0.169-1.908
			c0.052-0.726,0.089-1.533,0.089-2.411c0-0.211-0.001-0.426-0.007-0.645c-0.01-0.439-0.039-0.929-0.082-1.45
			c-0.075-0.914-0.201-1.937-0.364-2.99c-0.245-1.584-0.579-3.24-0.972-4.712c-0.192-0.736-0.403-1.425-0.628-2.042
			c-0.11-0.309-0.226-0.598-0.346-0.865s-0.243-0.516-0.375-0.74c-0.043-0.073-0.066-0.127-0.078-0.162
			c-0.006-0.018-0.008-0.029-0.01-0.042c-0.003-0.011-0.003-0.02-0.003-0.029s0-0.022,0.003-0.04
			c0.005-0.027,0.015-0.066,0.039-0.121c0.021-0.056,0.057-0.127,0.107-0.213c0.203-0.346,0.392-0.741,0.567-1.182
			c0.153-0.385,0.302-0.802,0.441-1.248c0.242-0.776,0.468-1.637,0.665-2.529c0.301-1.34,0.547-2.757,0.726-4.085
			c0.088-0.664,0.159-1.307,0.212-1.905c0.051-0.601,0.084-1.157,0.096-1.655c0.005-0.219,0.007-0.434,0.007-0.645
			c0-1.339-0.089-2.514-0.18-3.478c-0.042-0.482-0.088-0.913-0.119-1.28c-0.016-0.185-0.029-0.354-0.038-0.504
			c-0.011-0.151-0.016-0.285-0.016-0.396c0-0.073,0.003-0.136,0.006-0.189c0.007-0.079,0.018-0.136,0.022-0.158
			c0-0.005,0.002-0.01,0.002-0.012l0,0L15.45,2.125l0.173,0.115c0.02-0.029,0.025-0.046,0.025-0.046L15.45,2.125l0.173,0.115
			L14.98,1.816v0.771h3.229c0.427,0,0.771-0.345,0.771-0.771C18.983,1.392,18.638,1.047,18.212,1.047z"/>
	</g>
	<g>
		<path fill="#382963" d="M178.493,20.909c-0.093-0.229-0.221-0.452-0.385-0.652c-0.124-0.149-0.269-0.287-0.432-0.408
			c-0.24-0.182-0.525-0.325-0.843-0.419c-0.313-0.096-0.657-0.145-1.025-0.145c-0.038,0-0.076,0.001-0.114,0.002
			c-0.392,0.011-0.789,0.101-1.198,0.256c-0.358,0.136-0.725,0.323-1.096,0.561c-0.301,0.191-0.604,0.416-0.905,0.674
			c-0.822-0.95-1.646-2.242-2.337-3.903c-0.714-1.724-1.288-3.843-1.576-6.397c-0.61-5.44-0.701-8.384-0.701-9.634
			c0-0.265,0.004-0.455,0.008-0.575c0.003-0.06,0.004-0.104,0.004-0.129c0.003-0.014,0.005-0.021,0.005-0.027
			c0-0.003,0-0.005,0-0.005V0.104l-0.314-0.021l0.314,0.021l-0.482-0.032l-0.286-0.02L166.359,0c0,0.02-0.02,0.278-0.02,0.842
			c0,1.324,0.095,4.321,0.711,9.807c0.525,4.679,1.978,8.07,3.631,10.324c0.235,0.319,0.477,0.616,0.718,0.89
			c-0.966,1.1-1.896,2.556-2.663,4.4c-0.775,1.866-1.383,4.129-1.686,6.814c-0.616,5.486-0.711,8.482-0.711,9.808
			c0,0.563,0.02,0.822,0.02,0.842l1.073-0.074l0.464-0.029v-0.001l0,0l0,0l0,0c-0.002-0.017-0.017-0.245-0.017-0.737
			c0-1.25,0.091-4.193,0.701-9.636c0.5-4.447,1.871-7.578,3.344-9.583c0.188-0.257,0.38-0.496,0.569-0.716
			c0.249,0.212,0.499,0.401,0.745,0.568c0.426,0.289,0.846,0.511,1.256,0.666c0.409,0.155,0.808,0.246,1.198,0.255l0.012,0.001
			l-0.01-0.001c0.036,0.001,0.074,0.001,0.112,0.001c0.436,0.001,0.84-0.066,1.197-0.201c0.271-0.101,0.515-0.236,0.725-0.402
			c0.159-0.125,0.299-0.267,0.418-0.418c0.179-0.229,0.311-0.484,0.396-0.747c0.087-0.264,0.127-0.538,0.127-0.81
			C178.671,21.542,178.615,21.218,178.493,20.909z M177.062,22.249c-0.035,0.089-0.08,0.168-0.145,0.242
			c-0.044,0.055-0.097,0.105-0.161,0.152c-0.095,0.071-0.212,0.133-0.369,0.18c-0.152,0.048-0.346,0.079-0.578,0.079
			c-0.024,0-0.051-0.001-0.073-0.001c-0.175-0.004-0.414-0.05-0.691-0.155c-0.244-0.093-0.521-0.231-0.813-0.418
			c-0.202-0.131-0.415-0.285-0.631-0.464c0.35-0.287,0.687-0.513,0.997-0.677c0.235-0.125,0.457-0.215,0.648-0.272
			c0.192-0.059,0.36-0.083,0.49-0.087c0.022,0,0.049-0.001,0.073-0.001c0.278,0.001,0.497,0.043,0.663,0.105
			c0.126,0.046,0.226,0.104,0.308,0.168c0.061,0.048,0.11,0.101,0.154,0.156c0.063,0.083,0.112,0.177,0.146,0.279
			c0.035,0.104,0.052,0.214,0.052,0.33C177.133,22,177.106,22.132,177.062,22.249z"/>
		<path fill="#382963" d="M166.741,23.051c0.109-0.187,0.201-0.372,0.263-0.564c0.034-0.096,0.061-0.194,0.076-0.294
			c0.014-0.099,0.025-0.199,0.025-0.301c0-0.098-0.009-0.193-0.022-0.287c-0.024-0.14-0.065-0.271-0.114-0.391
			c-0.049-0.121-0.104-0.23-0.167-0.334c-0.145-0.249-0.301-0.579-0.454-0.97c-0.136-0.342-0.272-0.729-0.403-1.148
			c-0.23-0.735-0.451-1.571-0.647-2.448c-0.298-1.314-0.554-2.725-0.732-4.037c-0.092-0.656-0.166-1.289-0.22-1.873
			c-0.053-0.583-0.086-1.118-0.097-1.577c-0.004-0.208-0.008-0.412-0.008-0.612c0-1.271,0.087-2.392,0.176-3.337
			c0.042-0.474,0.086-0.902,0.119-1.287c0.02-0.193,0.031-0.375,0.044-0.547c0.007-0.172,0.015-0.334,0.015-0.488
			c0-0.101-0.004-0.197-0.01-0.291c-0.01-0.143-0.025-0.281-0.062-0.424c-0.021-0.07-0.041-0.145-0.07-0.218
			c-0.029-0.075-0.066-0.152-0.119-0.229c-0.141-0.214-0.385-0.345-0.643-0.345h-3.229c-0.427,0-0.771,0.345-0.771,0.77
			c0,0.426,0.345,0.771,0.771,0.771h2.594c-0.004,0.104-0.007,0.227-0.016,0.363c-0.018,0.266-0.045,0.583-0.078,0.943
			c-0.054,0.543-0.118,1.186-0.169,1.908c-0.052,0.725-0.09,1.533-0.09,2.411c0,0.21,0,0.426,0.006,0.645
			c0.01,0.44,0.039,0.929,0.083,1.449c0.074,0.915,0.199,1.938,0.365,2.992c0.247,1.583,0.579,3.239,0.969,4.711
			c0.194,0.736,0.405,1.425,0.627,2.041c0.112,0.309,0.229,0.598,0.349,0.865c0.119,0.269,0.243,0.515,0.375,0.74
			c0.043,0.073,0.064,0.127,0.077,0.161c0.007,0.019,0.01,0.03,0.011,0.042c0.003,0.011,0.004,0.021,0.004,0.03
			s-0.001,0.023-0.005,0.041c-0.003,0.027-0.016,0.065-0.035,0.122c-0.024,0.055-0.061,0.125-0.108,0.213
			c-0.207,0.344-0.394,0.74-0.569,1.18c-0.154,0.386-0.303,0.803-0.441,1.247c-0.245,0.779-0.468,1.638-0.666,2.531
			c-0.3,1.34-0.548,2.757-0.722,4.085c-0.093,0.664-0.162,1.307-0.218,1.906c-0.052,0.6-0.082,1.158-0.094,1.655l0,0
			c-0.006,0.219-0.006,0.434-0.006,0.645c0,1.338,0.09,2.513,0.179,3.478c0.045,0.482,0.088,0.912,0.119,1.28
			c0.02,0.185,0.029,0.354,0.039,0.503c0.009,0.138,0.012,0.26,0.016,0.365h-2.594c-0.427,0-0.771,0.345-0.771,0.771
			c0,0.425,0.345,0.77,0.771,0.77h3.229c0.258,0,0.502-0.13,0.643-0.345c0.068-0.104,0.113-0.205,0.147-0.303
			c0.051-0.147,0.074-0.287,0.092-0.429c0.017-0.141,0.021-0.283,0.021-0.432c0-0.154-0.008-0.316-0.015-0.488
			c-0.021-0.3-0.05-0.632-0.086-0.998c-0.052-0.548-0.113-1.174-0.166-1.872c-0.048-0.696-0.087-1.467-0.087-2.3
			c0-0.2,0.004-0.403,0.008-0.612l0,0c0.011-0.396,0.034-0.846,0.072-1.334c0.069-0.854,0.183-1.823,0.333-2.826
			c0.225-1.504,0.538-3.081,0.899-4.46c0.183-0.69,0.379-1.33,0.58-1.883c0.101-0.276,0.202-0.53,0.305-0.757
			C166.539,23.416,166.643,23.216,166.741,23.051z"/>
	</g>
</g>
<g enable-background="new    ">
	<path fill="#382963" d="M42.794,13.286c0.275,0,0.513,0.083,0.715,0.248c0.183,0.164,0.275,0.366,0.275,0.604
		c0,0.312-0.064,0.568-0.193,0.77c-0.055,0.073-0.11,0.147-0.165,0.22h9.925c1.338,0,2.007,0.478,2.007,1.43
		c0,0.33-0.321,0.798-0.962,1.402c-1.32,1.265-2.851,2.392-4.591,3.382c-0.129,0.073-0.257,0.146-0.385,0.22
		c0.751,0.22,1.521,0.403,2.31,0.55c1.796,0.349,4.316,0.522,7.561,0.522c0.66,0,0.99,0.284,0.99,0.853
		c0,0.807-0.431,1.21-1.292,1.21c-1.485,0-3.244-0.138-5.279-0.413c-2.603-0.421-4.784-0.962-6.543-1.622
		c-0.788,0.349-1.641,0.688-2.557,1.018c-2.584,0.898-5.013,1.549-7.286,1.952c-0.954,0.184-1.586,0.274-1.897,0.274
		c-0.807,0-1.21-0.357-1.21-1.072c0-0.476,0.303-0.77,0.907-0.879c2.456-0.403,4.39-0.788,5.801-1.155
		c1.448-0.366,2.767-0.76,3.959-1.182c-1.173-0.587-2.126-1.173-2.859-1.76c-0.898-0.587-1.494-1.063-1.787-1.43
		c-0.128,0.109-0.266,0.211-0.412,0.302c-0.843,0.568-1.76,1.101-2.75,1.595c-0.238,0.147-0.449,0.221-0.632,0.221
		c-0.238,0-0.458-0.11-0.66-0.33c-0.165-0.238-0.248-0.495-0.248-0.771c0-0.293,0.192-0.559,0.577-0.797
		c0.971-0.458,1.814-0.943,2.529-1.457c0.66-0.458,1.255-0.962,1.787-1.512c0.477-0.495,1.054-1.183,1.732-2.063
		C42.326,13.397,42.537,13.286,42.794,13.286z M47.111,8.668c0.732,0,1.1,0.366,1.1,1.1v1.319h9.348
		c0.806,0,1.411,0.274,1.814,0.825c0.33,0.403,0.495,1.035,0.495,1.896c0,0.587-0.037,1.256-0.11,2.007
		c-0.165,0.587-0.568,0.88-1.209,0.88c-0.733,0-1.1-0.366-1.1-1.1c0.146-0.88,0.22-1.438,0.22-1.677c0-0.66-0.266-0.99-0.797-0.99
		H37.845c-0.587,0-0.88,0.294-0.88,0.88v1.897c0,0.659-0.367,0.989-1.1,0.989c-0.642,0-0.962-0.33-0.962-0.989v-2.667
		c0-1.302,0.65-1.952,1.952-1.952h9.155V9.768C46.01,9.034,46.377,8.668,47.111,8.668z M40.264,25.493h14.187
		c1.54,0,2.31,0.733,2.31,2.199v4.18c0,1.447-0.77,2.172-2.31,2.172H40.264c-1.466,0-2.199-0.725-2.199-2.172v-4.18
		C38.065,26.227,38.798,25.493,40.264,25.493z M53.819,32.092c0.568,0,0.853-0.294,0.853-0.88v-2.859c0-0.586-0.285-0.88-0.853-0.88
		H40.952c-0.532,0-0.797,0.294-0.797,0.88v2.859c0,0.586,0.266,0.88,0.797,0.88H53.819z M41.612,17.245
		c1.54,1.356,3.162,2.438,4.867,3.244c0.238,0.073,0.449,0.156,0.632,0.248c1.667-0.752,3.216-1.695,4.646-2.832
		c0.403-0.366,0.605-0.587,0.605-0.66c0-0.146-0.138-0.22-0.413-0.22h-9.677c-0.147,0-0.266-0.018-0.357-0.055
		c-0.074,0.055-0.128,0.101-0.165,0.137C41.694,17.163,41.648,17.209,41.612,17.245z"/>
	<path fill="#382963" d="M65.393,12.517c-0.165,0.202-0.33,0.395-0.495,0.577c-0.238,0.275-0.532,0.514-0.88,0.715
		c-0.165,0.147-0.339,0.22-0.522,0.22c-0.239,0-0.458-0.091-0.66-0.274c-0.165-0.202-0.247-0.44-0.247-0.715
		c0-0.201,0.073-0.376,0.22-0.522c0.293-0.183,0.541-0.376,0.742-0.577c0.257-0.275,0.485-0.56,0.688-0.853
		c0.183-0.293,0.339-0.623,0.467-0.99c0.11-0.385,0.403-0.577,0.88-0.577c0.202,0,0.375,0.073,0.522,0.22
		c0.146,0.129,0.22,0.313,0.22,0.551c0,0.109-0.037,0.266-0.11,0.467c-0.019,0.037-0.027,0.073-0.027,0.11h3.546v-1.1
		c0-0.587,0.302-0.88,0.907-0.88c0.66,0,0.99,0.293,0.99,0.88v1.1h4.839c0.513,0,0.77,0.247,0.77,0.742
		c0,0.604-0.257,0.907-0.77,0.907h-4.839v1.869h6.131c0.532,0,0.797,0.248,0.797,0.742c0,0.605-0.266,0.907-0.797,0.907h-6.131
		v1.293h4.619c1.081,0,1.622,0.477,1.622,1.43v1.787c0,1.228-0.541,1.97-1.622,2.227v1.512h11.08c0.605,0,0.907,0.294,0.907,0.88
		c0,0.66-0.302,0.99-0.907,0.99H76.446c0.641,1.063,1.375,1.961,2.199,2.694c0.568,0.439,1.146,0.824,1.732,1.154
		c1.063-0.916,1.925-1.76,2.584-2.529c0.256-0.312,0.477-0.468,0.66-0.468c0.66,0,0.99,0.303,0.99,0.908
		c0,0.329-0.147,0.623-0.44,0.879c-0.624,0.679-1.357,1.348-2.2,2.008c0.275,0.128,0.559,0.237,0.853,0.329
		c1.484,0.55,2.987,0.944,4.509,1.183c0.733,0.128,1.1,0.495,1.1,1.1c0,0.495-0.367,0.742-1.1,0.742
		c-2.017-0.366-3.849-0.88-5.499-1.539c-2.09-0.844-3.776-1.916-5.059-3.217c-0.843-0.807-1.549-1.796-2.117-2.97
		c-0.422,0.532-0.88,0.972-1.375,1.32c-0.568,0.439-1.265,0.852-2.09,1.237v3.354c0.037,0,0.073,0,0.11,0
		c1.961-0.202,3.784-0.541,5.471-1.017c0.605,0,0.907,0.366,0.907,1.1c0,0.476-0.367,0.77-1.1,0.88
		c-1.301,0.293-3.034,0.559-5.196,0.797c-2.419,0.274-4.105,0.412-5.059,0.412c-0.733,0-1.1-0.33-1.1-0.989
		c0-0.587,0.293-0.88,0.88-0.88c1.173-0.019,2.282-0.064,3.327-0.138v-2.805c-2.017,0.66-3.969,1.164-5.856,1.513
		c-0.239,0.073-0.458,0.11-0.66,0.11c-0.238,0-0.44-0.102-0.604-0.303c-0.165-0.202-0.248-0.44-0.248-0.715
		c0-0.458,0.21-0.752,0.632-0.88c2.181-0.33,4.279-0.807,6.296-1.43c1.191-0.366,2.199-0.825,3.024-1.375
		c0.275-0.146,0.504-0.302,0.688-0.467h-9.43c-0.604,0-0.907-0.33-0.907-0.99c0-0.586,0.303-0.88,0.907-0.88h10.97v-1.512
		c-0.22-0.036-0.477-0.083-0.77-0.138c-0.349-0.165-0.522-0.421-0.522-0.77c0-0.678,0.22-1.018,0.66-1.018
		c0.092,0,0.21,0.019,0.357,0.056c0.513,0.109,0.907,0.164,1.182,0.164c0.586,0,0.88-0.329,0.88-0.989v-0.522
		c0-0.458-0.156-0.688-0.467-0.688h-3.932v3.3c0,0.604-0.33,0.907-0.99,0.907c-0.605,0-0.907-0.303-0.907-0.907v-3.3h-3.519
		c-0.202,0-0.302,0.229-0.302,0.688v2.722c0,0.605-0.339,0.907-1.018,0.907c-0.586,0-0.88-0.302-0.88-0.907v-3.519
		c0-0.953,0.559-1.43,1.677-1.43h4.042v-1.293h-6.241c-0.532,0-0.797-0.302-0.797-0.907c0-0.494,0.266-0.742,0.797-0.742h6.241
		v-1.869H65.393z M80.982,10.29c0.66,0,0.99,0.339,0.99,1.017v6.818c0,0.66-0.33,0.99-0.99,0.99c-0.66,0-0.99-0.33-0.99-0.99v-6.818
		C79.992,10.629,80.322,10.29,80.982,10.29z M86.343,9.19c0.66,0,0.99,0.33,0.99,0.99v10.145c0,1.687-0.907,2.529-2.722,2.529
		c-0.66,0-1.54-0.109-2.64-0.329c-0.513-0.184-0.77-0.514-0.77-0.99c0.018-0.642,0.275-0.972,0.77-0.989
		c0.092,0,0.238,0.009,0.44,0.027c1.118,0.184,1.851,0.274,2.2,0.274c0.513,0,0.77-0.366,0.77-1.1V10.18
		C85.381,9.52,85.701,9.19,86.343,9.19z"/>
	<path fill="#382963" d="M112.076,9.19c0.605,0,0.908,0.367,0.908,1.101c0,0.494-0.377,0.797-1.128,0.907
		c-1.833,0.22-4.243,0.422-7.23,0.604v2.337h9.348c0.587,0,0.88,0.293,0.88,0.88c0,0.678-0.293,1.017-0.88,1.017h-8.468
		c1.612,1.063,3.198,1.907,4.756,2.53c1.118,0.531,2.832,1.081,5.142,1.649c0.477,0.092,0.733,0.376,0.77,0.852
		c-0.036,0.697-0.366,1.063-0.989,1.101c-0.221,0-0.706-0.101-1.457-0.303c-3.244-0.972-6.278-2.511-9.101-4.619v3.079
		c0,0.66-0.339,0.99-1.017,0.99c-0.66,0-0.99-0.33-0.99-0.99v-3.106c-1.76,1.265-3.373,2.209-4.839,2.832
		c-1.741,0.77-3.372,1.384-4.894,1.842c-0.514,0.184-0.898,0.275-1.154,0.275c-0.624-0.037-0.954-0.403-0.99-1.101
		c0.018-0.439,0.283-0.724,0.797-0.852c2.75-0.771,4.82-1.467,6.214-2.09c1.301-0.586,2.584-1.282,3.849-2.09h-8.66
		c-0.587,0-0.88-0.339-0.88-1.017c0-0.587,0.293-0.88,0.88-0.88h9.678v-2.172c-3.758,0.22-6.389,0.33-7.891,0.33
		c-0.733,0-1.1-0.33-1.1-0.99c0-0.604,0.283-0.907,0.852-0.907c3.08-0.018,5.93-0.109,8.551-0.274
		C106.275,9.942,109.291,9.63,112.076,9.19z M114.633,23.734c0.643,0,0.963,0.321,0.963,0.963c0,0.659-0.32,0.989-0.963,0.989
		h-5.003c-0.44,1.338-1.091,2.566-1.952,3.685c-0.293,0.366-0.596,0.705-0.907,1.017c2.181,0.568,4.757,1.246,7.726,2.035
		c0.586,0.183,0.889,0.513,0.907,0.989c-0.056,0.77-0.431,1.173-1.128,1.21c-0.128,0-0.329-0.046-0.604-0.138
		c-2.97-0.935-5.885-1.824-8.744-2.667c-0.366,0.238-0.751,0.44-1.154,0.605c-1.484,0.696-3.455,1.237-5.91,1.622
		c-1.742,0.312-3.52,0.467-5.334,0.467c-0.789,0-1.191-0.439-1.21-1.319c0-0.587,0.33-0.88,0.989-0.88
		c3.391-0.073,6.195-0.403,8.414-0.989c0.402-0.11,0.787-0.229,1.154-0.357c-1.32-0.349-2.621-0.688-3.904-1.018
		c-1.063-0.275-1.595-0.77-1.595-1.484c0-0.422,0.229-0.815,0.688-1.183c0.696-0.55,1.302-1.081,1.814-1.595h-6.571
		c-0.659,0-0.989-0.33-0.989-0.989c0-0.642,0.33-0.963,0.989-0.963h8.331c0.366-0.55,0.696-1.136,0.989-1.759
		c0.184-0.349,0.477-0.532,0.88-0.551c0.696,0.019,1.063,0.303,1.101,0.853c0,0.184-0.064,0.422-0.193,0.715
		c-0.128,0.238-0.257,0.486-0.385,0.742H114.633z M104.351,29.782c0.164-0.128,0.32-0.266,0.467-0.412
		c0.971-0.788,1.896-2.017,2.777-3.685h-6.049c-0.055,0.073-0.109,0.147-0.165,0.22c-0.587,0.643-1.311,1.311-2.172,2.008
		c-0.147,0.092-0.22,0.192-0.22,0.302c0,0.147,0.128,0.248,0.385,0.303C100.4,28.756,102.059,29.178,104.351,29.782z"/>
	<path fill="#382963" d="M128.463,13.506c0.659,0,0.989,0.33,0.989,0.99s-0.33,0.989-0.989,0.989h-8.66
		c-0.679,0-1.018-0.329-1.018-0.989s0.339-0.99,1.018-0.99H128.463z M121.672,25.163h5.059c1.228,0,1.842,0.577,1.842,1.732v5.306
		c0,1.229-0.614,1.843-1.842,1.843h-5.059c-1.247,0-1.869-0.614-1.869-1.843v-5.306C119.802,25.74,120.425,25.163,121.672,25.163z
		 M127.61,17.438c0.567,0,0.853,0.303,0.853,0.907c0,0.66-0.285,0.99-0.853,0.99h-6.818c-0.604,0-0.907-0.33-0.907-0.99
		c0-0.604,0.303-0.907,0.907-0.907H127.61z M127.61,21.424c0.567,0,0.853,0.285,0.853,0.853c0,0.66-0.285,0.99-0.853,0.99h-6.818
		c-0.604,0-0.907-0.33-0.907-0.99c0-0.567,0.303-0.853,0.907-0.853H127.61z M127.363,9.877c0.586,0,0.879,0.294,0.879,0.88
		c0,0.642-0.293,0.962-0.879,0.962h-6.461c-0.605,0-0.908-0.32-0.908-0.962c0-0.586,0.303-0.88,0.908-0.88H127.363z M125.823,32.201
		c0.531,0,0.798-0.293,0.798-0.879v-3.52c0-0.531-0.267-0.798-0.798-0.798h-3.3c-0.494,0-0.742,0.267-0.742,0.798v3.52
		c0,0.586,0.248,0.879,0.742,0.879H125.823z M142.345,9.41c0.66,0,0.99,0.366,0.99,1.1c0,0.55-0.403,0.88-1.209,0.989
		c-1.43,0.403-3.354,0.752-5.773,1.045c-0.02,0-0.037,0-0.056,0v6.873l6.929-0.55c0.66,0,0.989,0.33,0.989,0.99
		c0,0.659-0.329,0.989-0.989,0.989l-6.929,0.577v9.348c0,0.477,0.165,0.807,0.495,0.99c0.402,0.22,1.301,0.33,2.694,0.33
		c1.228,0,1.961-0.147,2.199-0.44c0.293-0.312,0.44-0.705,0.44-1.182v-2.777c0.018-0.696,0.348-1.063,0.989-1.1
		c0.623,0.037,0.952,0.477,0.989,1.32c0,2.529-0.119,4.014-0.357,4.453c-0.128,0.55-0.485,0.972-1.072,1.265
		c-0.513,0.275-1.576,0.413-3.188,0.413c-2.182,0-3.602-0.221-4.262-0.66c-0.623-0.422-0.935-1.183-0.935-2.282v-9.54l-3.932,0.303
		c-0.678,0-1.018-0.339-1.018-1.018c0-0.659,0.34-0.989,1.018-0.989l3.932-0.275v-6.791c-1.595,0.165-2.768,0.248-3.52,0.248
		c-0.807,0-1.209-0.357-1.209-1.072c0-0.587,0.33-0.88,0.989-0.88c2.071-0.036,3.978-0.174,5.719-0.412
		C138.451,10.418,140.476,9.997,142.345,9.41z"/>
</g>
</svg>
