<?xml version="1.0" encoding="utf-8"?>
<!-- Generator: Adobe Illustrator 16.0.0, SVG Export Plug-In . SVG Version: 6.00 Build 0)  -->
<!DOCTYPE svg PUBLIC "-//W3C//DTD SVG 1.1//EN" "http://www.w3.org/Graphics/SVG/1.1/DTD/svg11.dtd">
<svg version="1.1" id="圖層_1" xmlns="http://www.w3.org/2000/svg" xmlns:xlink="http://www.w3.org/1999/xlink" x="0px" y="0px"
	 width="353px" height="98.947px" viewBox="0 0 353 98.947" enable-background="new 0 0 353 98.947" xml:space="preserve">
<g>
	<polygon fill="#382963" points="336.545,0 16.371,0 0,16.37 0,82.577 16.371,98.948 336.545,98.948 352.917,82.577 352.917,16.37 	
		"/>
	<g>
		<polygon fill="#ECE0EE" points="19.136,92.276 19.702,91.71 7.474,79.484 7.474,19.467 19.469,7.474 333.448,7.474 
			345.443,19.467 345.443,79.482 333.448,91.475 19.136,91.475 19.136,92.276 19.702,91.71 19.136,92.276 19.136,93.075 
			334.114,93.075 347.046,80.146 347.046,18.803 334.114,5.873 18.803,5.873 5.875,18.803 5.875,80.146 18.803,93.075 
			19.136,93.075 		"/>
	</g>
</g>
<g enable-background="new    ">
	<path fill="#ECE0EE" d="M103.976,35.292c0.42,0,0.784,0.126,1.092,0.378c0.28,0.252,0.42,0.561,0.42,0.924
		c0,0.477-0.098,0.868-0.294,1.176c-0.084,0.112-0.168,0.225-0.252,0.336h15.158c2.043,0,3.065,0.728,3.065,2.184
		c0,0.503-0.49,1.217-1.47,2.141c-2.015,1.932-4.353,3.653-7.012,5.165c-0.196,0.112-0.393,0.224-0.588,0.336
		c1.147,0.336,2.323,0.615,3.527,0.839c2.743,0.532,6.592,0.798,11.546,0.798c1.008,0,1.512,0.435,1.512,1.302
		c0,1.232-0.658,1.848-1.973,1.848c-2.268,0-4.955-0.21-8.062-0.63c-3.975-0.644-7.306-1.47-9.993-2.478
		c-1.204,0.532-2.505,1.05-3.905,1.554c-3.947,1.372-7.656,2.366-11.127,2.981c-1.456,0.28-2.421,0.42-2.897,0.42
		c-1.232,0-1.847-0.546-1.847-1.638c0-0.728,0.461-1.176,1.385-1.344c3.751-0.615,6.704-1.203,8.859-1.764
		c2.211-0.56,4.227-1.161,6.046-1.805c-1.792-0.896-3.248-1.791-4.367-2.688c-1.372-0.896-2.282-1.623-2.729-2.184
		c-0.196,0.168-0.406,0.322-0.629,0.462c-1.288,0.868-2.688,1.68-4.199,2.436c-0.364,0.225-0.687,0.336-0.966,0.336
		c-0.364,0-0.7-0.168-1.008-0.504c-0.252-0.363-0.378-0.756-0.378-1.176c0-0.447,0.294-0.854,0.882-1.218
		c1.483-0.699,2.771-1.441,3.863-2.226c1.008-0.699,1.917-1.469,2.729-2.309c0.728-0.756,1.609-1.806,2.646-3.149
		C103.262,35.46,103.583,35.292,103.976,35.292z M110.568,28.239c1.119,0,1.679,0.561,1.679,1.68v2.016h14.276
		c1.231,0,2.155,0.419,2.771,1.259c0.504,0.616,0.756,1.582,0.756,2.897c0,0.896-0.056,1.918-0.168,3.065
		c-0.252,0.896-0.868,1.343-1.847,1.343c-1.12,0-1.68-0.56-1.68-1.679c0.224-1.344,0.336-2.197,0.336-2.562
		c0-1.008-0.406-1.512-1.218-1.512H96.418c-0.896,0-1.343,0.448-1.343,1.344v2.897c0,1.008-0.561,1.511-1.68,1.511
		c-0.98,0-1.47-0.503-1.47-1.511v-4.073c0-1.987,0.994-2.98,2.981-2.98h13.981v-2.016C108.888,28.799,109.448,28.239,110.568,28.239
		z M100.113,53.935h21.666c2.352,0,3.527,1.12,3.527,3.358v6.383c0,2.211-1.175,3.316-3.527,3.316h-21.666
		c-2.24,0-3.359-1.105-3.359-3.316v-6.383C96.754,55.055,97.873,53.935,100.113,53.935z M120.813,64.012
		c0.868,0,1.302-0.448,1.302-1.344v-4.367c0-0.896-0.434-1.343-1.302-1.343h-19.65c-0.812,0-1.218,0.447-1.218,1.343v4.367
		c0,0.896,0.406,1.344,1.218,1.344H120.813z M102.17,41.338c2.351,2.072,4.829,3.724,7.432,4.955
		c0.363,0.112,0.686,0.238,0.966,0.378c2.547-1.147,4.913-2.589,7.096-4.325c0.615-0.56,0.924-0.896,0.924-1.008
		c0-0.224-0.21-0.336-0.63-0.336h-14.779c-0.225,0-0.406-0.027-0.546-0.084c-0.112,0.084-0.196,0.154-0.252,0.21
		C102.296,41.212,102.226,41.282,102.17,41.338z"/>
	<path fill="#ECE0EE" d="M138.489,34.116c-0.251,0.309-0.503,0.603-0.755,0.882c-0.364,0.42-0.813,0.784-1.344,1.092
		c-0.252,0.225-0.518,0.336-0.798,0.336c-0.364,0-0.7-0.14-1.008-0.42c-0.252-0.308-0.378-0.672-0.378-1.092
		c0-0.308,0.112-0.573,0.336-0.798c0.448-0.279,0.826-0.573,1.134-0.882c0.392-0.42,0.741-0.854,1.05-1.301
		c0.279-0.448,0.518-0.952,0.714-1.512c0.168-0.588,0.615-0.882,1.343-0.882c0.308,0,0.574,0.112,0.798,0.336
		c0.224,0.196,0.336,0.476,0.336,0.84c0,0.168-0.056,0.405-0.168,0.714c-0.028,0.056-0.042,0.111-0.042,0.168h5.417v-1.68
		c0-0.896,0.462-1.344,1.386-1.344c1.007,0,1.511,0.448,1.511,1.344v1.68h7.39c0.784,0,1.176,0.377,1.176,1.133
		c0,0.924-0.392,1.386-1.176,1.386h-7.39v2.855h9.363c0.812,0,1.218,0.378,1.218,1.134c0,0.924-0.406,1.386-1.218,1.386h-9.363
		v1.973h7.054c1.651,0,2.477,0.729,2.477,2.184v2.729c0,1.875-0.826,3.009-2.477,3.4v2.31h16.92c0.924,0,1.386,0.448,1.386,1.344
		c0,1.008-0.462,1.512-1.386,1.512h-16.627c0.979,1.623,2.1,2.995,3.359,4.114c0.867,0.672,1.749,1.26,2.645,1.764
		c1.623-1.399,2.939-2.688,3.947-3.862c0.392-0.477,0.728-0.714,1.008-0.714c1.008,0,1.511,0.462,1.511,1.385
		c0,0.504-0.224,0.952-0.671,1.344c-0.952,1.036-2.072,2.058-3.359,3.065c0.42,0.195,0.854,0.363,1.302,0.504
		c2.268,0.84,4.562,1.441,6.886,1.806c1.12,0.195,1.68,0.756,1.68,1.679c0,0.756-0.56,1.134-1.68,1.134
		c-3.079-0.56-5.878-1.344-8.397-2.351c-3.191-1.288-5.767-2.926-7.726-4.913c-1.288-1.231-2.366-2.743-3.233-4.534
		c-0.644,0.812-1.344,1.483-2.099,2.015c-0.868,0.672-1.932,1.302-3.191,1.89v5.123c0.056,0,0.112,0,0.168,0
		c2.995-0.309,5.78-0.826,8.355-1.554c0.924,0,1.386,0.56,1.386,1.68c0,0.728-0.56,1.175-1.68,1.343
		c-1.988,0.448-4.633,0.854-7.936,1.218c-3.695,0.42-6.271,0.63-7.726,0.63c-1.12,0-1.679-0.504-1.679-1.512
		c0-0.896,0.447-1.343,1.343-1.343c1.791-0.028,3.485-0.099,5.081-0.21v-4.283c-3.08,1.008-6.061,1.777-8.943,2.31
		c-0.364,0.111-0.7,0.168-1.008,0.168c-0.364,0-0.671-0.154-0.923-0.462c-0.252-0.309-0.378-0.672-0.378-1.092
		c0-0.699,0.321-1.147,0.965-1.344c3.331-0.504,6.536-1.231,9.615-2.184c1.819-0.56,3.359-1.259,4.619-2.099
		c0.42-0.224,0.77-0.462,1.05-0.714h-14.402c-0.924,0-1.385-0.504-1.385-1.512c0-0.896,0.461-1.344,1.385-1.344h16.753v-2.31
		c-0.336-0.056-0.728-0.126-1.175-0.21c-0.532-0.252-0.798-0.644-0.798-1.175c0-1.036,0.336-1.554,1.007-1.554
		c0.14,0,0.322,0.028,0.546,0.084c0.784,0.168,1.386,0.252,1.806,0.252c0.896,0,1.344-0.504,1.344-1.512v-0.798
		c0-0.699-0.238-1.05-0.714-1.05h-6.004v5.038c0,0.924-0.504,1.386-1.511,1.386c-0.924,0-1.386-0.462-1.386-1.386v-5.038h-5.375
		c-0.308,0-0.462,0.351-0.462,1.05v4.156c0,0.924-0.518,1.386-1.553,1.386c-0.896,0-1.344-0.462-1.344-1.386v-5.374
		c0-1.455,0.854-2.184,2.561-2.184h6.172v-1.973h-9.531c-0.812,0-1.218-0.462-1.218-1.386c0-0.756,0.406-1.134,1.218-1.134h9.531
		v-2.855H138.489z M162.296,30.716c1.008,0,1.511,0.518,1.511,1.553v10.413c0,1.008-0.503,1.512-1.511,1.512
		s-1.512-0.504-1.512-1.512V32.269C160.785,31.234,161.289,30.716,162.296,30.716z M170.484,29.036c1.008,0,1.511,0.504,1.511,1.512
		v15.493c0,2.575-1.385,3.862-4.157,3.862c-1.007,0-2.351-0.168-4.031-0.504c-0.784-0.279-1.175-0.783-1.175-1.511
		c0.027-0.979,0.42-1.483,1.175-1.512c0.14,0,0.364,0.015,0.672,0.042c1.707,0.28,2.827,0.42,3.359,0.42
		c0.784,0,1.176-0.56,1.176-1.68V30.548C169.014,29.54,169.504,29.036,170.484,29.036z"/>
	<path fill="#ECE0EE" d="M209.784,29.036c0.924,0,1.386,0.561,1.386,1.68c0,0.756-0.574,1.218-1.722,1.385
		c-2.8,0.336-6.48,0.645-11.043,0.924v3.569h14.276c0.895,0,1.344,0.448,1.344,1.344c0,1.036-0.449,1.554-1.344,1.554h-12.933
		c2.463,1.623,4.884,2.911,7.264,3.862c1.707,0.813,4.325,1.652,7.853,2.52c0.727,0.141,1.119,0.574,1.175,1.302
		c-0.056,1.063-0.56,1.623-1.511,1.679c-0.336,0-1.078-0.153-2.227-0.461c-4.954-1.483-9.587-3.835-13.897-7.055v4.703
		c0,1.008-0.519,1.512-1.554,1.512c-1.008,0-1.512-0.504-1.512-1.512v-4.745c-2.687,1.932-5.15,3.374-7.389,4.325
		c-2.66,1.176-5.151,2.113-7.475,2.813c-0.783,0.279-1.371,0.419-1.764,0.419c-0.951-0.056-1.455-0.615-1.512-1.679
		c0.028-0.672,0.435-1.105,1.219-1.302c4.198-1.176,7.361-2.239,9.488-3.191c1.988-0.896,3.947-1.959,5.879-3.19h-13.227
		c-0.896,0-1.344-0.518-1.344-1.554c0-0.896,0.447-1.344,1.344-1.344h14.779v-3.317c-5.738,0.336-9.755,0.504-12.05,0.504
		c-1.12,0-1.68-0.504-1.68-1.512c0-0.923,0.435-1.385,1.302-1.385c4.703-0.028,9.055-0.168,13.059-0.42
		C200.925,30.184,205.529,29.708,209.784,29.036z M213.689,51.247c0.979,0,1.469,0.49,1.469,1.47c0,1.008-0.49,1.512-1.469,1.512
		h-7.643c-0.672,2.043-1.666,3.919-2.98,5.626c-0.448,0.561-0.91,1.078-1.386,1.554c3.331,0.867,7.264,1.903,11.798,3.107
		c0.896,0.279,1.357,0.783,1.387,1.511c-0.084,1.176-0.658,1.791-1.723,1.848c-0.195,0-0.504-0.07-0.924-0.21
		c-4.534-1.428-8.984-2.785-13.352-4.072c-0.561,0.363-1.148,0.672-1.764,0.924c-2.268,1.063-5.276,1.889-9.027,2.477
		c-2.659,0.476-5.374,0.714-8.145,0.714c-1.205,0-1.82-0.672-1.848-2.016c0-0.896,0.504-1.343,1.512-1.343
		c5.178-0.112,9.461-0.616,12.848-1.512c0.615-0.168,1.203-0.351,1.764-0.546c-2.016-0.532-4.004-1.05-5.963-1.554
		c-1.623-0.42-2.436-1.176-2.436-2.268c0-0.644,0.351-1.245,1.051-1.805c1.063-0.84,1.986-1.651,2.771-2.436h-10.035
		c-1.008,0-1.512-0.504-1.512-1.512c0-0.979,0.504-1.47,1.512-1.47h12.722c0.56-0.84,1.063-1.735,1.512-2.687
		c0.279-0.532,0.728-0.812,1.343-0.84c1.064,0.028,1.623,0.462,1.68,1.301c0,0.28-0.098,0.645-0.293,1.092
		c-0.197,0.364-0.393,0.742-0.588,1.134H213.689z M197.986,60.485c0.251-0.195,0.488-0.405,0.713-0.63
		c1.483-1.203,2.897-3.079,4.24-5.626h-9.236c-0.084,0.112-0.168,0.225-0.252,0.336c-0.896,0.979-2.002,2.001-3.317,3.064
		c-0.224,0.141-0.336,0.294-0.336,0.462c0,0.225,0.196,0.378,0.588,0.462C191.953,58.917,194.486,59.561,197.986,60.485z"/>
	<path fill="#ECE0EE" d="M234.809,35.628c1.008,0,1.512,0.504,1.512,1.512s-0.504,1.512-1.512,1.512h-13.227
		c-1.035,0-1.553-0.504-1.553-1.512s0.518-1.512,1.553-1.512H234.809z M224.438,53.431h7.726c1.875,0,2.813,0.882,2.813,2.646v8.104
		c0,1.875-0.938,2.813-2.813,2.813h-7.726c-1.904,0-2.855-0.938-2.855-2.813v-8.104C221.582,54.313,222.533,53.431,224.438,53.431z
		 M233.506,41.632c0.868,0,1.303,0.462,1.303,1.386c0,1.008-0.435,1.512-1.303,1.512h-10.412c-0.924,0-1.386-0.504-1.386-1.512
		c0-0.924,0.462-1.386,1.386-1.386H233.506z M233.506,47.721c0.868,0,1.303,0.434,1.303,1.301c0,1.008-0.435,1.512-1.303,1.512
		h-10.412c-0.924,0-1.386-0.504-1.386-1.512c0-0.867,0.462-1.301,1.386-1.301H233.506z M233.129,30.086
		c0.895,0,1.344,0.448,1.344,1.344c0,0.979-0.449,1.469-1.344,1.469h-9.867c-0.924,0-1.386-0.489-1.386-1.469
		c0-0.896,0.462-1.344,1.386-1.344H233.129z M230.777,64.18c0.812,0,1.218-0.448,1.218-1.344v-5.375
		c0-0.812-0.406-1.217-1.218-1.217h-5.039c-0.756,0-1.133,0.405-1.133,1.217v5.375c0,0.896,0.377,1.344,1.133,1.344H230.777z
		 M256.012,29.372c1.008,0,1.512,0.561,1.512,1.68c0,0.84-0.616,1.343-1.848,1.511c-2.184,0.616-5.123,1.148-8.817,1.596
		c-0.028,0-0.056,0-0.084,0v10.497l10.581-0.84c1.008,0,1.512,0.504,1.512,1.512s-0.504,1.512-1.512,1.512l-10.581,0.882v14.275
		c0,0.728,0.252,1.231,0.756,1.512c0.615,0.336,1.987,0.504,4.114,0.504c1.875,0,2.996-0.225,3.359-0.672
		c0.447-0.477,0.672-1.078,0.672-1.806v-4.241c0.027-1.063,0.531-1.623,1.512-1.679c0.951,0.056,1.455,0.728,1.512,2.015
		c0,3.863-0.183,6.131-0.547,6.803c-0.195,0.84-0.741,1.483-1.637,1.931c-0.784,0.42-2.408,0.63-4.871,0.63
		c-3.331,0-5.5-0.336-6.508-1.008c-0.951-0.644-1.428-1.805-1.428-3.484V47.931l-6.004,0.462c-1.035,0-1.553-0.519-1.553-1.554
		c0-1.008,0.518-1.512,1.553-1.512l6.004-0.42V34.536c-2.436,0.252-4.227,0.378-5.374,0.378c-1.231,0-1.847-0.546-1.847-1.638
		c0-0.896,0.503-1.343,1.511-1.343c3.163-0.057,6.073-0.267,8.733-0.63C250.063,30.912,253.156,30.268,256.012,29.372z"/>
</g>
</svg>
