<?xml version="1.0" encoding="utf-8"?>
<!-- Generator: Adobe Illustrator 16.0.0, SVG Export Plug-In . SVG Version: 6.00 Build 0)  -->
<!DOCTYPE svg PUBLIC "-//W3C//DTD SVG 1.1//EN" "http://www.w3.org/Graphics/SVG/1.1/DTD/svg11.dtd">
<svg version="1.1" id="Layer_1" xmlns="http://www.w3.org/2000/svg" xmlns:xlink="http://www.w3.org/1999/xlink" x="0px" y="0px"
	 width="200px" height="200px" viewBox="0 0 200 200" enable-background="new 0 0 200 200" xml:space="preserve">
<title></title>
<path fill="#8169AC" d="M100,0C44.772,0,0,44.772,0,100c0,55.228,44.772,100,100,100c55.228,0,100-44.772,100-100
	c0.046-55.183-44.653-99.954-99.835-100C100.109,0,100.055,0,100,0z M100,176.471c-42.233,0-76.471-34.237-76.471-76.471
	c0-42.233,34.238-76.471,76.471-76.471c42.233,0,76.471,34.238,76.471,76.471c0.085,42.148-34.016,76.386-76.165,76.471
	C100.203,176.471,100.102,176.471,100,176.471z"/>
<path fill="#8169AC" d="M133.529,69.412c-4.336-4.548-11.537-4.721-16.084-0.387c-0.132,0.126-0.26,0.255-0.387,0.387L100,86.471
	L83.529,70c-4.594-4.502-11.968-4.428-16.471,0.166c-4.438,4.529-4.438,11.776,0,16.305l16.471,16.471l-16.471,16.471
	c-4.502,4.593-4.428,11.968,0.167,16.471c4.528,4.437,11.775,4.437,16.303,0L100,119.412l16.471,16.471
	c4.593,4.502,11.968,4.428,16.471-0.166c4.437-4.53,4.437-11.776,0-16.305l-16.471-16.471l16.471-16.471
	C137.513,81.79,137.767,74.396,133.529,69.412z"/>
</svg>
