<?xml version="1.0" encoding="utf-8"?>
<!-- Generator: Adobe Illustrator 16.0.0, SVG Export Plug-In . SVG Version: 6.00 Build 0)  -->
<!DOCTYPE svg PUBLIC "-//W3C//DTD SVG 1.1//EN" "http://www.w3.org/Graphics/SVG/1.1/DTD/svg11.dtd">
<svg version="1.1" id="圖層_1" xmlns="http://www.w3.org/2000/svg" xmlns:xlink="http://www.w3.org/1999/xlink" x="0px" y="0px"
	 width="651.055px" height="215.301px" viewBox="0 0 651.055 215.301" enable-background="new 0 0 651.055 215.301"
	 xml:space="preserve">
<g>
	<path fill="#826AAD" d="M73.948,19.201H24.232c-0.509,0-1.009-0.008-1.496-0.022c-0.524-5.46-2.075-9.821-4.206-13.017
		C17.209,4.185,15.667,2.654,14,1.609C12.337,0.563,10.541,0,8.763,0c-1.765,0-3.5,0.565-4.969,1.675
		c-1.209,0.9-2.16,1.98-2.806,3.177C0.338,6.049,0,7.37,0,8.709c-0.003,1.7,0.543,3.418,1.593,4.992
		c1.573,2.361,4.246,4.419,7.999,5.889c2.867,1.126,6.37,1.917,10.542,2.229c0.017,0.475,0.03,0.969,0.03,1.467
		c0,12.515,0,46.409,0,46.409c0,0.761,0.616,1.375,1.383,1.375c0.761,0,1.379-0.614,1.379-1.375c0,0,0-8.479,0-18.512
		c0-10.036,0-21.64,0-27.897c0-0.449-0.008-0.894-0.02-1.336c0.436,0.013,0.878,0.016,1.326,0.016h49.717
		c0.764,0,1.383-0.614,1.383-1.383C75.332,19.822,74.712,19.201,73.948,19.201z M7.629,15.571c-1.729-1.042-2.954-2.221-3.734-3.395
		c-0.783-1.187-1.129-2.354-1.133-3.467c0.003-0.879,0.219-1.727,0.655-2.543c0.44-0.81,1.109-1.59,2.035-2.276
		c1.016-0.764,2.125-1.125,3.311-1.125c1.192,0,2.479,0.371,3.768,1.186c1.932,1.21,3.848,3.402,5.272,6.627
		c1.019,2.3,1.781,5.12,2.138,8.453C14.475,18.576,10.404,17.249,7.629,15.571z"/>
	<path fill="#826AAD" d="M54.403,27.699H30.106c-0.364,0-0.719,0.149-0.976,0.403c-0.261,0.26-0.406,0.614-0.406,0.976v24.304
		c0,0.761,0.617,1.382,1.381,1.382c0.761,0,1.383-0.621,1.383-1.382V30.467h22.914c0.764,0,1.384-0.628,1.384-1.389
		C55.786,28.313,55.167,27.699,54.403,27.699z"/>
	<path fill="#826AAD" d="M71.822,192.382c0,0-8.475,0-18.512,0c-10.036,0-21.64,0-27.894,0c-0.453,0-0.897,0.004-1.338,0.02
		c0.011-0.433,0.019-0.878,0.019-1.325l0,0l0,0v-49.72c0-0.763-0.621-1.382-1.385-1.382c-0.762,0-1.383,0.619-1.383,1.382v49.72l0,0
		l0,0c0,0.51-0.007,1.005-0.018,1.494c-5.466,0.521-9.825,2.077-13.02,4.207c-1.976,1.314-3.507,2.862-4.557,4.524
		c-1.045,1.665-1.605,3.459-1.605,5.239c-0.006,1.766,0.563,3.5,1.676,4.968c0.902,1.212,1.979,2.16,3.177,2.805
		c1.2,0.646,2.517,0.993,3.855,0.985c1.701,0.008,3.42-0.538,4.99-1.587c2.367-1.573,4.424-4.25,5.896-7.999
		c1.125-2.862,1.915-6.373,2.223-10.542c0.482-0.016,0.974-0.025,1.471-0.025c12.512,0,46.406,0,46.406,0
		c0.764,0,1.379-0.621,1.379-1.39C73.201,192.997,72.586,192.382,71.822,192.382z M17.702,207.67
		c-1.048,1.733-2.225,2.958-3.402,3.744c-1.18,0.783-2.351,1.128-3.463,1.128c-0.875,0-1.724-0.218-2.542-0.653
		c-0.813-0.446-1.587-1.111-2.282-2.034c-0.762-1.018-1.117-2.128-1.12-3.312c0-1.191,0.376-2.479,1.186-3.767
		c1.209-1.93,3.404-3.848,6.632-5.271c2.299-1.019,5.117-1.786,8.448-2.136C20.7,200.826,19.382,204.907,17.702,207.67z"/>
	<path fill="#826AAD" d="M32.593,160.905c0-0.764-0.621-1.382-1.384-1.382c-0.763,0-1.382,0.618-1.382,1.382v24.296
		c0,0.364,0.148,0.717,0.405,0.98c0.257,0.257,0.615,0.403,0.977,0.403h24.299c0.763,0,1.382-0.618,1.382-1.384
		c0-0.763-0.619-1.382-1.382-1.382H32.593V160.905z"/>
	<path fill="#826AAD" d="M650.072,4.852c-0.648-1.196-1.602-2.276-2.805-3.177C645.79,0.565,644.059,0,642.294,0
		c-1.775,0-3.572,0.563-5.235,1.61c-2.502,1.567-4.726,4.224-6.332,7.854c-1.191,2.7-2.046,5.941-2.408,9.714
		c-0.485,0.013-0.984,0.022-1.491,0.022h-49.72c-0.766,0-1.385,0.621-1.385,1.381c0,0.769,0.619,1.383,1.385,1.383h49.72
		c0.449,0,0.89-0.009,1.322-0.016c-0.01,0.442-0.019,0.888-0.019,1.336c0,12.515,0,46.409,0,46.409c0,0.761,0.619,1.375,1.384,1.375
		c0.763,0,1.382-0.614,1.382-1.375c0,0,0-8.479,0-18.512c0-10.036,0-21.64,0-27.897c0-0.498,0.01-0.993,0.025-1.467
		c5.997-0.452,10.613-1.877,13.937-3.88c2.015-1.221,3.561-2.66,4.606-4.236c1.044-1.575,1.59-3.292,1.59-4.992
		C651.057,7.37,650.718,6.049,650.072,4.852z M647.162,12.176c-1.171,1.759-3.348,3.528-6.705,4.847
		c-2.47,0.968-5.575,1.69-9.339,2.01c0.526-4.885,1.931-8.67,3.712-11.335c1.127-1.701,2.408-2.939,3.696-3.747
		c1.289-0.816,2.575-1.186,3.769-1.186c1.186,0,2.294,0.361,3.31,1.125c0.923,0.686,1.595,1.467,2.034,2.276
		c0.44,0.817,0.653,1.665,0.653,2.543C648.292,9.821,647.948,10.988,647.162,12.176z"/>
	<path fill="#826AAD" d="M621.931,28.102c-0.259-0.254-0.614-0.403-0.979-0.403h-24.297c-0.766,0-1.386,0.614-1.386,1.379
		c0,0.761,0.62,1.389,1.386,1.389h22.913v22.915c0,0.761,0.62,1.382,1.384,1.382c0.763,0,1.384-0.621,1.384-1.382l0,0V29.078
		C622.336,28.716,622.187,28.362,621.931,28.102z"/>
	<path fill="#826AAD" d="M639.464,194.979c-2.698-1.197-5.945-2.047-9.718-2.408c-0.011-0.488-0.019-0.984-0.019-1.492l0,0v-49.721
		c0-0.763-0.616-1.382-1.384-1.382c-0.765,0-1.384,0.619-1.384,1.382l0,0v49.721l0,0l0,0c0,0.446,0.012,0.891,0.021,1.324
		c-0.439-0.01-0.885-0.021-1.341-0.021c-6.251,0-17.853,0-27.896,0c-5.017,0-9.641,0-13.018,0c-1.685,0-3.058,0-4.011,0
		c-0.946,0-1.478,0-1.478,0c-0.764,0-1.384,0.616-1.384,1.377c0,0.768,0.62,1.389,1.384,1.389c0,0,0.531,0,1.478,0
		c6.659,0,33.978,0,44.924,0c0.505,0,0.992,0.01,1.476,0.022c0.443,5.997,1.873,10.614,3.877,13.933
		c1.217,2.025,2.659,3.561,4.23,4.61c1.576,1.049,3.297,1.595,4.993,1.588c1.341,0.007,2.658-0.339,3.856-0.987
		c1.198-0.643,2.277-1.593,3.178-2.804c1.112-1.469,1.681-3.203,1.674-4.967c0-1.773-0.562-3.575-1.603-5.241
		C645.748,198.802,643.094,196.584,639.464,194.979z M645.042,209.855c-0.692,0.923-1.469,1.588-2.282,2.034
		c-0.816,0.436-1.666,0.653-2.544,0.653c-1.108,0-2.278-0.345-3.46-1.128c-1.763-1.176-3.535-3.352-4.854-6.709
		c-0.969-2.469-1.688-5.574-2.002-9.336c4.88,0.519,8.666,1.927,11.333,3.71c1.695,1.128,2.94,2.409,3.746,3.697
		c0.81,1.288,1.186,2.575,1.186,3.767C646.163,207.726,645.805,208.837,645.042,209.855z"/>
	<path fill="#826AAD" d="M594.17,185.201c0,0.766,0.613,1.384,1.383,1.384h24.295c0.363,0,0.722-0.146,0.978-0.403
		c0.26-0.264,0.406-0.616,0.406-0.98v-24.296c0-0.764-0.618-1.382-1.384-1.382c-0.761,0-1.38,0.618-1.38,1.382v22.914h-22.915
		C594.784,183.819,594.17,184.438,594.17,185.201z"/>
</g>
<g>
	<path fill="#816AAC" d="M128.24,115.209c1.497-1.358,3.448-2.821,5.852-4.389c1.358-0.661,2.056-1.01,2.091-1.045l1.254-0.836
		c0.522-0.244,0.87-0.453,1.045-0.627c0.94-0.662,1.428-1.359,1.463-2.091v-6.271c-0.244-0.104-0.453-0.174-0.627-0.209
		c-1.08,0.522-1.916,0.871-2.508,1.046c-0.418,0.104-0.906,0.244-1.464,0.418c-0.522,0.244-0.94,0.384-1.254,0.418
		c-0.836,0.244-1.394,0.453-1.672,0.627c-0.418-0.418-0.697-0.627-0.836-0.627c0-0.243-0.07-0.522-0.209-0.836
		c1.672-1.255,3.622-2.091,5.853-2.509c0.104,0,0.243-0.069,0.418-0.209c1.358-0.418,2.194-0.766,2.508-1.045v-2.09v-0.418
		c0-0.94-0.07-1.638-0.209-2.091c-0.244-3.03-0.175-5.05,0.209-6.061c0.243-0.522,0.383-0.802,0.418-0.836
		c0.418-0.104,0.766-0.244,1.045-0.419c3.345,2.195,5.017,5.609,5.017,10.242c-0.836,1.498-1.742,2.474-2.717,2.926
		c-0.418,0.104-0.836,0.175-1.255,0.209c-0.522,0-0.802,0.14-0.836,0.418v0.836c0,0.418,0,0.767,0,1.046v5.434
		c0.104,0.104,0.174,0.175,0.209,0.209c1.255-0.94,2.509-1.637,3.763-2.09c0.243,0.244,0.452,0.453,0.627,0.627l0.418,0.836
		c-1.254,0.522-2.438,1.289-3.553,2.3c-0.104,0.104-0.244,0.174-0.419,0.209l-1.254,0.627c-0.104,0.104-0.175,0.802-0.209,2.09
		c0.104,0.836,0.174,1.672,0.209,2.508c-0.104,0.94-0.175,2.544-0.209,4.808c0,0.418-0.07,0.767-0.209,1.045
		c0,2.926-0.627,4.599-1.881,5.017l-2.508-1.254c-3.345-1.359-5.644-2.752-6.897-4.181
		C127.996,117.057,127.438,115.802,128.24,115.209z M130.539,116.464c1.079,1.358,2.542,2.543,4.389,3.553
		c1.08,0.662,2.404,1.358,3.972,2.09c0.522-5.016,0.801-8.917,0.836-11.704l-0.209-0.209c-0.836,0.522-1.672,1.011-2.508,1.463
		c-3.031,1.916-5.261,3.448-6.688,4.599C130.434,116.36,130.503,116.43,130.539,116.464z M143.498,95.981
		c0.418-0.418,0.627-0.696,0.627-0.836c0.243-0.243,0.452-0.592,0.627-1.045c-0.836-2.195-1.672-3.937-2.509-5.226
		c-0.104,0.836-0.175,2.09-0.209,3.762v3.763c0.104,0,0.244,0.07,0.418,0.209C142.556,96.503,142.905,96.294,143.498,95.981z
		 M146.214,101.833c0.418-0.104,0.766-0.313,1.045-0.627c1.672-0.836,2.996-1.394,3.972-1.673l3.762-1.672
		c-0.104-0.94-0.313-1.985-0.627-3.135c-0.522-4.181-0.94-7.245-1.254-9.196c0.418-0.419,0.766-0.628,1.045-0.628
		c0.836,0.523,1.532,0.941,2.09,1.255c0.836,0.836,1.463,1.394,1.881,1.672c0.419-0.661,0.976-1.01,1.673-1.045
		c1.254,1.498,2.508,2.474,3.762,2.926c0.836,0.418,1.184,0.558,1.045,0.418c1.255,0.244,2.021,0.802,2.3,1.672
		c-0.104,0.104-0.313,0.244-0.627,0.418c-0.244,0.104-0.523,0.175-0.837,0.209c-0.836-0.243-1.951-0.661-3.344-1.254
		c-0.104,0.104-0.175,0.244-0.209,0.418c0.836,1.08,1.254,2.544,1.254,4.39c-0.662,0.662-1.707,1.289-3.135,1.881
		c-0.244,0.244-0.662,0.522-1.254,0.836c-0.837,0.522-1.324,0.871-1.464,1.045c0.244,0.837,0.453,1.534,0.627,2.091
		c0.244,1.08,0.453,2.125,0.628,3.135c0.418,1.254,0.836,2.299,1.254,3.136c0.243-0.419,0.661-1.185,1.254-2.3
		c0.836-2.508,1.811-4.04,2.926-4.598c1.254,0.522,2.229,1.638,2.927,3.344c0.243,0.244,0.522,0.662,0.836,1.254
		c0.522,1.08,1.01,1.916,1.463,2.509c0.836,1.672,1.393,2.926,1.672,3.762c0.522,1.08,0.801,2.543,0.836,4.39
		c0,0.244-0.07,0.453-0.209,0.627c-0.244,0.836-0.662,2.229-1.254,4.18c0,0.104-0.07,0.244-0.209,0.418
		c0,0.94-0.07,1.568-0.209,1.882l-0.418,0.418l-1.672,0.418c-1.358-0.662-2.822-1.916-4.39-3.763
		c-1.358-1.915-2.334-3.448-2.926-4.598c-0.418-0.941-0.906-1.986-1.463-3.136c-3.589,3.345-6.584,5.574-8.988,6.688
		c-0.244,0-0.453,0.07-0.627,0.209c-1.254,0.244-2.369,0.662-3.344,1.254c-0.418-0.418-0.697-0.627-0.836-0.627
		c0-0.243-0.07-0.522-0.209-0.836c0.104,0,0.243-0.069,0.418-0.209c0.836-0.418,1.95-1.045,3.344-1.881
		c0.836-0.418,1.951-1.045,3.345-1.881c2.612-1.498,4.632-3.24,6.061-5.226c0-0.243-0.139-0.661-0.418-1.254
		c0.104,0.244-0.035-0.243-0.418-1.464c-0.104-0.836-0.313-1.741-0.627-2.717c-0.418-1.776-0.976-3.378-1.672-4.808
		c-0.522,0.244-1.149,0.523-1.881,0.837c-1.358,0.522-2.334,0.94-2.927,1.254c-0.418,0.104-1.394,0.453-2.926,1.045
		c-0.522-0.522-0.802-0.801-0.836-0.836C145.587,102.042,145.517,101.833,146.214,101.833z M158.337,96.817
		c1.254-0.522,2.229-1.288,2.926-2.299c-0.836-1.358-1.742-2.474-2.717-3.345c-0.941-0.836-1.917-1.741-2.927-2.717
		c-0.104,0.104-0.175,0.244-0.209,0.418c0.243,1.254,0.452,2.717,0.627,4.39c0.243,1.672,0.661,2.996,1.254,3.971
		C157.536,96.992,157.884,96.852,158.337,96.817z M167.116,121.48c0.243,0.244,0.452,0.453,0.627,0.627
		c1.254-2.751,1.881-5.189,1.881-7.315c-1.08-3.448-2.821-6.932-5.226-10.45c-1.916,2.508-3.17,4.878-3.762,7.106
		c1.497,3.17,2.96,5.748,4.389,7.733C165.687,120.017,166.384,120.784,167.116,121.48z"/>
	<path fill="#816AAC" d="M182.792,116.464c0.243-0.244,0.452-0.383,0.627-0.418c0.661-0.418,1.567-0.906,2.717-1.464
		c0.836-0.104,1.741-0.452,2.717-1.045c4.006-2.508,7.49-5.295,10.451-8.36c1.915-2.333,3.1-4.005,3.553-5.017
		c0-0.418-0.07-0.836-0.209-1.254c0-0.661,0.069-1.079,0.209-1.254c0.243-0.243,0.383-0.383,0.418-0.418
		c1.08-0.522,1.568-0.731,1.464-0.627c0.418-0.418,0.627-0.905,0.627-1.463c0.243-0.418,0.452-0.905,0.627-1.463
		c0.243-0.522,0.452-1.15,0.627-1.882c-0.244-0.104-0.593-0.174-1.045-0.209c-0.94,0.244-2.404,0.522-4.39,0.836
		c-0.418,0.104-1.115,0.175-2.09,0.209c-0.662,0.104-1.358,0.175-2.09,0.21c-1.499,0.243-3.102,0.453-4.808,0.627
		c-2.194,0.522-3.798,0.871-4.808,1.045c-0.418-0.418-0.697-0.627-0.836-0.627c0-0.243-0.07-0.522-0.209-0.836
		c1.776-0.941,4.006-1.568,6.688-1.882c2.752-0.243,4.703-0.383,5.853-0.418c2.194-0.243,4.005-0.522,5.435-0.836
		c1.358-0.243,3.309-0.661,5.852-1.254c2.091-0.104,4.11-0.313,6.062-0.627c1.079-0.243,1.915-0.383,2.508-0.418
		c1.359-0.243,2.334-0.383,2.927-0.418c0.243,0.244,0.452,0.453,0.627,0.627l0.418,0.836c-0.522,0.244-1.149,0.453-1.881,0.627
		c-0.836,0.244-2.37,0.522-4.599,0.836c-1.672,0.244-3.135,0.453-4.389,0.627c-0.419,0-0.906,0-1.464,0
		c-0.836,0-1.254,0.07-1.254,0.209c-0.418,0.104-0.627,0.593-0.627,1.463c-0.244,1.081-0.384,1.708-0.418,1.882
		c-0.522,0.94-1.22,2.543-2.09,4.807c-0.244,0.418-0.593,0.836-1.045,1.255c-0.104,0.104-0.175,0.313-0.209,0.627
		c-0.104,0.244-0.175,1.149-0.209,2.717c0.104,0.94,0.174,1.847,0.209,2.717c0,4.181,0,8.291,0,12.332
		c0.104,0.244,0.174,0.731,0.209,1.463c0,0.522,0,1.011,0,1.463c0,1.358,0.069,2.335,0.209,2.927c-0.244,0-0.593,0.209-1.046,0.627
		c-0.662-0.522-1.011-1.776-1.045-3.763c0-0.418,0-0.905,0-1.463c-0.104-0.836-0.175-2.159-0.209-3.971c0-1.255,0-2.578,0-3.972
		c0-3.588-0.07-6.166-0.209-7.733c-1.358,1.672-2.821,3.344-4.389,5.017c-2.195,1.916-3.938,3.31-5.226,4.18l-2.508,1.254
		c-0.418,0.244-1.533,0.732-3.345,1.464c-2.194,1.08-3.31,1.638-3.344,1.672c-0.244-0.104-0.522-0.313-0.836-0.627
		C182.583,116.882,182.512,116.604,182.792,116.464z M222.712,113.956c0,0.104,0.069,0.244,0.209,0.418c0,0.244,0,0.453,0,0.627
		c-0.104,0.104-0.313,0.244-0.627,0.418c-0.244,0.105-0.522,0.175-0.836,0.21c-3.171-0.941-5.888-2.195-8.151-3.763
		c-3.171-2.194-4.773-4.563-4.808-7.106c0.243,0,0.452-0.069,0.627-0.209c0.104-0.104,0.383-0.174,0.836-0.209
		c2.509,3.763,5.155,6.341,7.942,7.733l2.091,0.836c0.418,0.104,0.905,0.313,1.463,0.627
		C222.12,113.538,222.538,113.677,222.712,113.956z"/>
	<path fill="#816AAC" d="M236.089,121.48c1.497-1.079,4.005-2.055,7.524-2.926c1.776-0.661,2.821-1.149,3.135-1.463
		c0.243-0.243,0.522-0.592,0.836-1.045c0.243-0.522,0.383-1.429,0.418-2.718c0-0.836,0-1.741,0-2.717l-0.209-0.209
		c-2.09,0.522-4.389,1.289-6.897,2.299c-0.418-0.418-0.697-0.627-0.836-0.627c0-0.243-0.07-0.522-0.209-0.836
		c1.916-1.497,3.937-2.682,6.062-3.554c0.243,0,0.522-0.139,0.836-0.418c0.418,0,0.766-0.139,1.045-0.418
		c0.243-0.243,0.383-0.383,0.418-0.418c0.104-0.243,0.174-0.94,0.209-2.09c-0.104-0.522-0.175-1.219-0.209-2.09l-0.209-0.209
		c-0.244,0-0.453,0.07-0.627,0.209c-1.254,0.104-2.856,0.593-4.807,1.463c-0.663-0.522-1.012-1.079-1.046-1.672
		c1.498-1.08,2.892-2.752,4.181-5.017c0.661-1.254,1.358-3.135,2.09-5.644c-0.244-0.104-0.522-0.174-0.836-0.209
		c-0.662,0.244-1.429,0.453-2.299,0.627c-0.522,0.104-1.707,0.453-3.554,1.046c-0.418-0.419-0.697-0.628-0.836-0.628
		c0-0.243-0.07-0.522-0.209-0.836c1.079-0.522,2.613-1.079,4.599-1.672c0.94-0.104,1.915-0.313,2.926-0.627l5.017-1.672
		c2.194-0.522,3.936-0.87,5.226-1.045c0.243,0.244,0.452,0.453,0.627,0.627l0.418,0.836c-0.662,0.418-1.429,0.697-2.3,0.836
		c-0.662,0.244-1.847,0.522-3.553,0.836l-3.345,1.254c0,0.104,0.07,0.244,0.209,0.418c0,0.244,0,0.453,0,0.627
		c-0.104,0.662-0.313,1.359-0.627,2.091c-0.662,2.508-1.498,4.528-2.508,6.061c0.104,0,0.243,0.07,0.418,0.209
		c0.243,0,0.452,0,0.627,0c0.418-0.104,0.836-0.313,1.254-0.627l3.345-1.254c-0.418-1.079-0.697-2.194-0.836-3.344
		c0.418-0.418,0.836-0.627,1.254-0.627c2.194,0.94,3.309,2.403,3.344,4.389l-0.836,0.836c1.079,0.662,1.637,1.777,1.672,3.345
		c-0.418,0.244-0.906,0.802-1.463,1.672c0,0.418,0.069,0.767,0.209,1.045v1.254c-1.358,1.08-2.403,1.777-3.135,2.091
		c-1.358,0-2.265,0.279-2.718,0.836c-0.104,0.104-0.174,0.802-0.209,2.09c0.104,0.836,0.175,1.603,0.209,2.299
		c-0.104,0.418-0.174,1.185-0.209,2.3c0.104,0.104,0.175,0.175,0.209,0.209c3.345-1.359,5.922-2.195,7.733-2.509
		c0.244,0.244,0.453,0.453,0.628,0.627l0.418,0.837c-1.359,0.522-2.475,0.94-3.345,1.254c-1.358,0.418-2.821,0.836-4.389,1.254
		c-1.499,0.418-2.893,0.906-4.181,1.463c-0.522,0.244-0.94,0.384-1.254,0.418c-3.449,1.498-6.236,2.474-8.36,2.926
		c-0.244-0.104-0.522-0.313-0.836-0.627C235.88,121.898,235.81,121.62,236.089,121.48z M250.302,105.386
		c0.418-0.418,1.045-0.905,1.881-1.463c-0.244-0.243-0.593-0.522-1.045-0.836c-0.244-0.243-0.522-0.452-0.836-0.627
		c-0.104,0.418-0.175,1.324-0.209,2.717C250.198,105.282,250.267,105.352,250.302,105.386z M252.183,101.207
		c0.836,0.522,1.532,1.011,2.09,1.463c0.104-0.243,0.313-0.452,0.627-0.627c-0.662-0.661-1.289-1.149-1.881-1.463
		c-0.418,0-0.767,0.139-1.045,0.418C252.079,101.102,252.148,101.172,252.183,101.207z M262.215,93.473
		c0.243,0,0.452-0.069,0.627-0.209c0.104-0.104,0.383-0.175,0.836-0.209c0.243,0.662,0.383,1.776,0.418,3.344v3.762
		c0,4.285,0,8.535,0,12.75c-0.104,0.104-0.313,0.175-0.627,0.209c-0.104,0.104-0.384,0.175-0.836,0.209
		c-0.244-1.254-0.522-3.135-0.836-5.644c0.104-1.915,0.174-3.936,0.209-6.061c0.104-0.836,0.174-2.021,0.209-3.554
		c0-1.079,0-2.264,0-3.553c0-0.104,0-0.313,0-0.627V93.473z M264.514,121.062c0.418-0.418,0.837-0.627,1.255-0.627
		c0.418,0.244,0.836,0.453,1.254,0.627l1.672,0.836c0.243,0.104,0.94,0.384,2.09,0.836c0.418-0.94,0.627-2.612,0.627-5.016
		c0-1.079-0.14-2.892-0.418-5.435c0-1.358,0.069-2.403,0.209-3.135c0.104-1.916,0.174-4.912,0.209-8.988v-8.778
		c0-1.358,0-2.821,0-4.389v-0.836v-0.836c0.243-0.244,0.383-0.384,0.418-0.419c0.244,0,0.453-0.069,0.627-0.209
		c0.244,0.244,0.453,0.453,0.628,0.628l0.418,0.836c-0.244,1.672-0.384,4.11-0.418,7.315c0.104,2.612,0.174,5.19,0.209,7.733
		c0.243,2.926,0.243,5.852,0,8.778v9.614c0,1.08-0.07,2.125-0.209,3.135c-0.104,1.081-0.662,1.986-1.673,2.718
		c-0.104,0-0.244-0.069-0.418-0.209c-0.522-0.243-1.498-0.661-2.926-1.254c-1.498-0.662-2.403-1.15-2.717-1.464
		c-0.523-0.522-0.802-0.801-0.837-0.836C264.096,121.271,264.096,121.062,264.514,121.062z"/>
	<path fill="#816AAC" d="M289.805,110.821c0.418-0.418,1.323-1.045,2.717-1.881c0.522-0.244,1.358-0.802,2.508-1.673
		c2.613-2.508,4.912-6.339,6.897-11.495c-0.244-0.104-0.522-0.174-0.836-0.209c-0.94,0.418-2.543,0.906-4.807,1.463
		c-0.837,0.104-2.091,0.453-3.763,1.045c-0.418-0.418-0.697-0.627-0.836-0.627c0-0.243-0.07-0.522-0.209-0.836
		c1.358-0.836,3.309-1.532,5.853-2.09c0.104,0,0.243-0.069,0.418-0.209c0.661,0,1.358-0.069,2.09-0.209
		c1.079-0.243,1.706-0.452,1.881-0.627c0.243-0.104,0.383-0.662,0.418-1.673c0.104-0.104,0.174-0.243,0.209-0.418
		c0.104-0.522-0.035-2.403-0.418-5.643c0-0.837,0.139-1.812,0.418-2.927c0.243-0.522,0.383-0.801,0.418-0.836
		c0.418-0.104,0.767-0.243,1.046-0.418c3.587,2.334,5.398,5.47,5.434,9.405c-0.662,1.358-1.567,2.404-2.717,3.136
		c-0.104,0.104-0.384,0.175-0.836,0.209c-0.94,0.244-1.498,0.662-1.672,1.254c-0.104,0.418-0.175,1.045-0.209,1.881
		c0.104,0.522,0.174,1.22,0.209,2.09c0.94,1.255,1.776,2.091,2.508,2.509c0.104,0.104,0.661,0.313,1.672,0.627
		c0.661,0.244,1.149,0.522,1.463,0.836c0.104,0.104,0.313,0.453,0.627,1.045c-0.104,0.104-0.313,0.244-0.627,0.418
		c-0.244,0.104-0.522,0.175-0.836,0.209c-1.916-0.661-3.519-1.497-4.807-2.508c-0.244,0.94-0.384,2.403-0.418,4.389
		c0,1.917-0.07,3.38-0.21,4.39c0.104,0.104,0.175,0.175,0.21,0.209c0.836-0.418,2.368-0.905,4.598-1.463
		c1.915-0.661,3.17-1.567,3.763-2.718v-3.344v-0.836c-0.244-0.418-0.384-0.836-0.418-1.254c0.104-0.243,0.174-0.661,0.209-1.254
		c0.104-0.104,0.174-0.453,0.209-1.046c-0.104-0.522-0.175-1.219-0.209-2.09c0-0.104,0.069-0.174,0.209-0.209
		c-0.244-0.418-0.384-0.836-0.418-1.254c0.104-0.418,0.174-1.114,0.209-2.09c0-1.254-0.07-2.229-0.209-2.927
		c0-0.661,0.139-1.567,0.418-2.717c0.243-0.522,0.383-0.801,0.418-0.836c0.418,0,0.766,0,1.045,0
		c0.104,0.244,0.174,0.522,0.209,0.836c0.104,0.418,0.174,0.906,0.209,1.463c0.104,0.522,0.174,1.011,0.209,1.463
		c1.915-1.776,4.493-2.891,7.733-3.344c2.09,0.662,3.135,2.334,3.135,5.017c-0.244,2.194-0.384,3.797-0.418,4.807
		c0.104,1.08,0.174,2.822,0.209,5.226v3.344c0,0.94-0.07,1.847-0.209,2.718c-0.244,0.94-0.731,1.498-1.463,1.672
		c-0.244-0.522-0.384-1.428-0.418-2.717v-2.509c0.243-1.497,0.383-3.936,0.418-7.315c-0.104-1.672-0.175-4.04-0.209-7.106
		c-0.522-0.522-1.011-0.87-1.463-1.045c-3.031,0.418-5.33,1.951-6.897,4.599c0.104,0,0.313,0.07,0.627,0.209
		c0.661-0.418,1.288-0.627,1.881-0.627c0.661-0.104,1.358-0.313,2.091-0.627c0.836,0.522,1.254,1.289,1.254,2.299
		c-1.673,1.672-2.857,2.926-3.554,3.762c0.243,0,0.522,0.07,0.836,0.209c0.104,0,0.243-0.069,0.418-0.209
		c0.522-0.243,0.941-0.383,1.255-0.418c0.836,0.836,1.184,1.115,1.045,0.836c0.104,0.104,0.174,0.523,0.209,1.255
		c-0.418,0.522-1.185,1.358-2.3,2.508c-1.08,1.08-1.847,1.916-2.299,2.508c0.243,0,0.522,0.07,0.836,0.209
		c0.836-0.418,2.229-0.766,4.181-1.045c0.243,0.244,0.452,0.453,0.627,0.627l0.418,0.836c-0.836,0.662-1.672,1.08-2.508,1.255
		c-1.359,0.522-2.822,1.011-4.39,1.463c-0.244,0.104-0.593,0.244-1.045,0.418c-0.244,0.244-0.522,0.384-0.836,0.418
		c-0.244,0.244-0.522,0.384-0.836,0.418c-0.104-0.104-0.244-0.174-0.418-0.209c-1.359,0.418-3.449,1.185-6.271,2.299
		c-0.836,0.418-1.742,0.767-2.718,1.045c-0.522,0-0.94,0.07-1.254,0.209c-1.358,0-2.403,0.418-3.135,1.255
		c-0.244,0.243-0.384,1.011-0.418,2.299c0,0.244,0,0.453,0,0.627l-0.627,2.508c-1.254,3.763-2.788,5.783-4.599,6.062
		c0-0.104-0.07-0.313-0.209-0.627c-0.104-0.104-0.175-0.383-0.209-0.836c1.254-1.497,2.438-3.937,3.554-7.315
		c0.104-0.661,0.174-1.358,0.209-2.09c0-0.662,0.139-1.289,0.418-1.882c0.104-0.243,0.452-0.522,1.045-0.836
		c0.661-0.104,1.358-0.313,2.09-0.627c0.836-0.243,1.393-0.522,1.672-0.836c-0.244,0.244-0.175-0.243,0.209-1.463v-1.254
		c0.104-1.673,0.174-4.041,0.209-7.106l-0.209-0.209c-3.344,4.702-6.968,8.117-10.868,10.241c-0.244-0.104-0.522-0.313-0.836-0.627
		C289.596,111.239,289.526,110.96,289.805,110.821z M313.841,113.538c0.243,0,0.452,0.07,0.627,0.209
		c4.006,0.662,7.559,1.358,10.659,2.091c0-0.104,0.069-0.175,0.209-0.209c-0.662-0.941-1.08-1.568-1.254-1.882
		c-0.244-0.522-0.384-1.149-0.418-1.881c0.243,0,0.452-0.069,0.627-0.209c0.104-0.104,0.383-0.174,0.836-0.209
		c0.104,0.104,0.174,0.244,0.209,0.418c0.418,0.662,0.836,1.289,1.255,1.881c0.418,0.836,0.975,1.463,1.672,1.882
		c0.522,0.418,1.079,0.696,1.672,0.836c0.661,0.244,1.149,0.522,1.463,0.836c0.104,0.104,0.313,0.453,0.627,1.045
		c-0.244,0.104-0.593,0.244-1.045,0.418c-0.244,0.104-0.593,0.175-1.045,0.209c-0.836-0.104-1.742-0.313-2.717-0.627
		c-2.613-0.522-4.425-0.87-5.435-1.045c-0.104,0.104-0.175,0.244-0.209,0.418c0.104,0.104,0.174,0.244,0.209,0.418
		c0.661,1.254,1.288,2.508,1.881,3.762c0.836,1.255,1.254,2.509,1.254,3.763c-1.08,0.522-2.265,0.802-3.553,0.836
		c-3.031-0.418-5.818-1.114-8.36-2.09c-2.753-0.836-5.261-2.16-7.524-3.972c-1.358-0.94-2.404-1.846-3.136-2.717
		c-0.522-0.836-0.802-1.603-0.836-2.3c0.243,0,0.452-0.069,0.627-0.209c0.104-0.104,0.383-0.174,0.836-0.209
		c2.752,3.171,5.678,5.33,8.779,6.479c2.612,1.254,6.095,2.23,10.45,2.927c0-0.104,0.069-0.174,0.209-0.209l-1.254-2.509
		c-0.522-0.836-0.94-1.602-1.254-2.299c-0.104-0.104-0.175-0.313-0.209-0.627c-0.244-1.254-0.453-1.95-0.627-2.09
		c-0.104-0.104-0.662-0.174-1.673-0.209c-0.662-0.104-1.567-0.313-2.717-0.627c-0.836-0.244-1.603-0.384-2.299-0.419
		c-0.104,0-0.175,0.07-0.209,0.21c0.418,0.243,0.836,0.453,1.254,0.627c1.776,0.522,2.821,1.22,3.135,2.09
		c-0.104,0.104-0.313,0.244-0.627,0.418c-0.244,0.104-0.522,0.175-0.836,0.209c-4.181-1.358-6.619-3.101-7.315-5.226
		c0.522-0.522,1.288-0.801,2.299-0.836h0.836C312.274,113.155,313.249,113.364,313.841,113.538z M306.735,90.755
		c0.243-0.243,0.383-0.592,0.418-1.045c-0.522-1.497-1.429-3.03-2.717-4.599c-0.104,0.663-0.175,1.848-0.209,3.554v3.762
		c0.104,0.104,0.174,0.175,0.209,0.209c0.104,0,0.243-0.069,0.418-0.209l1.254-0.627C306.526,91.382,306.735,91.035,306.735,90.755z
		 M314.05,99.534c0.836-0.94,1.741-1.846,2.717-2.717c-0.244-0.104-0.453-0.174-0.627-0.209c-0.836,0.244-1.463,0.453-1.881,0.627
		c-0.244,0.522-0.384,1.22-0.418,2.09C313.946,99.429,314.015,99.5,314.05,99.534z M314.259,105.177
		c0.836-0.94,1.741-1.846,2.717-2.717c-0.244-0.104-0.453-0.174-0.627-0.209c-1.358,0.522-2.056,0.802-2.09,0.836
		c-0.244,0.244-0.384,0.94-0.418,2.09c0.104,0.104,0.174,0.175,0.209,0.209C314.05,105.282,314.12,105.212,314.259,105.177z"/>
	<path fill="#816AAC" d="M342.685,113.329c0.836-0.661,2.299-1.01,4.389-1.045c0.243-0.104,0.801-0.174,1.672-0.209
		c1.673-0.243,2.996-0.452,3.972-0.627c1.254-0.418,2.577-0.627,3.971-0.627h1.882c0.836,0,1.393-0.069,1.672-0.209
		c0.104-0.104,0.174-0.383,0.209-0.836c0.104-0.104,0.174-0.313,0.209-0.627c0.243-0.836,0.452-1.673,0.627-2.509
		c0-0.522,0.139-1.358,0.418-2.508c-0.244-0.104-0.593-0.174-1.045-0.209c-0.244,0.104-0.662,0.175-1.254,0.209l-3.136,0.627
		c0,0.104,0.069,0.244,0.209,0.418c0,0.244,0,0.453,0,0.627c-0.244,0-0.593,0.209-1.045,0.627c-1.672-1.079-2.856-2.821-3.553-5.225
		c-0.522-2.091-0.802-4.319-0.836-6.688c0.243,0,0.452-0.069,0.627-0.209c0.104-0.104,0.383-0.174,0.836-0.209
		c0.104,0.244,0.174,0.453,0.209,0.627c0.243,0.94,0.452,1.847,0.627,2.717c1.358-1.079,2.821-1.846,4.39-2.299
		c0.243,0,0.452-0.069,0.627-0.209c0.661,0,1.219-0.209,1.672-0.627c0.104-0.243,0.174-1.149,0.209-2.718v-2.508
		c-0.244-0.104-0.453-0.174-0.627-0.209c-0.836,0-2.09,0.279-3.763,0.836c-0.418-0.418-0.697-0.627-0.836-0.627
		c0-0.243-0.07-0.522-0.209-0.836c1.254-0.661,2.718-1.149,4.39-1.463c1.497-0.104,3.03-0.313,4.598-0.627
		c0.244,0,0.453-0.069,0.627-0.209c1.916-0.418,3.797-0.837,5.644-1.255c2.509-0.522,4.459-0.801,5.853-0.836
		c0.243,0.244,0.452,0.453,0.627,0.627l0.418,0.837c-1.254,0.522-2.926,0.94-5.017,1.254c-0.244,0-0.593,0-1.045,0
		c-0.418,0-0.627,0.07-0.627,0.209c-0.662,0.522-0.871,2.056-0.627,4.598c0,0.522,0,1.011,0,1.464c0.104,0,0.243,0.069,0.418,0.209
		c0.243,0,0.452,0,0.627,0c0.661-0.104,1.916-0.175,3.763-0.209c2.194,0.243,3.309,1.22,3.344,2.926
		c-0.104,0.836-0.313,1.672-0.627,2.508c0,0.94-0.209,1.847-0.627,2.718c-0.522,2.194-1.498,3.379-2.926,3.553
		c0-0.104-0.07-0.313-0.209-0.627c-0.104-0.104-0.175-0.383-0.209-0.836c0-0.104,0.069-0.243,0.209-0.418
		c-0.418-0.104-1.045-0.174-1.882-0.209c-3.344,0.244-5.991,0.731-7.942,1.463c0,0.104,0.069,0.244,0.209,0.418
		c0,0.244,0,0.453,0,0.627c-0.522,1.776-0.871,3.449-1.045,5.017c0.243,0,0.522,0.07,0.836,0.209h0.836l1.255-0.418
		c0.243-0.104,0.731-0.174,1.463-0.209h1.045h0.836c-0.244,0.104-0.035-0.174,0.627-0.836c0.522-0.837,1.01-1.324,1.463-1.464
		c0.243,0.104,0.522,0.313,0.836,0.627c0.941,0.663,1.916,1.012,2.927,1.046l5.017-0.836c2.508-0.244,4.318-0.384,5.434-0.419
		c0.243,0.244,0.452,0.453,0.627,0.628l0.418,0.836c-0.662,0.418-1.916,0.767-3.762,1.045c-1.358,0.104-2.752,0.175-4.181,0.209
		c-1.776,0-3.31,0.279-4.598,0.836c0.104,0.418,0.313,0.906,0.627,1.463c0.243,0.662,0.522,1.567,0.836,2.717
		c0.243,0.523,0.522,1.359,0.836,2.509c0.661,1.776,1.01,3.657,1.045,5.644c-0.94,2.508-2.821,3.762-5.644,3.762
		c-4.006-0.836-7.489-2.229-10.45-4.18c-2.752,1.672-6.097,2.508-10.032,2.508c-3.345-1.079-5.853-3.937-7.524-8.569
		C342.441,114.896,342.163,113.642,342.685,113.329z M344.984,115c0.522,2.091,1.219,3.763,2.09,5.017
		c0.94,1.916,2.265,3.101,3.972,3.554h2.926c0.418,0,0.766,0,1.045,0c0.836-0.418,1.184-0.558,1.045-0.418
		c1.359-0.419,2.474-0.906,3.345-1.464c-0.836-1.254-1.185-1.741-1.045-1.463c-0.94-1.079-1.429-2.403-1.464-3.971
		c0.837-0.941,1.673-1.986,2.509-3.136c-0.522-0.104-1.429-0.174-2.718-0.209c-1.498,0.244-3.03,0.453-4.598,0.627
		c-3.449,0.244-5.888,0.662-7.315,1.254C344.879,114.896,344.949,114.966,344.984,115z M354.389,101.416
		c0.243,0.418,0.661,0.836,1.254,1.254c0.418,0,0.767-0.069,1.045-0.209c1.359,0,2.613-0.139,3.763-0.418
		c0-0.243,0.069-0.452,0.209-0.627c0-0.243-0.07-0.453-0.209-0.627c-0.418-2.752-0.627-4.146-0.627-4.181
		c-0.104,0.104-0.313,0.175-0.627,0.209c-2.334,0.662-3.798,1.358-4.39,2.09c-0.418,0.418-0.627,1.185-0.627,2.3
		C354.285,101.311,354.354,101.381,354.389,101.416z M359.406,118.345c0.418,0.418,0.696,0.767,0.836,1.045
		c0.418,0.418,0.766,0.836,1.045,1.254c2.508-2.09,4.737-5.016,6.688-8.778c-0.244-0.104-0.522-0.174-0.836-0.209h-0.836
		c-0.522,0.244-1.149,0.453-1.882,0.627c-0.418,0-0.836-0.069-1.254-0.209c-0.522,0-0.871,0.07-1.045,0.209
		c-0.104,0.104-0.313,0.384-0.627,0.836c0,0.418-0.07,0.767-0.209,1.045l-1.254,1.673c-0.418,0.522-0.836,1.011-1.254,1.463
		C358.779,117.544,358.988,117.893,359.406,118.345z M361.496,88.875c0,0.662,0,1.289,0,1.881c0,1.672,0.139,2.718,0.418,3.136
		c0.104,0,0.313,0.07,0.627,0.209c0.418,0,0.766-0.069,1.045-0.209c1.916,0,3.17-0.209,3.763-0.627
		c0.418-0.418,0.627-1.951,0.627-4.599v-1.254l-0.209-0.209c-0.836,0.244-1.951,0.522-3.345,0.836
		c-0.94,0.244-1.985,0.453-3.135,0.627C361.391,88.77,361.46,88.84,361.496,88.875z M362.332,98.28v2.509
		c0.243,0.522,0.87,0.802,1.881,0.836c0.104,0,0.244-0.069,0.418-0.209c0.941,0,1.498-0.069,1.673-0.209
		c0.104-0.244,0.383-1.707,0.836-4.39c0.104-0.418,0.174-0.836,0.209-1.254c-0.244-0.104-0.522-0.174-0.836-0.209
		c-0.244,0.104-1.011,0.175-2.3,0.209c-1.08,0.244-1.707,0.453-1.881,0.627c-0.104,0.104-0.175,0.384-0.209,0.836
		c0,0.418,0,0.767,0,1.045C362.227,98.175,362.296,98.246,362.332,98.28z M372.574,125.243c1.497-0.522,2.403-1.498,2.717-2.927
		c-0.104-1.358-0.593-3.378-1.463-6.061c-0.94-2.509-1.847-4.181-2.718-5.017c-0.662,0.836-1.358,1.742-2.09,2.717
		c-0.836,1.498-1.742,2.822-2.717,3.972c-0.836,1.358-1.951,2.683-3.345,3.971c1.916,1.359,4.215,2.335,6.897,2.927
		c0.243,0,0.452,0,0.627,0C371.563,125.243,372.26,125.382,372.574,125.243z M368.811,100.998c1.497-0.418,3.17-0.627,5.017-0.627
		c0.104,0,0.313,0.069,0.627,0.209c0.104-0.662,0.313-1.568,0.627-2.718c0.243-0.836,0.452-1.672,0.627-2.508
		c-0.522-0.243-1.358-0.383-2.508-0.418c-0.662,0-1.429,0-2.3,0c-1.08,0.104-1.776,1.149-2.09,3.135
		c-0.104,0.662-0.175,1.567-0.209,2.718C368.707,100.893,368.776,100.962,368.811,100.998z"/>
	<path fill="#816AAC" d="M398.909,97.653c0.418-0.418,0.766-0.627,1.045-0.627c0.522,0.244,0.94,0.522,1.254,0.836
		c0.522,0.244,1.01,0.453,1.463,0.627c1.498-1.079,2.822-3.309,3.972-6.688c0.243-0.661,0.452-1.428,0.627-2.299
		c0.104-0.418,0.174-0.905,0.209-1.463c0.243-1.776,0.731-2.892,1.463-3.345c0.243,0.244,0.452,0.453,0.627,0.628l0.418,0.836
		c-0.522,2.752-1.011,4.842-1.463,6.27c-0.94,2.753-1.707,4.634-2.299,5.644c0.104,0,0.243,0.07,0.418,0.209
		c0.836-0.418,1.741-0.627,2.717-0.627c2.195,0.662,3.31,2.403,3.345,5.226c-0.104,0.662-0.175,1.847-0.209,3.553
		c0,1.254,0,2.439,0,3.554c-0.104,0.836-0.175,2.299-0.209,4.389c0,0.522-0.07,1.011-0.209,1.464c0,1.254-0.14,2.856-0.418,4.807
		c-0.104,0.418-0.313,0.627-0.627,0.627c-0.104,0.104-0.384,0.175-0.837,0.209c-0.244-0.661-0.383-1.706-0.418-3.135
		c0-0.418,0.069-0.696,0.209-0.836c0-0.104,0-0.313,0-0.627l-0.209-0.209c-2.09,0.104-4.598,0.731-7.524,1.881
		c0.104,0.244,0.174,0.593,0.209,1.045c0.104,0.418,0.175,0.767,0.209,1.045c-0.244,0-0.593,0.209-1.045,0.627
		c-1.08-0.94-1.776-2.264-2.09-3.971c0.104-0.243,0.174-0.661,0.209-1.254c0.104-0.244,0.174-0.662,0.209-1.255
		c-0.244-1.358-0.384-2.473-0.418-3.344v-1.881v-1.673c-0.104-0.836-0.175-2.159-0.209-3.971c0-1.254,0-2.577,0-3.972
		c0-0.104,0-0.313,0-0.627C398.909,98.246,398.769,97.688,398.909,97.653z M401.417,101.625c0.104-0.243,0.313-0.522,0.627-0.836
		c-0.244-0.104-0.453-0.175-0.627-0.209c-0.104,0.244-0.175,0.522-0.209,0.836C401.312,101.52,401.381,101.59,401.417,101.625z
		 M404.552,110.194c0.418-0.836,0.905-1.532,1.463-2.09c-0.244-0.104-0.453-0.175-0.627-0.21l-1.254,0.419
		c-1.498,0.522-2.404,1.22-2.718,2.09c0,1.358,0.209,2.474,0.627,3.344c0.418-0.522,0.836-1.149,1.255-1.881
		C403.821,111.03,404.239,110.473,404.552,110.194z M404.343,106.222c1.079-0.522,2.124-0.87,3.135-1.045
		c0.836,0.836,1.184,1.115,1.045,0.836c0.104,0.104,0.174,0.522,0.209,1.254c-0.836,1.499-1.742,2.962-2.717,4.39
		c-0.662,0.836-1.567,2.229-2.717,4.181c0.104,0,0.243,0.069,0.418,0.209c1.254-0.522,3.204-0.941,5.852-1.255
		c0.104,0,0.244,0.07,0.418,0.209l0.628-6.896v-7.106c-0.523-0.522-0.802-0.802-0.837-0.837c0-0.104-0.279-0.243-0.836-0.418
		c-4.18,0.662-6.619,3.031-7.315,7.106c0.104,0,0.313,0.07,0.627,0.209C402.775,106.815,403.472,106.536,404.343,106.222z
		 M415.002,104.132c4.842-4.181,8.047-8.708,9.614-13.586c0.104-0.661,0.313-1.846,0.627-3.553c0.523-2.613,1.289-4.285,2.3-5.017
		c0.243,0.244,0.452,0.453,0.627,0.627l0.418,0.836c-0.662,2.509-1.429,4.947-2.299,7.315c-0.522,2.334-1.359,4.634-2.509,6.897
		c0.104,0.104,0.174,0.175,0.209,0.209c2.613-1.079,5.608-1.637,8.987-1.672c1.255,0.522,1.882,2.334,1.882,5.435
		c0,0.418,0,0.767,0,1.045c-0.104,1.498-0.313,2.961-0.627,4.389c-0.104,1.499-0.313,3.658-0.627,6.479
		c-0.244,2.927-0.593,5.087-1.046,6.479c-0.104,0.662-0.313,1.289-0.627,1.881c-0.522,2.509-1.567,3.902-3.135,4.181
		c-2.612-1.358-4.703-3.24-6.271-5.644c-1.08-1.497-2.125-3.936-3.135-7.315c-0.94-2.751-1.498-4.563-1.673-5.435
		c0-0.418,0-0.905,0-1.463c0.244,0,0.453-0.069,0.628-0.209c0.104-0.104,0.383-0.174,0.836-0.209
		c0.104,0.104,0.174,0.244,0.209,0.418c0.418,0.662,0.836,1.289,1.254,1.882c0.418,0.94,0.905,1.567,1.463,1.881
		c0.836,0.522,1.393,0.871,1.672,1.045c1.358,0.522,2.195,1.22,2.509,2.09c-0.104,0.104-0.313,0.244-0.628,0.418
		c-0.104,0.104-0.313,0.175-0.627,0.209c-0.418-0.104-0.906-0.313-1.463-0.627c-1.358-0.661-2.056-1.01-2.09-1.045
		c-0.104,0.104-0.175,0.244-0.209,0.418c1.672,5.121,4.25,8.883,7.733,11.287c1.497-3.031,2.612-6.932,3.344-11.705
		c0.418-4.181,0.627-8.36,0.627-12.541c-0.418-0.661-0.976-1.079-1.672-1.254c-1.916,0.104-4.075,0.593-6.479,1.463
		c-0.104,0-0.313,0-0.627,0c-1.08,0-1.776,0.14-2.09,0.418c-0.104,0.104-0.522,0.453-1.254,1.046l-0.836,1.254
		c-0.522,0.522-1.358,1.22-2.509,2.09c-0.522,0.244-1.011,0.593-1.463,1.045c-0.244-0.104-0.522-0.313-0.836-0.627
		C414.793,104.55,414.723,104.272,415.002,104.132z"/>
	<path fill="#816AAC" d="M450.953,95.563c0.243,0,0.452-0.069,0.627-0.209c0.104-0.104,0.383-0.174,0.836-0.209
		c0.104,0.244,0.174,0.453,0.209,0.627c0.104,0.104,0.174,0.384,0.209,0.836c0.104,0.418,0.174,0.767,0.209,1.045
		c2.09-2.194,4.668-3.309,7.733-3.344c1.079,0.662,1.637,1.567,1.672,2.717c0,0.244-0.07,0.453-0.209,0.627
		c0,0.662-0.07,1.358-0.209,2.09c0,0.941-0.07,1.639-0.209,2.091c1.254,0.418,1.741,0.558,1.463,0.418
		c0.418,0.418,0.697,0.836,0.837,1.254c-0.663,0.244-1.359,0.453-2.091,0.627c-0.104,0-0.453,0.14-1.045,0.418
		c-0.522,0.244-0.94,0.522-1.254,0.836c-0.104,0.104-0.453,0.313-1.045,0.627c-0.662,0.244-1.429,0.453-2.3,0.627
		c-0.522,0.244-1.08,0.593-1.672,1.045c0.243,0.419,0.452,0.837,0.627,1.255c0.243,0.522,0.383,1.011,0.418,1.463
		c-0.244,0-0.593,0.209-1.045,0.627c-1.498-1.254-2.543-3.274-3.135-6.062c-0.244-2.508-0.384-4.319-0.418-5.435
		c0-0.243-0.14-0.94-0.418-2.09C450.744,96.19,450.813,95.563,450.953,95.563z M453.878,104.132
		c0.104,0.104,0.243,0.313,0.418,0.627c0.104,0,0.243-0.069,0.418-0.209c2.927-0.94,4.39-1.428,4.39-1.463
		c0.836-0.836,1.254-2.996,1.254-6.479c-0.244-0.104-0.662-0.174-1.254-0.209c-3.171,0.94-4.912,2.612-5.226,5.017
		c0,0.244,0.069,0.453,0.209,0.627c0.104,0.418,0.174,0.767,0.209,1.045c-0.244,0.244-0.453,0.522-0.627,0.836
		C453.774,104.028,453.843,104.098,453.878,104.132z M464.121,109.985c2.333-0.836,4.075-1.603,5.225-2.3
		c-0.662-1.079-0.871-2.542-0.627-4.389c0-0.418,0-0.905,0-1.463c0.104-0.243,0.174-0.801,0.209-1.673v-1.672v-2.926
		c0.104-1.672,0.174-4.319,0.209-7.942c0-0.522-0.07-1.079-0.209-1.672c0-0.662,0.069-1.08,0.209-1.255
		c0.243-0.243,0.383-0.383,0.418-0.418c0.243,0,0.452-0.069,0.627-0.209c0.243,0.244,0.452,0.453,0.627,0.627l0.418,0.837
		c-0.104,0.104-0.174,0.244-0.209,0.418c0.104,0,0.244,0.07,0.418,0.209c1.255-0.418,3.136-0.906,5.644-1.464
		c0.661-0.104,1.288-0.313,1.881-0.627c0.244-0.104,0.941-0.383,2.091-0.836c1.254-0.418,2.646-0.627,4.18-0.627
		c0.522,0.522,0.801,0.802,0.836,0.836c0.104,0.104,0.174,0.593,0.209,1.463c-1.254,0.941-2.369,2.057-3.344,3.345
		c0.243,0.522,0.383,0.871,0.418,1.045c1.254,2.752,1.881,5.121,1.881,7.106c-0.662,0.836-1.567,1.603-2.717,2.299
		c-0.244,0-0.593,0-1.045,0c-0.418,0-0.627,0.07-0.627,0.209c-0.418,0.418-0.767,1.603-1.045,3.554c0,0.662-0.07,1.358-0.209,2.09
		c0.104,0,0.243,0.07,0.418,0.209h0.836c1.915-0.661,4.563-1.01,7.942-1.045c1.672,0.836,2.508,2.578,2.508,5.226
		c-0.244,1.498-0.522,3.797-0.836,6.897c-0.244,3.03-0.593,5.26-1.045,6.688c-0.522,1.673-1.08,2.788-1.672,3.345
		c-0.244,0.244-0.662,0.384-1.255,0.418l-2.09-1.045c-3.03-1.254-4.702-2.438-5.016-3.554c0.418-0.418,0.836-0.627,1.254-0.627
		c1.254,0.522,3.273,1.498,6.061,2.927c1.08-2.091,1.777-4.808,2.091-8.151c0.243-1.916,0.383-4.842,0.418-8.779
		c-0.662-0.836-1.429-1.254-2.299-1.254c-0.244,0-0.593,0-1.046,0c-0.104,0.104-1.149,0.313-3.135,0.627
		c-0.94,0.104-1.985,0.175-3.135,0.209c-1.081,0-2.266,0.209-3.554,0.627c-0.244,0-0.453,0.07-0.627,0.209
		c-0.836,0.104-1.881,0.662-3.135,1.673c-0.418,0.104-0.906,0.244-1.464,0.418c-1.672,0.418-2.926,0.906-3.762,1.463
		c0.836,0,1.393,0.349,1.672,1.045c0.104,0.104,0.174,0.384,0.209,0.836c0.243,1.672,0.522,2.647,0.836,2.927
		c0.243,0.244,0.383,0.453,0.418,0.627c0.836,1.254,1.324,2.021,1.463,2.299c-0.243,0-0.592,0.209-1.045,0.627
		c-2.508-1.672-3.762-4.25-3.762-7.733l0.418-0.418c-0.104-0.104-0.244-0.174-0.418-0.209c-1.672,0.418-2.647,0.906-2.927,1.463
		c-0.244,0.244-0.383,0.94-0.418,2.09c0,0.244,0,0.453,0,0.627c-0.244,1.777-0.662,3.311-1.254,4.599
		c-0.94,2.09-1.985,3.205-3.135,3.345c0-0.105-0.07-0.314-0.209-0.628c-0.104-0.104-0.175-0.383-0.209-0.836
		c0.418-0.661,0.905-1.706,1.463-3.135l1.254-3.345c0-0.418,0-0.905,0-1.463c0-1.079,0.139-1.846,0.418-2.299
		C461.925,110.787,462.691,110.298,464.121,109.985z M470.808,106.013c5.017,0,7.524-2.02,7.524-6.062
		c-0.104-0.104-0.244-0.174-0.418-0.209c-2.194,0.522-3.797,1.011-4.807,1.464c-0.418-0.418-0.697-0.627-0.836-0.627
		c0-0.244-0.07-0.523-0.209-0.837c0.94-0.661,1.846-1.358,2.717-2.09c1.358-0.836,2.264-1.532,2.717-2.09
		c0.661-0.661,1.08-1.219,1.254-1.672c-0.104-0.104-0.244-0.174-0.418-0.209c-1.358,0.418-2.961,0.976-4.807,1.672
		c-0.418-0.418-0.697-0.627-0.836-0.627c0-0.243-0.07-0.522-0.209-0.836c0.94-0.94,2.542-2.265,4.807-3.972
		c0.243-0.243,0.522-0.452,0.836-0.627c0.243-0.104,0.453-0.243,0.627-0.418v-1.881v-0.418c-0.244-0.104-0.453-0.174-0.627-0.209
		c-2.194,0.522-3.797,1.011-4.807,1.463c-0.104,0-0.313,0-0.627,0c-0.836,0-1.394,0.209-1.673,0.627
		c-0.104,0.104-0.175,0.453-0.209,1.045c0.104,0.244,0.174,0.593,0.209,1.045v5.853l-0.418,4.599c0,1.672,0,3.274,0,4.807
		C470.704,105.909,470.773,105.979,470.808,106.013z M477.915,116.255c-0.244,0.522-0.384,0.802-0.418,0.836l-0.627,0.627
		c-2.926-1.358-4.389-3.658-4.389-6.897c0.243,0,0.452-0.069,0.627-0.209c0.104-0.104,0.383-0.174,0.836-0.209
		c0.243,0.662,0.452,1.289,0.627,1.881c0.243,0.836,0.522,1.394,0.836,1.672c0.104,0.104,0.174,0.175,0.209,0.209
		C477.113,115.105,477.879,115.802,477.915,116.255z M484.603,115.628c-0.244,0.522-0.384,0.802-0.418,0.836l-0.627,0.627
		c-3.344-1.673-5.017-4.11-5.017-7.315c0.244,0,0.453-0.069,0.627-0.209c0.105-0.104,0.384-0.174,0.837-0.209
		c0.418,0.836,0.766,1.672,1.045,2.508c0.418,0.522,0.766,1.08,1.045,1.672c0.104,0.104,0.174,0.175,0.209,0.209
		C483.801,114.687,484.568,115.314,484.603,115.628z M480.632,97.026c1.254-0.522,2.02-1.01,2.299-1.463
		c0.243-0.243,0.383-0.592,0.418-1.045c-0.104-0.243-0.244-0.452-0.418-0.627c-1.358,0.94-2.194,1.916-2.508,2.926
		C480.528,96.921,480.597,96.992,480.632,97.026z M480.841,90.755c0.418-0.243,0.696-0.452,0.836-0.627
		c-0.104-0.104-0.313-0.313-0.627-0.627c-0.244,0.244-0.384,0.593-0.418,1.045C480.737,90.651,480.806,90.721,480.841,90.755z
		 M481.677,85.74c0.104,0,0.243,0.069,0.418,0.209c0.104-0.244,0.452-0.522,1.045-0.837c-0.104-0.104-0.244-0.174-0.418-0.209
		c-0.418,0-0.836,0.209-1.254,0.628C481.573,85.635,481.642,85.705,481.677,85.74z"/>
	<path fill="#816AAC" d="M519.456,95.719c1.672,1.673,2.509,3.345,2.509,5.017c-0.384,2.299-2.038,4.251-4.965,5.853
		c-3.31,1.812-4.964,3.153-4.964,4.023c-0.104,1.707-0.156,2.735-0.156,3.083v1.619v0.68v0.418l-0.366-0.261l-0.679-0.366
		l-0.68-0.418l-0.052-0.836c0.139-0.452,0.209-0.731,0.209-0.836c0.174-2.229,0.278-3.658,0.313-4.285
		c0.452-1.045,2.09-2.352,4.911-3.919c2.822-1.915,4.232-3.501,4.232-4.755c-0.279-1.637-0.888-2.839-1.828-3.605
		c-1.464-0.975-3.049-1.463-4.756-1.463c-1.776,0.349-3.135,0.645-4.075,0.889c-1.429,0.906-2.247,1.689-2.456,2.351
		c-0.035,0.836-0.052,1.307-0.052,1.411l0.261,1.307c-0.731,1.011-1.271,1.515-1.62,1.515l-1.149,0.471l-0.313-0.575
		c0.209-0.696,0.313-1.166,0.313-1.41c0.174-0.767,0.262-1.202,0.262-1.307c0.209-1.567,0.574-2.717,1.097-3.448
		c1.15-1.359,2.212-2.16,3.188-2.404c1.358-0.661,2.874-0.992,4.546-0.992C515.903,93.717,517.993,94.465,519.456,95.719z
		 M511.879,119.652l0.888,1.149l0.418,0.522l0.313,0.47l-0.209,1.098l-0.888,0.731l-0.522-0.313v-0.522v-0.366l-0.471-0.627
		l-0.313-0.365l-0.418-0.522l-0.47-0.053l-0.784-0.156l-0.418-0.209l-0.471-0.104l-0.365-0.522c0.313-0.767,0.574-1.202,0.783-1.307
		c0.871-0.069,1.533-0.104,1.986-0.104C511.566,119.042,511.879,119.443,511.879,119.652z"/>
</g>
</svg>
