<?xml version="1.0" encoding="utf-8"?>
<!-- Generator: Adobe Illustrator 16.0.0, SVG Export Plug-In . SVG Version: 6.00 Build 0)  -->
<!DOCTYPE svg PUBLIC "-//W3C//DTD SVG 1.1//EN" "http://www.w3.org/Graphics/SVG/1.1/DTD/svg11.dtd">
<svg version="1.1" id="圖層_1" xmlns="http://www.w3.org/2000/svg" xmlns:xlink="http://www.w3.org/1999/xlink" x="0px" y="0px"
	 width="50px" height="50px" viewBox="0 0 50 50" enable-background="new 0 0 50 50" xml:space="preserve">
<path fill="#35275E" d="M48.06,11H1.941c-0.829,0-1.5-0.671-1.5-1.5S1.113,8,1.941,8H48.06c0.828,0,1.5,0.671,1.5,1.5
	S48.888,11,48.06,11z"/>
<path fill="#35275E" d="M48.06,26.5H1.941c-0.829,0-1.5-0.671-1.5-1.5s0.671-1.5,1.5-1.5H48.06c0.828,0,1.5,0.671,1.5,1.5
	S48.888,26.5,48.06,26.5z"/>
<path fill="#35275E" d="M48.06,42H1.941c-0.829,0-1.5-0.672-1.5-1.5s0.671-1.5,1.5-1.5H48.06c0.828,0,1.5,0.672,1.5,1.5
	S48.888,42,48.06,42z"/>
</svg>
