<?xml version="1.0" encoding="utf-8"?>
<!-- Generator: Adobe Illustrator 16.0.0, SVG Export Plug-In . SVG Version: 6.00 Build 0)  -->
<!DOCTYPE svg PUBLIC "-//W3C//DTD SVG 1.1//EN" "http://www.w3.org/Graphics/SVG/1.1/DTD/svg11.dtd">
<svg version="1.1" id="圖層_1" xmlns="http://www.w3.org/2000/svg" xmlns:xlink="http://www.w3.org/1999/xlink" x="0px" y="0px"
	 width="144px" height="76px" viewBox="-0.289 -0.918 144 76" enable-background="new -0.289 -0.918 144 76" xml:space="preserve">
<path fill="#382863" d="M143.354,4.767c-0.324-0.777-0.817-1.474-1.553-2.197c-1.029-0.99-2.402-1.834-3.97-2.44
	c-1.758-0.675-3.646-1.017-5.613-1.017c-3.271,0-8.312,0.989-13.754,5.701l-0.554,0.474v12.938
	c-1.794,0.097-3.591,0.145-5.375,0.145c-13.485,0-27.265-2.639-40.59-5.192C58.503,10.604,44.603,7.94,30.862,7.936
	c-7.59,0-14.513,0.797-21.15,2.435c-1.885,0.414-4.229,1.879-6.12,3.824c-1.126,1.171-2.025,2.447-2.672,3.794
	c-0.788,1.642-1.187,3.368-1.187,5.132v43.595c0,0.568,0.117,1.146,0.349,1.717c0.324,0.777,0.817,1.475,1.556,2.197
	c1.031,0.992,2.403,1.835,3.968,2.44c1.741,0.671,3.629,1.011,5.613,1.011h0.017c3.262,0,8.293-0.987,13.736-5.693l0.554-0.475
	V54.971c15.204-0.823,30.866,2.154,45.963,5.045c13.444,2.574,27.346,5.236,41.087,5.241c7.606,0,14.526-0.795,21.146-2.429
	c1.885-0.413,4.229-1.878,6.123-3.823c1.126-1.171,2.024-2.446,2.669-3.792c0.789-1.639,1.189-3.367,1.189-5.136V6.481
	C143.702,5.909,143.584,5.333,143.354,4.767z M2.974,63.399c0.719-1.513,1.95-3.009,3.468-4.213
	c1.499-1.197,2.908-1.809,3.719-1.985v0.001c4.106-1.013,8.449-1.707,12.917-2.066l0.002,10.923
	c-4.764,3.906-9.072,4.732-11.88,4.732c-3.409,0-5.746-1.158-6.836-1.849c-0.752-0.475-1.388-1.029-1.795-1.563
	c-0.222-0.287-0.319-0.5-0.336-0.537l-0.054-0.127C2.178,65.607,2.438,64.522,2.974,63.399z M10.157,13.585l0.005,0.02
	c6.495-1.6,13.266-2.377,20.727-2.377c13.487,0,27.267,2.639,40.594,5.191c13.445,2.576,27.349,5.238,41.092,5.243
	c7.563,0,14.46-0.79,21.086-2.413l0.1-0.022c1.877-0.425,4.203-1.884,6.084-3.818c0.518-0.535,0.989-1.103,1.414-1.697V50.08
	c0.002,1.109-0.258,2.193-0.793,3.314c-0.72,1.512-1.952,3.009-3.471,4.215c-1.249,0.994-2.695,1.771-3.721,1.983
	c-6.484,1.597-13.255,2.374-20.735,2.374c-13.485,0-27.264-2.639-40.589-5.191c-13.443-2.574-27.345-5.237-41.086-5.242
	c-7.595,0-14.518,0.796-21.15,2.432c-1.882,0.414-4.227,1.88-6.12,3.826c-0.515,0.534-0.987,1.103-1.414,1.699V23.12
	c0-1.111,0.26-2.195,0.796-3.316c0.718-1.513,1.949-3.01,3.468-4.214c1.509-1.206,2.929-1.818,3.718-1.983L10.157,13.585z
	 M132.236,2.406c3.403,0,5.743,1.158,6.835,1.849c0.756,0.479,1.395,1.034,1.798,1.563c0.152,0.2,0.285,0.417,0.337,0.534
	l0.055,0.133c0,1.108-0.261,2.192-0.796,3.316c-0.723,1.516-1.955,3.012-3.472,4.212c-1.506,1.206-2.926,1.818-3.72,1.983
	c-4.154,1.026-8.386,1.702-12.916,2.065l-0.001-10.923c4.767-3.906,9.074-4.732,11.863-4.732H132.236z"/>
<g>
	<path fill="#382863" d="M62.024,33.771c-0.325-0.22-0.997-0.533-2.054-0.958l-0.135-0.034c-0.906-0.093-1.936,0.165-3.033,0.775
		c-0.389,0.098-0.854,0.35-1.421,0.775c0.356-1.628,0.845-3.246,1.458-4.827l0.031-0.125c0.022-0.206,0.114-0.441,0.271-0.7
		l0.226-0.898l-0.146-0.455l-0.535-0.71l-0.383-0.354l-0.198-0.107l-0.144-0.025c-0.095,0-0.147,0.012-0.803,0.186l-0.318,0.084
		l-0.174,1.168c-0.008,0.077-0.064,0.379-0.34,1.553c-0.683,3.167-1.35,5.703-1.99,7.563c-1.759,6.138-2.275,7.409-2.426,7.619
		l-0.074,0.037l-0.013,0.145c-0.016,0.054-0.075,0.213-0.177,0.477l-0.048,0.124l0.136,0.9c-0.001,0.296,0.166,0.621,0.533,1.041
		l0.241,0.275l0.335-0.146l0.464-0.155l0.729-0.466l0.17-0.152l0.041-0.195c0.003-0.014,0.035-0.146,0.293-0.571l0.065-0.177
		c0.002-0.013,0.012-0.127,0.027-0.342l0.038-0.584c0.372-2.056,0.93-4.252,1.661-6.536l0.831,0.015l0.123-0.519l0.933-0.893
		c0.428-0.386,0.907-0.718,1.424-0.987c0.389-0.102,1.024-0.216,1.988-0.359c0.129,0.025,0.331,0.106,0.629,0.325l0.155,0.506
		c-0.068,0.556-0.227,1.206-0.473,1.935l-0.023,0.107c-0.084,0.791-0.346,1.671-0.777,2.615l-0.042,0.155
		c-0.047,0.438-0.278,1.318-0.709,2.713c-0.108,0.996-0.245,1.756-0.426,2.355c-0.03,0.273,0.052,0.583,0.257,0.974l0.192,0.368
		c0.108,0.398,0.676,0.559,1.144,0.69l0.871,0.06c0.454,0,0.63-0.487,0.735-0.798c0.042-0.219-0.004-0.295-0.444-1.021l-0.28-0.269
		l0.173-1.354c0.102-0.963,0.371-1.842,0.798-2.612l0.06-0.188c0.034-0.314,0.194-1.089,0.782-3.088
		c0.112-1.039,0.3-1.813,0.559-2.297l0.056-0.182c0.081-0.737-0.157-1.519-0.708-2.322L62.024,33.771z"/>
	<path fill="#382863" d="M75.216,33.742c-0.069-0.027-0.183-0.098-0.348-0.203l-0.706-0.24l-0.961,0.043
		c-0.992-0.105-2.005,0.104-3.032,0.629c-0.899,0.471-1.809,1.417-2.82,2.969c-0.564,1.303-1.053,2.95-1.458,4.939
		c-0.177,1.644,0.22,3.29,1.196,4.917c0.737,1.088,2.121,1.836,4.153,2.228c0.18,0.02,0.358,0.029,0.536,0.029c0,0,0,0,0,0
		c1.566,0,3.046-0.759,4.401-2.257c1.241-1.393,2.159-3.547,2.737-6.447c0.184-1.72-0.176-3.242-1.053-4.5
		C77.207,34.776,76.324,34.069,75.216,33.742z M76.507,40.092c-0.212,1.984-0.897,3.708-2.024,5.104
		c-0.815,0.925-1.752,1.407-2.781,1.478c-1.05-0.112-1.926-0.585-2.634-1.388c-0.483-0.743-0.742-1.823-0.77-3.147
		c0.131-1.203,0.521-2.515,1.186-3.975c0.224-0.803,0.778-1.391,1.723-1.813c0.512-0.268,1.104-0.456,1.76-0.558l0.413,0.105
		l0.319,0.025l0.588,0.199l0.111,0.025c0.203,0.022,0.651,0.2,1.335,1.099C76.162,37.945,76.421,38.93,76.507,40.092z"/>
	<path fill="#382863" d="M95.901,37.944l-0.36-0.561l-0.323-0.4l-0.64-0.146l-1.039-0.412l-0.014,0.663
		c-1.297-0.136-2.366-0.215-3.228-0.233l-0.126,0.012c0.074-0.176,0.173-0.399,0.306-0.682c0.783-3.032,1.09-3.562,1.163-3.649
		l0.197-0.208l-0.385-1.321c-0.105-0.366-0.404-0.687-0.938-1.007l-0.863-0.819l-0.061,1.061l-0.331,3.094
		c-0.079,0.744-0.478,1.999-1.185,3.733c-0.736-0.052-1.403-0.003-1.998,0.139c-0.091-0.042-0.267-0.13-0.608-0.311l-0.594-0.178
		l-0.479-0.244l-0.771-0.299l-0.632,0.513l-0.1,1.397l1.011,1.036l0.18,0.019c0.301,0.032,1.379,0.251,1.783,0.331l1.437,0.154
		c-0.402,1.733-0.779,2.994-1.121,3.753l-0.041,0.152c-0.093,0.873-0.235,1.676-0.438,2.46c-0.143,1.324-0.018,2.443,0.396,3.375
		c0.381,0.655,1.138,1.154,2.336,1.5l0.095,0.005c0.235,0,0.643-0.081,1.753-0.738c0.561-0.408,1.31-1.128,2.346-2.274
		c0.344-0.552,0.663-0.978,0.949-1.265l0.125-0.125l0.018-0.177c0.024-0.238-0.021-0.635-0.597-1.588l-0.063-0.104l-0.104-0.064
		c-0.363-0.221-0.734-0.38-1.104-0.473l-0.559-0.142l-0.137,1.269c-0.014,0.145-0.012,0.383,0.004,0.724l-0.569,0.718
		c-0.495,0.624-1.01,1.104-1.53,1.427c-0.116,0.026-0.322,0.077-0.726,0.179c-0.029-0.041-0.068-0.103-0.116-0.192
		c-0.007-0.214-0.044-0.677-0.171-1.854c0.093-0.815,0.37-2.104,0.837-3.903c0.071-0.678,0.282-1.603,0.628-2.753
		c0.586,0.01,1.105-0.063,1.579-0.239c0.35,0.034,1.176,0.101,2.471,0.198c0.173,0.019,0.438,0.028,0.788,0.028l0.479-0.002
		c0.253,0,0.512-0.109,0.793-0.334l0.116-0.094l0.347-0.914L95.901,37.944z"/>
</g>
</svg>
