<?xml version="1.0" encoding="utf-8"?>
<!-- Generator: Adobe Illustrator 16.0.0, SVG Export Plug-In . SVG Version: 6.00 Build 0)  -->
<!DOCTYPE svg PUBLIC "-//W3C//DTD SVG 1.1//EN" "http://www.w3.org/Graphics/SVG/1.1/DTD/svg11.dtd">
<svg version="1.1" id="圖層_1" xmlns="http://www.w3.org/2000/svg" xmlns:xlink="http://www.w3.org/1999/xlink" x="0px" y="0px"
	 width="264.165px" height="76.495px" viewBox="0 0 264.165 76.495" enable-background="new 0 0 264.165 76.495"
	 xml:space="preserve">
<g>
	<path fill="#382963" d="M69.16,0H7.32C3.284,0,0,3.282,0,7.32v61.841c0,4.035,3.284,7.32,7.32,7.32H69.16
		c4.038,0,7.321-3.285,7.321-7.32V7.32C76.48,3.282,73.197,0,69.16,0z M73.62,7.32v29.489H50.236
		c5.987-6.831,8.984-15.369,10.465-21.65c1.294-5.491,1.666-10.078,1.771-12.298h6.687C71.62,2.861,73.62,4.861,73.62,7.32z
		 M36.81,73.619H13.428c4.84-5.527,7.727-12.165,9.436-17.826H36.81V73.619z M36.81,52.933H23.657
		c0.08-0.325,0.16-0.648,0.235-0.963c1.295-5.492,1.666-10.078,1.771-12.299H36.81V52.933z M2.86,39.671h19.935
		c-0.113,2.162-0.483,6.558-1.705,11.711c-0.119,0.501-0.25,1.02-0.391,1.551H2.86V39.671z M2.86,36.809v-9.438H36.81v9.438H2.86z
		 M36.81,24.51H2.86v-9.442H36.81V24.51z M39.671,2.861h19.933c-0.276,5.146-2.043,22.993-13.308,33.948h-6.625V2.861z M7.32,2.861
		H36.81v9.346H2.86V7.32C2.86,4.861,4.861,2.861,7.32,2.861z M2.86,69.161V55.792h17.009c-1.855,5.837-5.021,12.611-10.382,17.827
		H7.32C4.861,73.619,2.86,71.619,2.86,69.161z M69.16,73.619H39.671V39.671H73.62v29.49C73.62,71.619,71.62,73.619,69.16,73.619z"/>
	<g>
		<path fill="#382963" d="M111.174,28.516c0,0.896-0.413,1.346-1.236,1.346c-0.922,0-1.382-0.449-1.382-1.346V15.934
			c0-3.879-1.637-5.818-4.91-5.818c-1.697,0-3.151,0.776-4.364,2.327c-1.066,1.383-1.599,2.765-1.599,4.146v11.927
			c0,0.896-0.45,1.346-1.345,1.346c-0.874,0-1.31-0.449-1.31-1.346V8.844c0-0.872,0.436-1.309,1.31-1.309
			c0.896,0,1.345,0.437,1.345,1.309v2.11c1.283-2.327,3.272-3.492,5.962-3.492c2.594,0,4.533,0.836,5.82,2.509
			c1.138,1.454,1.708,3.442,1.708,5.963V28.516z"/>
		<path fill="#382963" d="M117.791,3.718c0,0.508-0.181,0.943-0.545,1.308c-0.339,0.339-0.763,0.509-1.272,0.509
			c-0.486,0-0.921-0.169-1.31-0.509c-0.339-0.364-0.509-0.799-0.509-1.308c0-0.51,0.183-0.934,0.545-1.274
			c0.364-0.339,0.788-0.509,1.273-0.509c0.509,0,0.945,0.17,1.308,0.509C117.621,2.783,117.791,3.207,117.791,3.718z
			 M117.282,28.553c0,0.873-0.437,1.31-1.308,1.31c-0.873,0-1.31-0.437-1.31-1.31V8.844c0-0.896,0.448-1.345,1.346-1.345
			c0.849,0,1.272,0.448,1.272,1.345V28.553z"/>
		<path fill="#382963" d="M136.919,28.516c0,0.896-0.413,1.346-1.236,1.346c-0.921,0-1.382-0.449-1.382-1.346V15.934
			c0-3.879-1.637-5.818-4.909-5.818c-1.697,0-3.152,0.776-4.363,2.327c-1.068,1.383-1.602,2.765-1.602,4.146v11.927
			c0,0.896-0.45,1.346-1.345,1.346c-0.873,0-1.31-0.449-1.31-1.346V8.844c0-0.872,0.438-1.309,1.31-1.309
			c0.895,0,1.345,0.437,1.345,1.309v2.11c1.285-2.327,3.273-3.492,5.964-3.492c2.593,0,4.533,0.836,5.818,2.509
			c1.138,1.454,1.709,3.442,1.709,5.963V28.516z"/>
		<path fill="#382963" d="M158.301,18.662c0,3.369-0.873,6.084-2.618,8.145c-1.746,2.036-4.001,3.056-6.765,3.056
			c-2.787,0-5.054-1.032-6.799-3.092c-1.721-2.036-2.582-4.739-2.582-8.108c0-3.346,0.873-6.049,2.618-8.108
			c1.746-2.061,4.012-3.091,6.8-3.091c2.763,0,5.019,1.03,6.763,3.091C157.44,12.614,158.301,15.317,158.301,18.662z
			 M155.684,18.662c0-2.716-0.667-4.86-2.001-6.437c-1.212-1.405-2.787-2.11-4.727-2.11c-1.963,0-3.551,0.704-4.763,2.11
			c-1.359,1.577-2.037,3.721-2.037,6.437c0,2.739,0.666,4.884,2,6.436c1.211,1.407,2.8,2.11,4.763,2.11
			c1.94,0,3.527-0.703,4.763-2.11C155.016,23.547,155.684,21.402,155.684,18.662z"/>
		<path fill="#382963" d="M177.03,28.516c0,0.896-0.415,1.346-1.237,1.346c-0.922,0-1.383-0.449-1.383-1.346V15.934
			c0-3.879-1.636-5.818-4.91-5.818c-1.696,0-3.15,0.776-4.362,2.327c-1.068,1.383-1.601,2.765-1.601,4.146v11.927
			c0,0.896-0.449,1.346-1.345,1.346c-0.873,0-1.31-0.449-1.31-1.346V8.844c0-0.872,0.438-1.309,1.31-1.309
			c0.896,0,1.345,0.437,1.345,1.309v2.11c1.285-2.327,3.273-3.492,5.963-3.492c2.595,0,4.535,0.836,5.82,2.509
			c1.138,1.454,1.709,3.442,1.709,5.963L177.03,28.516L177.03,28.516z"/>
		<path fill="#382963" d="M199.174,28.59c0,0.363-0.132,0.667-0.401,0.909c-0.241,0.242-0.544,0.364-0.908,0.364
			c-0.63,0-1.042-0.316-1.236-0.946c-0.146-0.437-0.388-1.323-0.727-2.655c-1.602,2.4-3.94,3.601-7.019,3.601
			c-2.399,0-4.351-0.631-5.854-1.893c-1.527-1.211-2.292-2.823-2.292-4.835c0-4.194,2.728-6.401,8.182-6.618
			c2.012-0.096,3.431-0.302,4.255-0.618c0.848-0.315,1.551-0.873,2.108-1.672c0-1.479-0.435-2.533-1.308-3.165
			c-0.873-0.629-2.244-0.945-4.11-0.945c-2.643,0-4.582,1.006-5.818,3.019c-0.267,0.436-0.642,0.653-1.127,0.653
			c-0.363,0-0.679-0.132-0.946-0.399c-0.266-0.242-0.4-0.545-0.4-0.909c0-0.509,0.438-1.237,1.31-2.181
			c1.723-1.892,4.049-2.837,6.982-2.837c2.619,0,4.557,0.521,5.819,1.563c1.527,1.212,2.291,3.237,2.291,6.073v7.527
			c0,1.309,0.375,3.14,1.126,5.49C199.15,28.262,199.174,28.42,199.174,28.59z M195.32,19.644v-2.036
			c-1.284,0.824-3.25,1.333-5.891,1.527c-2.208,0.194-3.625,0.424-4.254,0.69c-1.189,0.558-1.783,1.661-1.783,3.31
			c0,1.164,0.45,2.121,1.345,2.873c0.995,0.8,2.376,1.2,4.146,1.2c2.133,0,3.77-0.764,4.909-2.291
			C194.811,23.584,195.32,21.826,195.32,19.644z"/>
		<path fill="#382963" d="M109.9,73.237c0,0.874-0.425,1.309-1.273,1.309c-0.896,0-1.345-0.434-1.345-1.309V60.11
			c0-3.515-1.551-5.273-4.655-5.273c-1.357,0-2.521,0.437-3.491,1.309c-0.969,0.873-1.453,2.051-1.453,3.528v13.563
			c0,0.874-0.437,1.309-1.311,1.309c-0.896,0-1.344-0.434-1.344-1.309V47.891c0-0.848,0.448-1.272,1.344-1.272
			c0.874,0,1.311,0.425,1.311,1.272v6.728c1.259-1.624,2.908-2.435,4.944-2.435c2.256,0,4.024,0.726,5.311,2.181
			c1.309,1.429,1.963,3.346,1.963,5.745V73.237L109.9,73.237z"/>
		<path fill="#382963" d="M132.009,73.274c0,0.364-0.132,0.667-0.397,0.909c-0.243,0.241-0.546,0.363-0.911,0.363
			c-0.63,0-1.043-0.314-1.236-0.944c-0.146-0.437-0.388-1.321-0.728-2.654c-1.6,2.398-3.94,3.599-7.018,3.599
			c-2.401,0-4.353-0.63-5.855-1.89c-1.526-1.212-2.291-2.824-2.291-4.837c0-4.193,2.728-6.4,8.183-6.619
			c2.012-0.097,3.429-0.302,4.254-0.617c0.847-0.315,1.551-0.874,2.109-1.674c0-1.479-0.437-2.533-1.31-3.163
			c-0.872-0.63-2.242-0.946-4.109-0.946c-2.642,0-4.582,1.006-5.818,3.019c-0.267,0.436-0.643,0.654-1.127,0.654
			c-0.364,0-0.679-0.133-0.946-0.399c-0.266-0.244-0.4-0.546-0.4-0.909c0-0.508,0.437-1.235,1.31-2.183
			c1.721-1.89,4.047-2.836,6.981-2.836c2.619,0,4.558,0.522,5.819,1.564c1.527,1.212,2.291,3.236,2.291,6.072v7.527
			c0,1.309,0.376,3.14,1.129,5.492C131.985,72.948,132.009,73.104,132.009,73.274z M128.155,64.327v-2.037
			c-1.285,0.825-3.249,1.334-5.89,1.528c-2.207,0.194-3.625,0.425-4.255,0.691c-1.188,0.56-1.781,1.662-1.781,3.31
			c0,1.164,0.448,2.122,1.345,2.873c0.995,0.8,2.376,1.2,4.146,1.2c2.132,0,3.769-0.764,4.909-2.291
			C127.646,68.268,128.155,66.51,128.155,64.327z"/>
		<path fill="#382963" d="M151.138,73.2c0,0.897-0.413,1.345-1.237,1.345c-0.922,0-1.383-0.448-1.383-1.345V60.619
			c0-3.878-1.637-5.819-4.908-5.819c-1.698,0-3.152,0.777-4.364,2.328c-1.068,1.381-1.601,2.763-1.601,4.146V73.2
			c0,0.897-0.448,1.345-1.345,1.345c-0.873,0-1.31-0.448-1.31-1.345V53.527c0-0.872,0.437-1.308,1.31-1.308
			c0.896,0,1.345,0.437,1.345,1.308v2.11c1.286-2.327,3.274-3.491,5.964-3.491c2.593,0,4.533,0.837,5.818,2.509
			c1.139,1.456,1.709,3.444,1.709,5.964V73.2L151.138,73.2z"/>
		<path fill="#382963" d="M171.83,73.2c0,0.873-0.425,1.31-1.273,1.31c-0.897,0-1.347-0.438-1.347-1.31v-2.29
			c-1.696,2.398-3.976,3.6-6.836,3.6c-2.667,0-4.788-1.055-6.363-3.164c-1.503-2.012-2.255-4.629-2.255-7.854
			c0-3.249,0.764-5.903,2.291-7.964c1.673-2.231,3.939-3.345,6.801-3.345c2.642,0,4.763,1.151,6.362,3.454v-7.745
			c0-0.848,0.438-1.272,1.31-1.272c0.873,0,1.31,0.425,1.31,1.272V73.2z M169.209,63.601c0-2.498-0.521-4.545-1.563-6.146
			c-1.164-1.745-2.764-2.618-4.8-2.618c-1.964,0-3.528,0.775-4.691,2.328c-1.188,1.551-1.783,3.659-1.783,6.327
			c0,2.666,0.583,4.764,1.745,6.291c1.091,1.407,2.509,2.109,4.255,2.109c2.205,0,3.928-0.823,5.164-2.473
			C168.653,67.941,169.209,66.001,169.209,63.601z"/>
		<path fill="#382963" d="M200.155,73.2c0,0.897-0.422,1.345-1.27,1.345c-0.899,0-1.346-0.448-1.346-1.345V59.564
			c0-1.357-0.4-2.496-1.2-3.419c-0.8-0.895-1.867-1.345-3.2-1.345c-1.26,0-2.291,0.45-3.091,1.345
			c-0.776,0.898-1.163,2.037-1.163,3.419V73.2c0,0.897-0.461,1.345-1.382,1.345c-0.849,0-1.273-0.448-1.273-1.345V59.564
			c0-1.332-0.413-2.461-1.236-3.382c-0.824-0.921-1.891-1.382-3.201-1.382c-1.163,0-2.169,0.45-3.018,1.345
			c-0.873,0.873-1.309,1.891-1.309,3.055v14c0,0.896-0.449,1.345-1.345,1.345c-0.874,0-1.31-0.448-1.31-1.345V53.491
			c0-0.896,0.436-1.346,1.31-1.346c0.896,0,1.345,0.45,1.345,1.346v1.055c1.019-1.601,2.46-2.401,4.327-2.401
			c1.286,0,2.473,0.342,3.565,1.019c1.066,0.679,1.818,1.503,2.254,2.472c0.437-0.944,1.212-1.768,2.328-2.472
			c1.092-0.678,2.157-1.019,3.2-1.019c2.084,0,3.793,0.765,5.127,2.292c1.261,1.431,1.89,3.14,1.89,5.127V73.2z"/>
		<path fill="#382963" d="M222.303,73.274c0,0.364-0.134,0.667-0.401,0.909c-0.242,0.241-0.545,0.363-0.909,0.363
			c-0.63,0-1.041-0.314-1.235-0.944c-0.146-0.437-0.39-1.321-0.728-2.654c-1.599,2.398-3.939,3.599-7.018,3.599
			c-2.4,0-4.353-0.63-5.855-1.89c-1.527-1.212-2.29-2.824-2.29-4.837c0-4.193,2.726-6.4,8.182-6.619
			c2.012-0.097,3.43-0.302,4.253-0.617c0.849-0.315,1.552-0.874,2.11-1.674c0-1.479-0.436-2.533-1.309-3.163
			s-2.243-0.946-4.109-0.946c-2.643,0-4.582,1.006-5.817,3.019c-0.267,0.436-0.643,0.654-1.127,0.654
			c-0.364,0-0.678-0.133-0.945-0.399c-0.267-0.244-0.401-0.546-0.401-0.909c0-0.508,0.435-1.235,1.309-2.183
			c1.722-1.89,4.049-2.836,6.982-2.836c2.619,0,4.558,0.522,5.818,1.564c1.528,1.212,2.292,3.236,2.292,6.072v7.527
			c0,1.309,0.375,3.14,1.128,5.492C222.278,72.948,222.303,73.104,222.303,73.274z M218.448,64.327v-2.037
			c-1.285,0.825-3.249,1.334-5.89,1.528c-2.207,0.194-3.625,0.425-4.256,0.691c-1.188,0.56-1.781,1.662-1.781,3.31
			c0,1.164,0.448,2.122,1.344,2.873c0.995,0.8,2.377,1.2,4.146,1.2c2.133,0,3.771-0.764,4.91-2.291
			C217.939,68.268,218.448,66.51,218.448,64.327z"/>
		<path fill="#382963" d="M242.993,73.2c0,0.873-0.423,1.31-1.273,1.31c-0.896,0-1.345-0.438-1.345-1.31v-2.29
			c-1.697,2.398-3.977,3.6-6.836,3.6c-2.667,0-4.789-1.055-6.364-3.164c-1.503-2.012-2.255-4.629-2.255-7.854
			c0-3.249,0.764-5.903,2.292-7.964c1.671-2.231,3.938-3.345,6.799-3.345c2.642,0,4.764,1.151,6.364,3.454v-7.745
			c0-0.848,0.436-1.272,1.309-1.272c0.873,0,1.31,0.425,1.31,1.272L242.993,73.2L242.993,73.2z M240.375,63.601
			c0-2.498-0.521-4.545-1.564-6.146c-1.164-1.745-2.763-2.618-4.799-2.618c-1.963,0-3.527,0.775-4.692,2.328
			c-1.188,1.551-1.782,3.659-1.782,6.327c0,2.666,0.583,4.764,1.747,6.291c1.091,1.407,2.509,2.109,4.255,2.109
			c2.205,0,3.926-0.823,5.163-2.473C239.817,67.941,240.375,66.001,240.375,63.601z"/>
		<path fill="#382963" d="M264.121,68.037c0,0.267-0.206,0.74-0.617,1.419c-1.988,3.393-4.777,5.089-8.364,5.089
			c-2.91,0-5.237-1.018-6.983-3.054c-1.697-2.035-2.545-4.703-2.545-8c0-3.249,0.837-5.927,2.509-8.037
			c1.768-2.205,4.097-3.309,6.982-3.309c2.69,0,4.886,1.007,6.583,3.019c1.479,1.724,2.218,3.649,2.218,5.783
			c0,1.988-0.983,2.982-2.946,2.982h-12.729c0.074,2.521,0.765,4.497,2.074,5.926c1.211,1.358,2.824,2.037,4.836,2.037
			c2.836,0,4.994-1.479,6.472-4.437c0.243-0.485,0.619-0.727,1.128-0.727c0.34,0,0.653,0.134,0.945,0.401
			C263.976,67.371,264.121,67.674,264.121,68.037z M261.248,60.764c0-1.405-0.521-2.702-1.563-3.892
			c-1.188-1.382-2.715-2.072-4.582-2.072c-1.868,0-3.407,0.654-4.618,1.964c-1.019,1.14-1.698,2.643-2.037,4.509h11.671
			C260.872,61.274,261.248,61.103,261.248,60.764z"/>
	</g>
</g>
</svg>
