<?xml version="1.0" encoding="utf-8"?>
<!-- Generator: Adobe Illustrator 16.0.0, SVG Export Plug-In . SVG Version: 6.00 Build 0)  -->
<!DOCTYPE svg PUBLIC "-//W3C//DTD SVG 1.1//EN" "http://www.w3.org/Graphics/SVG/1.1/DTD/svg11.dtd">
<svg version="1.1" id="圖層_1" xmlns="http://www.w3.org/2000/svg" xmlns:xlink="http://www.w3.org/1999/xlink" x="0px" y="0px"
	 width="144px" height="76px" viewBox="-0.327 -0.918 144 76" enable-background="new -0.327 -0.918 144 76" xml:space="preserve">
<g>
	<path fill="#EBE0EE" d="M60.891,28.098c-0.45-0.363-1.093-0.687-1.964-0.989l-0.107-0.024c-0.771-0.086-1.732,0.031-2.771,0.334
		c-0.53,0.103-1.049,0.445-1.578,1.039c-0.131-0.132-0.295-0.294-0.498-0.495l-0.116-0.085c-0.328-0.175-0.788-0.424-1.374-0.749
		l-0.187-0.06c-0.598-0.063-1.349,0.171-2.363,0.785c-0.088,0.07-0.262,0.185-0.594,0.343l-1.553-0.178l-0.641,0.851l0.347,0.762
		l0.528,0.367l0.722,0.349c0.019,0.007,0.139,0.057,0.631,0.35l0.282,0.167l1.448-0.967c0.141-0.017,0.383-0.063,0.857-0.177
		c0.083,0.074,0.223,0.21,0.452,0.456c0.018,0.143,0.042,0.475,0.054,1.242l-0.047,0.248c-0.092,0.798-0.362,1.69-0.803,2.65
		l-0.035,0.105c-0.286,1.356-0.761,2.785-1.413,4.246l-0.443,0.432l-0.28,0.495l-0.05,0.168c-0.064,0.56,0.02,1.021,0.251,1.371
		l0.266,1.048l0.75,0.613l0.938-0.578l0.605-1.117l0.051-0.17c0.011-0.095,0.033-0.378,0.063-0.85l0.069-0.914
		c0.025-0.217,0.219-0.901,1.23-3.048l0.042-0.132c0.227-1.394,0.615-2.703,1.175-3.944l0.097-0.155l0.024-0.207
		c0.034-0.291,0.16-0.448,0.438-0.542l0.178-0.105c0.146-0.135,0.539-0.465,1.181-0.996c0.515-0.067,1.11-0.144,1.79-0.229
		c0.052,0.017,0.163,0.062,0.361,0.174l0.174,1.07c-0.042,0.174-0.192,0.684-0.637,2.041l-0.021,0.098
		c-0.118,1.015-0.308,1.894-0.566,2.611l-0.027,0.113c-0.018,0.161-0.1,0.532-0.39,1.386l-0.023,0.103
		c-0.056,0.483-0.202,0.942-0.434,1.363l-0.067,0.122l0.043,0.972c-0.046,0.383,0.074,0.907,0.377,1.646
		c0.108,0.443,0.53,0.893,1.355,1.444l0.101,0.067l1.099,0.127l1.5-0.551l-0.35-1.175l-1.037-0.47l-0.081-0.034
		c-0.059-0.05-0.206-0.197-0.496-0.604c-0.011-0.189-0.049-0.511-0.149-1.118l0.76-2.502c0.133-1.165,0.377-1.676,0.559-1.901
		l0.09-0.112l0.017-0.144c0.019-0.16,0.104-0.623,0.474-2.006c0.079-0.71,0.221-0.867,0.218-0.867c0,0,0,0,0,0l0.209-0.126
		l0.028-0.243c0.126-1.09-0.082-2.119-0.621-3.057L60.891,28.098z"/>
	<path fill="#EBE0EE" d="M77.135,38.791l-1.272-0.459l-0.173-0.029c-0.265,0-0.424,0.09-1.285,1.144
		c-0.841,0.94-1.65,1.65-2.406,2.111c-0.245,0.059-0.542,0.179-0.9,0.365c-1.152-0.163-1.97-0.642-2.504-1.469
		c-0.286-0.422-0.604-1.364-0.5-3.43l0.03-0.265l0.396-0.017l0.518,0.091c0.096,0.015,0.523,0.11,1.332,0.291
		c1.675,0.193,3.316-0.104,4.857-0.872c1.564-0.695,2.496-1.655,2.778-2.909c0.093-0.818-0.237-1.773-1.071-2.996
		c-0.661-0.653-1.731-1.129-3.317-1.462c-1.879-0.216-3.59,0.454-5.092,1.985c-1.406,1.442-2.381,3.402-2.905,5.872
		c-0.22,1.919,0.122,3.646,1.042,5.17c0.854,1.162,2.29,1.967,4.313,2.399l0.097,0.006c0.179,0,0.515-0.048,1.602-0.392
		c0.431-0.084,1.231-0.468,3.613-2.707l0.053-0.05c0.072-0.039,0.24-0.119,0.618-0.266c0.376-0.018,0.729-0.264,1.078-0.752
		l0.075-0.105l0.015-0.129C78.184,39.403,77.688,39.072,77.135,38.791z M68.8,34.009c0.237-0.505,0.677-0.964,1.351-1.408
		c0.88-0.794,1.953-1.223,3.19-1.313c0.607,0.07,1.24,0.323,1.909,0.769c0.068,0.04,0.296,0.237,0.351,1.012
		c-0.014,0.121-0.165,0.554-1.559,1.049c-0.965,0.374-2.134,0.586-3.399,0.636c-0.078-0.009-0.337-0.067-1.044-0.405l-0.127-0.041
		c-0.011-0.003-0.117-0.034-0.48-0.231l-0.137-0.074L68.8,34.009z"/>
	<path fill="#EBE0EE" d="M100.221,31.893l-0.846-0.621l-1.114,0.47c-0.445,0.119-0.764,0.606-1.111,1.747l-0.11,0.661
		c-0.022,0.118-0.224,0.731-1.583,3.898c-0.818,2.16-1.536,3.722-2.134,4.643l-0.052,0.104c-0.006,0.016-0.012,0.031-0.017,0.046
		l-0.26-2.996c0.119-2.456-0.03-3.995-0.469-4.807l0.005-0.072l-0.149-0.169c-0.174-0.197-0.432-0.225-0.686-0.225l-0.128,0.002
		c-0.254,0-0.437,0-2.192,1.867l-0.064,0.085c-0.959,1.6-2.03,3.083-3.205,4.437c-0.495,0.657-0.866,1.092-1.14,1.378l0.142-1.236
		c0.086-0.737,0.312-2.286,0.655-4.498c0.216-1.878,0.525-3.311,0.921-4.256l0.037-0.144c0.008-0.082,0.008-0.201-0.054-1.077
		c0.07-0.591-0.562-1.042-1.188-1.404l-0.193-0.063c-0.645-0.075-1.169-0.019-1.593,0.163l-0.267,0.115l-0.033,0.289
		c-0.019,0.166,0.01,0.32,0.362,1.101l0.057,0.24l0.281,0.032c0.005,0.003,0.111,0.079,0.273,0.467
		c-0.099,0.732-0.375,1.938-0.836,3.653c-0.212,1.846-0.488,3.546-0.83,5.103c-0.116,0.994-0.122,2.08-0.019,3.228
		c-0.099,1.017,0.431,1.509,0.896,1.743l0.223,0.112l1.369-0.677l0.09-0.058c0.072-0.058,0.264-0.21,2.523-2.583
		c0.821-0.987,1.729-2.259,2.811-3.945c0.112-0.24,0.216-0.433,0.312-0.587l0.125,2.854c-0.133,3.997,0.25,4.963,0.625,5.385
		l0.714,0.695l1.107-0.834l0.155-0.052l0.023-0.214c0.026-0.066,0.203-0.412,1.374-2.09l0.058-0.11
		c0.19-0.505,1.123-2.265,2.804-5.293c0.617-1.6,1.242-3.091,1.858-4.432l0.042-0.149c0.011-0.089,0.061-0.29,0.215-0.557
		l0.357-0.395L100.221,31.893z"/>
</g>
<path fill="#EBE0EE" d="M143.309,4.752c-0.324-0.777-0.817-1.474-1.553-2.196c-1.029-0.99-2.402-1.834-3.97-2.441
	c-1.758-0.674-3.646-1.017-5.613-1.017c-3.271,0-8.312,0.989-13.754,5.7l-0.554,0.475V18.21c-1.794,0.098-3.591,0.146-5.375,0.146
	c-13.485,0.001-27.265-2.64-40.59-5.192c-13.442-2.574-27.343-5.237-41.083-5.242c-7.59,0-14.513,0.797-21.15,2.436
	c-1.885,0.414-4.229,1.879-6.12,3.824c-1.126,1.17-2.025,2.447-2.672,3.793c-0.788,1.643-1.187,3.369-1.187,5.133v43.594
	c0,0.568,0.117,1.146,0.349,1.717c0.324,0.777,0.817,1.475,1.556,2.197c1.031,0.992,2.403,1.836,3.968,2.441
	c1.741,0.67,3.629,1.01,5.613,1.01h0.017c3.262,0,8.293-0.986,13.736-5.693l0.554-0.475V54.957
	c15.204-0.822,30.866,2.154,45.963,5.045c13.444,2.574,27.346,5.236,41.087,5.242c7.606,0,14.526-0.795,21.146-2.43
	c1.885-0.412,4.229-1.877,6.123-3.822c1.126-1.172,2.024-2.447,2.669-3.793c0.789-1.639,1.189-3.367,1.189-5.135V6.466
	C143.657,5.894,143.54,5.32,143.309,4.752z M2.929,63.384c0.719-1.512,1.95-3.008,3.468-4.213c1.499-1.197,2.908-1.809,3.719-1.984
	l0,0c4.106-1.012,8.449-1.707,12.917-2.066l0.002,10.924c-4.764,3.906-9.072,4.732-11.88,4.732c-3.409,0-5.746-1.158-6.836-1.85
	c-0.752-0.475-1.388-1.029-1.795-1.563c-0.222-0.287-0.319-0.5-0.336-0.537l-0.054-0.127C2.133,65.593,2.393,64.507,2.929,63.384z
	 M10.112,13.571l0.005,0.021c6.495-1.6,13.266-2.378,20.727-2.378c13.487,0,27.267,2.64,40.594,5.19
	c13.445,2.576,27.349,5.238,41.092,5.244c7.563,0,14.46-0.79,21.086-2.414l0.1-0.021c1.877-0.426,4.203-1.885,6.084-3.818
	c0.518-0.535,0.989-1.104,1.414-1.697v36.369c0.002,1.109-0.258,2.193-0.793,3.314c-0.72,1.512-1.952,3.008-3.471,4.215
	c-1.249,0.994-2.695,1.77-3.721,1.982c-6.484,1.598-13.255,2.375-20.735,2.375c-13.485,0-27.264-2.639-40.589-5.191
	c-13.443-2.574-27.345-5.238-41.086-5.242c-7.595,0-14.518,0.795-21.15,2.432c-1.882,0.414-4.227,1.879-6.12,3.826
	c-0.515,0.533-0.987,1.102-1.414,1.699V23.105c0-1.11,0.26-2.195,0.796-3.316c0.718-1.513,1.949-3.01,3.468-4.214
	c1.509-1.206,2.929-1.817,3.718-1.983L10.112,13.571z M132.191,2.392c3.403,0,5.743,1.158,6.835,1.848
	c0.756,0.48,1.395,1.035,1.798,1.563c0.152,0.2,0.285,0.417,0.337,0.534l0.055,0.133c0,1.108-0.261,2.193-0.796,3.316
	c-0.723,1.516-1.955,3.012-3.472,4.213c-1.506,1.205-2.926,1.817-3.72,1.982c-4.154,1.025-8.386,1.702-12.916,2.064l-0.001-10.923
	c4.767-3.905,9.074-4.731,11.863-4.731H132.191z"/>
</svg>
