<?xml version="1.0" encoding="utf-8"?>
<!-- Generator: Adobe Illustrator 16.0.0, SVG Export Plug-In . SVG Version: 6.00 Build 0)  -->
<!DOCTYPE svg PUBLIC "-//W3C//DTD SVG 1.1//EN" "http://www.w3.org/Graphics/SVG/1.1/DTD/svg11.dtd">
<svg version="1.1" id="圖層_1" xmlns="http://www.w3.org/2000/svg" xmlns:xlink="http://www.w3.org/1999/xlink" x="0px" y="0px"
	 width="359.246px" height="359.244px" viewBox="0 0 359.246 359.244" enable-background="new 0 0 359.246 359.244"
	 xml:space="preserve">
<path fill="#8169AC" d="M347.411,194.152L21.459,302.804c-5.885,2.035-11.092,0.791-15.617-3.736
	c-0.566-0.565-1.303-1.527-2.207-2.886c-1.924-3.056-2.66-6.338-2.207-9.847c0.451-3.509,1.924-6.508,4.414-8.998l97.785-97.786
	L5.842,81.767c-2.49-2.49-3.963-5.488-4.414-8.998c-0.453-3.508,0.283-6.791,2.207-9.846c1.924-3.059,4.527-5.207,7.809-6.453
	c3.281-1.242,6.619-1.301,10.016-0.168l325.951,108.65c2.266,0.68,4.301,1.924,6.113,3.734c3.055,3.057,4.525,6.678,4.414,10.865
	c0.111,3.282-0.793,6.282-2.717,9C353.297,191.267,350.694,193.133,347.411,194.152z"/>
</svg>
