<?xml version="1.0" encoding="utf-8"?>
<!-- Generator: Adobe Illustrator 16.0.0, SVG Export Plug-In . SVG Version: 6.00 Build 0)  -->
<!DOCTYPE svg PUBLIC "-//W3C//DTD SVG 1.1//EN" "http://www.w3.org/Graphics/SVG/1.1/DTD/svg11.dtd">
<svg version="1.1" id="圖層_1" xmlns="http://www.w3.org/2000/svg" xmlns:xlink="http://www.w3.org/1999/xlink" x="0px" y="0px"
	 width="178.365px" height="43.729px" viewBox="0 0 178.365 43.729" enable-background="new 0 0 178.365 43.729"
	 xml:space="preserve">
<g>
	<g>
		<path fill="#382963" d="M10.649,0.104l0.468-0.031L10.649,0.104L10.649,0.104l0.468-0.031L10.649,0.104L10.649,0.104
			c0.003,0.012,0.016,0.24,0.016,0.739c0,1.248-0.09,4.191-0.702,9.634c-0.499,4.447-1.867,7.58-3.341,9.583
			c-0.37,0.502-0.742,0.933-1.111,1.296c-0.552,0.542-1.09,0.935-1.562,1.186c-0.235,0.124-0.453,0.212-0.646,0.271
			c-0.195,0.059-0.364,0.085-0.493,0.086l0,0c-0.023,0-0.05,0.002-0.07,0.002c-0.281,0-0.498-0.043-0.666-0.105
			c-0.128-0.046-0.225-0.104-0.307-0.167c-0.062-0.049-0.111-0.102-0.155-0.156c-0.064-0.082-0.114-0.177-0.147-0.279
			c-0.033-0.103-0.053-0.214-0.053-0.33c0-0.137,0.025-0.267,0.072-0.385c0.035-0.086,0.083-0.169,0.142-0.241
			c0.048-0.055,0.099-0.106,0.163-0.154c0.095-0.069,0.212-0.131,0.367-0.178c0.153-0.047,0.346-0.079,0.584-0.079
			c0.021,0,0.045,0,0.07,0l0,0c0.175,0.004,0.414,0.051,0.692,0.157c0.244,0.092,0.519,0.229,0.812,0.417
			c0.515,0.33,1.078,0.807,1.648,1.449c0.852,0.958,1.708,2.281,2.425,4.006c0.715,1.72,1.288,3.841,1.575,6.394
			c0.612,5.444,0.702,8.387,0.702,9.636c0,0.267-0.003,0.454-0.007,0.576c-0.005,0.06-0.005,0.103-0.006,0.129
			c0,0.013,0,0.021-0.003,0.027v0.004l0,0l0.323,0.023l-0.323-0.023l0,0l0.323,0.023l-0.323-0.023l0.551,0.038l-0.551-0.038l0,0
			l0.551,0.038l-0.551-0.038l0,0l0.743,0.051l-0.743-0.051l0,0l0.743,0.051l-0.743-0.051l1.536,0.106
			c0.002-0.021,0.02-0.279,0.02-0.845c0-1.321-0.095-4.32-0.711-9.808c-0.527-4.677-1.976-8.069-3.633-10.321
			c-0.827-1.127-1.707-1.97-2.558-2.545c-0.426-0.291-0.844-0.51-1.254-0.667c-0.409-0.152-0.81-0.244-1.2-0.256l0,0
			c-0.037,0-0.074,0-0.109,0c-0.44,0-0.841,0.067-1.202,0.201c-0.27,0.1-0.513,0.235-0.725,0.403
			c-0.158,0.124-0.297,0.265-0.417,0.418C0.22,20.537,0.087,20.791,0,21.055c-0.086,0.263-0.128,0.536-0.128,0.807
			c0,0.322,0.06,0.646,0.181,0.955c0.093,0.231,0.22,0.452,0.385,0.652c0.124,0.148,0.268,0.286,0.431,0.408
			c0.243,0.182,0.526,0.326,0.843,0.42c0.313,0.095,0.657,0.145,1.029,0.145c0.035,0,0.072,0,0.109-0.002l0,0
			c0.391-0.009,0.791-0.101,1.2-0.255c0.359-0.136,0.725-0.322,1.096-0.563c0.65-0.416,1.317-0.985,1.968-1.72
			c0.978-1.102,1.918-2.573,2.693-4.438c0.776-1.864,1.385-4.128,1.688-6.813c0.616-5.487,0.711-8.484,0.711-9.807
			c0-0.563-0.018-0.823-0.02-0.843L10.649,0.104z"/>
		<path fill="#382963" d="M18.084,1.046h-3.229c-0.258,0-0.499,0.129-0.641,0.347c-0.069,0.102-0.114,0.204-0.149,0.302
			c-0.049,0.145-0.074,0.287-0.09,0.428c-0.014,0.14-0.02,0.283-0.02,0.433c0,0.152,0.006,0.313,0.016,0.486
			c0.016,0.3,0.048,0.633,0.083,0.998c0.051,0.549,0.115,1.174,0.164,1.873c0.049,0.698,0.087,1.467,0.087,2.3
			c0,0.2-0.003,0.403-0.007,0.611c-0.01,0.396-0.032,0.848-0.071,1.335c-0.069,0.856-0.183,1.822-0.333,2.826
			c-0.228,1.502-0.535,3.081-0.9,4.459c-0.182,0.69-0.378,1.332-0.579,1.883c-0.102,0.277-0.202,0.532-0.308,0.758
			c-0.102,0.227-0.204,0.428-0.302,0.591c-0.11,0.186-0.201,0.371-0.264,0.563c-0.033,0.096-0.057,0.195-0.074,0.294
			c-0.018,0.101-0.026,0.201-0.026,0.301c0,0.099,0.009,0.194,0.024,0.287c0.023,0.143,0.063,0.271,0.112,0.394
			c0.049,0.119,0.106,0.229,0.164,0.333c0.146,0.248,0.305,0.58,0.458,0.97c0.135,0.342,0.271,0.727,0.403,1.146
			c0.231,0.734,0.451,1.571,0.648,2.447c0.3,1.316,0.551,2.727,0.733,4.04c0.092,0.656,0.165,1.289,0.217,1.872
			c0.055,0.585,0.087,1.12,0.097,1.579c0.004,0.208,0.007,0.413,0.007,0.613c0,1.269-0.084,2.39-0.171,3.334
			c-0.045,0.476-0.089,0.902-0.122,1.288c-0.018,0.192-0.031,0.375-0.041,0.546c-0.01,0.173-0.016,0.334-0.016,0.489
			c0,0.101,0,0.196,0.007,0.29c0.01,0.144,0.028,0.281,0.062,0.425c0.018,0.072,0.04,0.143,0.07,0.22
			c0.03,0.075,0.069,0.151,0.12,0.229c0.142,0.213,0.383,0.344,0.641,0.344h3.229c0.427,0,0.772-0.344,0.772-0.771
			c0-0.424-0.346-0.77-0.772-0.77h-3.229v0.77l0.642-0.424l-0.235,0.158l0.255-0.122c-0.001-0.008-0.008-0.021-0.02-0.036
			l-0.235,0.158l0.255-0.122l-0.112,0.055l0.118-0.043c0,0-0.001-0.003-0.006-0.011l-0.112,0.055l0.118-0.043l-0.016,0.006
			l0.016-0.006l0,0l-0.016,0.006l0.016-0.006V41.53c-0.001-0.008-0.012-0.048-0.017-0.108c-0.009-0.063-0.013-0.146-0.013-0.249
			c0-0.111,0.004-0.245,0.016-0.396c0.014-0.266,0.043-0.583,0.078-0.945c0.052-0.542,0.117-1.182,0.17-1.906
			c0.051-0.725,0.089-1.533,0.089-2.409c0-0.212-0.003-0.429-0.007-0.646c-0.01-0.439-0.039-0.929-0.082-1.45
			c-0.077-0.913-0.202-1.936-0.365-2.99c-0.246-1.583-0.58-3.24-0.971-4.713c-0.193-0.734-0.404-1.426-0.628-2.041
			c-0.112-0.309-0.226-0.599-0.346-0.865c-0.12-0.268-0.244-0.515-0.375-0.738c-0.043-0.075-0.067-0.128-0.078-0.163
			c-0.006-0.018-0.009-0.029-0.011-0.041s-0.002-0.02-0.002-0.032c0-0.01,0-0.021,0.002-0.04c0.006-0.026,0.016-0.065,0.04-0.122
			c0.021-0.055,0.057-0.125,0.107-0.212c0.204-0.346,0.391-0.742,0.568-1.182c0.152-0.385,0.302-0.802,0.441-1.246
			c0.244-0.777,0.467-1.637,0.665-2.531c0.301-1.342,0.547-2.757,0.726-4.087c0.088-0.664,0.158-1.304,0.212-1.904
			c0.051-0.602,0.084-1.156,0.096-1.653c0.004-0.22,0.007-0.438,0.007-0.646c0-1.337-0.089-2.511-0.18-3.478
			c-0.044-0.483-0.089-0.911-0.119-1.281c-0.016-0.184-0.03-0.353-0.038-0.502c-0.012-0.153-0.016-0.287-0.016-0.396
			c0-0.075,0.003-0.139,0.006-0.188c0.007-0.081,0.017-0.138,0.022-0.162c0-0.003,0.001-0.007,0.001-0.007V2.195l-0.198-0.069
			l0.173,0.115c0.02-0.028,0.025-0.046,0.025-0.046l-0.198-0.069l0.173,0.115l-0.642-0.424v0.77h3.229
			c0.427,0,0.772-0.345,0.772-0.77S18.511,1.046,18.084,1.046z"/>
	</g>
	<g>
		<path fill="#382963" d="M178.365,20.908c-0.093-0.228-0.22-0.452-0.386-0.652c-0.123-0.148-0.267-0.286-0.43-0.407
			c-0.24-0.182-0.525-0.324-0.843-0.418c-0.313-0.097-0.657-0.145-1.026-0.145c-0.037,0-0.078,0-0.113,0
			c-0.392,0.012-0.791,0.104-1.198,0.256c-0.359,0.139-0.726,0.324-1.097,0.562c-0.301,0.192-0.604,0.417-0.904,0.676
			c-0.823-0.952-1.646-2.243-2.337-3.904c-0.716-1.724-1.289-3.843-1.577-6.397c-0.609-5.442-0.701-8.387-0.701-9.634
			c0-0.266,0.005-0.456,0.008-0.576c0.002-0.062,0.004-0.104,0.004-0.13c0.004-0.014,0.004-0.021,0.004-0.027V0.104l0,0
			l-0.313-0.021l0.313,0.021l-0.48-0.031l-0.285-0.02L166.229,0c0,0.021-0.017,0.279-0.017,0.842c0,1.323,0.095,4.32,0.711,9.808
			c0.526,4.677,1.978,8.071,3.63,10.324c0.236,0.319,0.478,0.613,0.719,0.889c-0.967,1.1-1.896,2.555-2.664,4.399
			c-0.774,1.867-1.383,4.129-1.685,6.813c-0.616,5.487-0.711,8.483-0.711,9.808c0,0.565,0.017,0.824,0.017,0.845l1.076-0.075
			l0.463-0.032l0,0l0,0l0,0l0,0c-0.002-0.015-0.017-0.244-0.017-0.738c0-1.249,0.091-4.19,0.701-9.635
			c0.501-4.445,1.871-7.579,3.344-9.583c0.188-0.257,0.38-0.495,0.57-0.717c0.249,0.213,0.499,0.402,0.743,0.57
			c0.428,0.289,0.848,0.511,1.258,0.666c0.408,0.154,0.808,0.246,1.197,0.255h0.012h-0.01c0.035,0.002,0.074,0.002,0.111,0.002
			c0.437,0.002,0.842-0.069,1.198-0.202c0.271-0.099,0.515-0.235,0.724-0.401c0.16-0.125,0.301-0.267,0.42-0.42
			c0.179-0.228,0.311-0.482,0.395-0.747c0.087-0.263,0.128-0.538,0.128-0.809C178.544,21.541,178.485,21.219,178.365,20.908z
			 M176.935,22.247c-0.035,0.091-0.082,0.169-0.144,0.244c-0.044,0.055-0.097,0.106-0.162,0.153
			c-0.094,0.07-0.212,0.133-0.369,0.179c-0.153,0.047-0.346,0.078-0.579,0.078c-0.022,0-0.049-0.002-0.072-0.002
			c-0.174-0.003-0.414-0.048-0.69-0.154c-0.246-0.093-0.522-0.229-0.815-0.419c-0.201-0.129-0.414-0.284-0.629-0.463
			c0.35-0.287,0.688-0.512,0.996-0.675c0.236-0.125,0.456-0.216,0.648-0.275c0.191-0.057,0.361-0.083,0.49-0.086
			c0.023,0,0.05,0,0.072,0c0.278,0,0.497,0.043,0.666,0.106c0.125,0.045,0.225,0.103,0.305,0.167
			c0.062,0.049,0.111,0.101,0.156,0.154c0.063,0.084,0.112,0.177,0.146,0.279c0.035,0.104,0.052,0.216,0.052,0.33
			C177.006,22,176.979,22.131,176.935,22.247z"/>
		<path fill="#382963" d="M166.614,23.052c0.109-0.188,0.199-0.372,0.263-0.564c0.033-0.098,0.06-0.196,0.074-0.294
			c0.017-0.102,0.026-0.2,0.026-0.303c0-0.099-0.009-0.192-0.022-0.287c-0.024-0.14-0.065-0.271-0.113-0.392
			c-0.049-0.12-0.104-0.229-0.167-0.333c-0.146-0.25-0.3-0.58-0.455-0.97c-0.136-0.34-0.273-0.729-0.402-1.148
			c-0.23-0.734-0.451-1.571-0.647-2.447c-0.299-1.316-0.554-2.727-0.735-4.038c-0.09-0.656-0.164-1.288-0.218-1.874
			c-0.052-0.583-0.086-1.119-0.096-1.578c-0.004-0.208-0.009-0.411-0.009-0.611c0-1.27,0.088-2.39,0.176-3.336
			c0.043-0.473,0.086-0.902,0.12-1.288c0.017-0.192,0.03-0.374,0.042-0.546c0.009-0.173,0.017-0.334,0.017-0.486
			c0-0.103-0.004-0.197-0.01-0.291c-0.01-0.144-0.024-0.282-0.062-0.425c-0.021-0.069-0.041-0.145-0.07-0.22
			s-0.066-0.153-0.119-0.228c-0.141-0.216-0.387-0.347-0.643-0.347h-3.229c-0.427,0-0.772,0.347-0.772,0.771s0.347,0.77,0.772,0.77
			h2.592c-0.002,0.106-0.005,0.229-0.014,0.365c-0.017,0.263-0.045,0.581-0.078,0.943c-0.054,0.542-0.118,1.184-0.169,1.909
			c-0.051,0.723-0.09,1.531-0.09,2.408c0,0.21,0,0.427,0.006,0.646c0.01,0.438,0.039,0.927,0.081,1.449
			c0.075,0.914,0.2,1.937,0.364,2.99c0.25,1.583,0.58,3.238,0.972,4.711c0.194,0.737,0.405,1.427,0.627,2.043
			c0.112,0.307,0.228,0.597,0.347,0.863c0.121,0.27,0.244,0.515,0.375,0.74c0.045,0.073,0.066,0.128,0.079,0.163
			c0.007,0.016,0.009,0.029,0.011,0.04c0.002,0.012,0.004,0.02,0.004,0.031s-0.002,0.023-0.006,0.042
			c-0.002,0.025-0.015,0.063-0.035,0.12c-0.023,0.055-0.06,0.125-0.107,0.213c-0.207,0.344-0.395,0.74-0.57,1.181
			c-0.154,0.385-0.303,0.802-0.441,1.247c-0.245,0.78-0.467,1.636-0.666,2.531c-0.301,1.34-0.547,2.757-0.723,4.085
			c-0.091,0.664-0.16,1.306-0.216,1.904c-0.051,0.602-0.083,1.159-0.094,1.656l0,0c-0.006,0.218-0.006,0.435-0.006,0.646
			c0,1.337,0.09,2.512,0.178,3.476c0.046,0.483,0.089,0.914,0.12,1.281c0.018,0.184,0.029,0.354,0.039,0.504
			c0.009,0.135,0.012,0.257,0.014,0.363h-2.592c-0.427,0-0.771,0.345-0.771,0.77c0,0.427,0.346,0.771,0.771,0.771h3.229
			c0.258,0,0.504-0.131,0.644-0.344c0.067-0.104,0.112-0.207,0.147-0.303c0.051-0.146,0.073-0.287,0.09-0.428
			s0.022-0.283,0.022-0.433c0-0.154-0.008-0.315-0.017-0.489c-0.02-0.298-0.049-0.632-0.084-0.998
			c-0.053-0.548-0.114-1.174-0.166-1.871c-0.049-0.697-0.088-1.467-0.088-2.3c0-0.2,0.005-0.405,0.009-0.613l0,0
			c0.01-0.396,0.034-0.846,0.073-1.335c0.066-0.853,0.182-1.823,0.332-2.824c0.225-1.505,0.537-3.083,0.899-4.462
			c0.181-0.691,0.378-1.33,0.58-1.882c0.101-0.279,0.202-0.532,0.304-0.758C166.412,23.414,166.517,23.216,166.614,23.052z"/>
	</g>
</g>
<g enable-background="new    ">
	<path fill="#382963" d="M36.315,9.878h4.042c1.044,0,1.567,0.44,1.567,1.32v14.599c0,0.788-0.339,1.256-1.017,1.402
		c0.11,0.109,0.192,0.238,0.248,0.385c0.201,1.906,0.568,3.739,1.1,5.498c0.128,0.202,0.192,0.422,0.192,0.66
		c0,0.274-0.046,0.458-0.137,0.55c-0.147,0.22-0.395,0.33-0.743,0.33c-0.275,0-0.559-0.156-0.852-0.468
		c-0.44-1.265-0.807-2.694-1.1-4.289c-0.147-1.044-0.22-1.731-0.22-2.062c0-0.238,0.045-0.422,0.138-0.55h-1.925
		c0.073,0.092,0.11,0.202,0.11,0.33c0,0.146-0.028,0.32-0.083,0.522c-0.568,2.254-1.201,4.233-1.897,5.938
		c-0.183,0.237-0.394,0.357-0.632,0.357c-0.678,0-1.017-0.257-1.017-0.771c0-0.22,0.037-0.366,0.11-0.439
		c0.623-1.521,1.255-3.464,1.897-5.829c0.018-0.036,0.037-0.072,0.055-0.109c-0.843-0.055-1.265-0.541-1.265-1.457V11.198
		C34.886,10.318,35.362,9.878,36.315,9.878z M36.728,14.909h3.299v-2.722c0-0.458-0.211-0.688-0.632-0.688h-2.089
		c-0.385,0-0.577,0.229-0.577,0.688V14.909z M36.728,20.078h3.299v-3.52h-3.299V20.078z M39.395,25.577
		c0.421,0,0.632-0.248,0.632-0.743v-3.079h-3.299v3.079c0,0.495,0.192,0.743,0.577,0.743H39.395z M59.052,10.868
		c0.531,0,0.797,0.247,0.797,0.742c0,0.604-0.266,0.907-0.797,0.907h-3.629v1.402h3.107c0.495,0,0.742,0.266,0.742,0.797
		c0,0.514-0.247,0.77-0.742,0.77h-3.107v1.843h4.097c0.495,0,0.742,0.266,0.742,0.797c0,0.587-0.247,0.88-0.742,0.88h-7.286v1.842
		h4.619c1.265,0,1.897,0.596,1.897,1.787v5.829h0.88c0.586,0,0.88,0.284,0.88,0.852c0,0.605-0.293,0.907-0.88,0.907h-0.88v1.76
		c0,1.76-1.036,2.64-3.106,2.64c-0.825,0-1.806-0.156-2.942-0.468c-0.458-0.165-0.687-0.449-0.687-0.852
		c0-0.733,0.265-1.101,0.797-1.101c0.165,0,0.367,0.028,0.605,0.083c0.88,0.238,1.549,0.357,2.007,0.357
		c0.953,0,1.43-0.376,1.43-1.127v-1.293H45.965v3.63c0,0.586-0.33,0.879-0.99,0.879c-0.568,0-0.852-0.293-0.852-0.879v-3.63h-0.99
		c-0.587,0-0.88-0.302-0.88-0.907c0-0.567,0.293-0.852,0.88-0.852h0.99v-5.829c0-1.191,0.614-1.787,1.842-1.787h4.426v-1.842h-6.928
		c-0.532,0-0.797-0.293-0.797-0.88c0-0.531,0.265-0.797,0.797-0.797h3.52v-1.843h-2.75c-0.513,0-0.77-0.256-0.77-0.77
		c0-0.531,0.257-0.797,0.77-0.797h2.75v-1.402h-3.437c-0.513,0-0.77-0.303-0.77-0.907c0-0.495,0.256-0.742,0.77-0.742h3.437v-1.1
		c0-0.587,0.293-0.88,0.879-0.88c0.66,0,0.99,0.293,0.99,0.88v1.1h4.619v-0.99c0-0.659,0.32-0.989,0.962-0.989
		c0.66,0,0.99,0.33,0.99,0.989v0.99H59.052z M45.965,24.587h4.426v-2.062h-4.096c-0.22,0-0.33,0.22-0.33,0.659V24.587z
		 M45.965,28.464h4.426v-2.31h-4.426V28.464z M53.471,13.92v-1.402h-4.619v1.402H53.471z M53.471,17.329v-1.843h-4.619v1.843H53.471
		z M52.234,22.525v2.062h4.619v-1.402c0-0.439-0.137-0.659-0.412-0.659H52.234z M52.234,26.154v2.31h4.619v-2.31H52.234z"/>
	<path fill="#382963" d="M64.138,10.291c0.642,0,0.962,0.366,0.962,1.1c0,1.154-0.046,2.264-0.138,3.326h2.227V9.988
		c0-0.678,0.33-1.018,0.99-1.018c0.678,0,1.018,0.34,1.018,1.018v4.729h1.732c0.586,0,0.88,0.294,0.88,0.88
		c0,0.642-0.293,0.962-0.88,0.962h-1.732v6.434c0.476-0.293,0.98-0.632,1.512-1.017l0.468-0.11c0.641,0,0.962,0.367,0.962,1.1
		c0,0.257-0.156,0.541-0.467,0.853c-0.66,0.55-1.484,1.118-2.474,1.704v8.11c0,0.66-0.34,0.99-1.018,0.99
		c-0.66,0-0.99-0.33-0.99-0.99v-7.065c-1.155,0.587-2.264,1.055-3.327,1.402c-0.238,0.092-0.44,0.138-0.605,0.138
		c-0.678,0-1.017-0.367-1.017-1.101c0-0.55,0.266-0.916,0.797-1.1c1.502-0.494,2.731-0.989,3.684-1.484
		c0.146-0.073,0.302-0.155,0.467-0.247v-7.616h-2.419c-0.22,1.613-0.55,3.153-0.99,4.619c-0.11,0.587-0.513,0.88-1.209,0.88
		c-0.495,0-0.742-0.247-0.742-0.742c0-0.275,0.036-0.531,0.11-0.77c0.77-2.493,1.209-5.609,1.319-9.348
		C63.276,10.593,63.57,10.291,64.138,10.291z M75.025,8.888c0.66,0,0.99,0.293,0.99,0.88c-0.073,1.063-0.183,2.044-0.33,2.941h9.897
		c1.393,0,2.089,0.596,2.089,1.787c0,5.976-0.22,10.686-0.66,14.132c-0.275,2.254-0.807,3.803-1.595,4.646
		c-0.788,0.825-1.943,1.237-3.464,1.237c-0.751,0-1.787-0.22-3.106-0.659c-0.495-0.184-0.742-0.56-0.742-1.128
		c0-0.733,0.32-1.1,0.962-1.1c1.448,0.458,2.41,0.688,2.887,0.688c0.972,0,1.687-0.312,2.145-0.935
		c0.44-0.788,0.751-1.942,0.935-3.464c0.366-2.291,0.55-6.479,0.55-12.564c0-0.495-0.266-0.742-0.797-0.742h-0.88
		c-0.019,0.403-0.055,0.797-0.11,1.182c-0.257,2.364-0.843,4.803-1.76,7.313c-0.715,1.924-1.677,3.767-2.887,5.526
		c-1.209,1.722-2.731,3.391-4.564,5.003c-0.202,0.146-0.458,0.221-0.77,0.221c-0.257,0-0.495-0.11-0.715-0.33
		c-0.184-0.22-0.275-0.486-0.275-0.798s0.101-0.559,0.302-0.742c1.925-1.686,3.391-3.217,4.399-4.591
		c1.118-1.576,2.016-3.3,2.694-5.169c0.843-2.126,1.439-4.664,1.787-7.615h-2.392c-0.018,0.092-0.046,0.192-0.082,0.302
		c-0.477,2.236-1.063,4.124-1.76,5.664c-0.678,1.687-1.485,3.244-2.419,4.674c-0.788,1.209-1.705,2.281-2.75,3.217
		c-0.202,0.146-0.431,0.22-0.687,0.22c-0.257,0-0.486-0.11-0.688-0.33c-0.202-0.238-0.302-0.495-0.302-0.77
		c0-0.257,0.119-0.485,0.357-0.688c0.99-0.916,1.851-1.925,2.584-3.024c0.861-1.356,1.622-2.822,2.282-4.398
		c0.605-1.394,1.109-3.016,1.512-4.866h-2.337c-0.055,0.22-0.11,0.439-0.165,0.659c-0.605,1.87-1.384,3.437-2.337,4.701
		c-0.349,0.385-0.688,0.578-1.017,0.578c-0.807,0-1.21-0.367-1.21-1.101c0-0.109,0.11-0.302,0.33-0.577
		c1.081-1.338,1.833-2.739,2.254-4.206c0.421-1.319,0.705-2.951,0.852-4.894C74.036,9.181,74.366,8.888,75.025,8.888z"/>
	<path fill="#382963" d="M97.13,25.797c0.275,0,0.514,0.082,0.715,0.247c0.256,0.184,0.385,0.403,0.385,0.66
		c0,0.128-0.037,0.312-0.109,0.55c-0.679,1.375-1.54,2.594-2.585,3.656c-0.935,0.99-2.017,1.897-3.244,2.722
		c-0.349,0.275-0.604,0.413-0.77,0.413c-0.752,0-1.128-0.321-1.128-0.963c0-0.22,0.074-0.403,0.221-0.55
		c1.246-0.788,2.346-1.649,3.299-2.584c1.026-0.99,1.869-2.145,2.529-3.464C96.534,26.026,96.763,25.797,97.13,25.797z M96.91,9.301
		c0.274,0,0.513,0.073,0.715,0.22c0.237,0.202,0.357,0.422,0.357,0.66c0,0.146-0.037,0.339-0.11,0.577
		c-0.604,1.503-1.393,2.823-2.364,3.959c-0.862,1.082-1.86,2.063-2.997,2.942c-0.348,0.312-0.613,0.467-0.797,0.467
		c-0.733,0-1.1-0.33-1.1-0.989c0-0.202,0.072-0.395,0.22-0.578c1.155-0.843,2.172-1.777,3.052-2.804
		c0.953-1.063,1.741-2.318,2.364-3.767C96.323,9.53,96.543,9.301,96.91,9.301z M97.021,17.438c0.274,0,0.512,0.074,0.715,0.221
		c0.256,0.201,0.385,0.431,0.385,0.687c0,0.129-0.047,0.303-0.138,0.522c-0.624,1.448-1.421,2.722-2.392,3.821
		c-0.898,1.027-1.925,1.962-3.08,2.805c-0.348,0.275-0.613,0.412-0.797,0.412c-0.733,0-1.1-0.32-1.1-0.962
		c0-0.22,0.072-0.412,0.22-0.577c1.191-0.788,2.228-1.678,3.106-2.667c0.972-1.008,1.77-2.199,2.393-3.574
		C96.425,17.668,96.653,17.438,97.021,17.438z M114.616,9.988c0.641,0,0.961,0.33,0.961,0.989c0,0.66-0.32,0.99-0.961,0.99h-6.572
		l-0.687,2.31h5.581c1.117,0,1.678,0.513,1.678,1.539v12.399c0,1.118-0.561,1.678-1.678,1.678h-2.502
		c1.631,1.265,3.244,2.244,4.839,2.941c0.44,0.183,0.659,0.449,0.659,0.797c0,0.733-0.366,1.1-1.1,1.1
		c-0.256,0-1.209-0.485-2.859-1.457c-0.897-0.587-1.75-1.237-2.557-1.951c-0.274-0.313-0.412-0.578-0.412-0.798
		c0-0.293,0.073-0.504,0.221-0.632h-5.114c0.183,0.164,0.274,0.412,0.274,0.742c0,0.312-0.146,0.577-0.439,0.797
		c-1.302,1.081-3.107,2.063-5.416,2.941c-0.257,0.092-0.439,0.138-0.55,0.138c-0.715,0-1.072-0.366-1.072-1.1
		c0-0.349,0.183-0.604,0.55-0.77c2.126-0.77,3.922-1.687,5.389-2.749h-1.457c-1.082,0-1.623-0.56-1.623-1.678V15.816
		c0-1.026,0.541-1.539,1.623-1.539h3.904l0.659-2.31h-6.516c-0.66,0-0.989-0.33-0.989-0.99c0-0.659,0.329-0.989,0.989-0.989H114.616
		z M101.749,18.648h10.887v-1.952c0-0.385-0.192-0.577-0.577-0.577h-9.788c-0.348,0-0.521,0.192-0.521,0.577V18.648z
		 M101.749,23.267h10.887v-2.722h-10.887V23.267z M112.059,27.996c0.385,0,0.577-0.211,0.577-0.633v-2.199h-10.887v2.199
		c0,0.422,0.174,0.633,0.521,0.633H112.059z"/>
	<path fill="#382963" d="M125.063,14.139h-2.311c-0.037,0.146-0.064,0.274-0.082,0.385c-0.477,1.521-1.072,2.795-1.787,3.821
		c-0.348,0.349-0.688,0.522-1.018,0.522c-0.732,0-1.1-0.32-1.1-0.962c0-0.128,0.11-0.32,0.33-0.577
		c0.752-1.063,1.293-2.172,1.622-3.327c0.293-1.063,0.485-2.364,0.577-3.904c0-0.604,0.33-0.907,0.99-0.907s0.99,0.303,0.99,0.907
		c-0.037,0.752-0.102,1.448-0.193,2.09h7.671c0.659,0,0.989,0.33,0.989,0.99c0,0.642-0.33,0.962-0.989,0.962h-3.739v6.406h4.427
		c0.659,0,0.989,0.329,0.989,0.989s-0.33,0.99-0.989,0.99h-4.481c-0.037,0.422-0.082,0.843-0.138,1.265
		c0.788,1.301,1.448,2.291,1.979,2.969c0.623,0.88,1.567,1.998,2.832,3.354c0.312,0.256,0.467,0.623,0.467,1.1
		c-0.164,0.55-0.458,0.843-0.879,0.88c-0.385-0.019-0.752-0.211-1.1-0.577c-0.605-0.605-1.247-1.384-1.926-2.337
		c-0.586-0.771-1.228-1.769-1.924-2.997c-0.293,0.861-0.65,1.695-1.072,2.502c-1.027,1.979-2.465,3.729-4.316,5.251
		c-0.238,0.385-0.504,0.577-0.797,0.577c-0.77-0.037-1.174-0.366-1.21-0.989c0.019-0.202,0.138-0.431,0.357-0.688
		c2.364-2.09,3.968-4.234,4.812-6.434c0.494-1.301,0.814-2.593,0.962-3.876h-4.921c-0.66,0-0.99-0.33-0.99-0.99
		s0.33-0.989,0.99-0.989h4.977V14.139z M135.372,11.307h5.939c1.338,0,2.007,0.577,2.007,1.732v18.942
		c0,1.246-0.669,1.87-2.007,1.87h-5.939c-1.228,0-1.842-0.624-1.842-1.87V13.04C133.53,11.885,134.145,11.307,135.372,11.307z
		 M140.459,31.982c0.495,0,0.742-0.293,0.742-0.88V13.92c0-0.495-0.247-0.742-0.742-0.742h-4.179c-0.439,0-0.66,0.247-0.66,0.742
		v17.183c0,0.587,0.221,0.88,0.66,0.88H140.459z"/>
</g>
</svg>
