<?xml version="1.0" encoding="utf-8"?>
<!-- Generator: Adobe Illustrator 16.0.0, SVG Export Plug-In . SVG Version: 6.00 Build 0)  -->
<!DOCTYPE svg PUBLIC "-//W3C//DTD SVG 1.1//EN" "http://www.w3.org/Graphics/SVG/1.1/DTD/svg11.dtd">
<svg version="1.1" id="圖層_1" xmlns="http://www.w3.org/2000/svg" xmlns:xlink="http://www.w3.org/1999/xlink" x="0px" y="0px"
	 width="144.357px" height="43.727px" viewBox="0 0 144.357 43.727" enable-background="new 0 0 144.357 43.727"
	 xml:space="preserve">
<g>
	<g>
		<path fill="#382963" d="M10.65,0.105l0.468-0.032l-0.468,0.03V0.105l0.468-0.032l-0.468,0.03l0,0
			c0.002,0.011,0.017,0.24,0.017,0.738c0,1.25-0.09,4.193-0.703,9.634c-0.499,4.449-1.868,7.581-3.34,9.585
			c-0.369,0.5-0.743,0.932-1.111,1.294C4.96,21.897,4.422,22.29,3.95,22.54c-0.235,0.125-0.453,0.214-0.646,0.271
			c-0.195,0.06-0.364,0.084-0.493,0.087l0,0c-0.023,0-0.049,0.001-0.07,0.001c-0.281,0-0.497-0.043-0.666-0.105
			c-0.128-0.046-0.225-0.104-0.307-0.168c-0.061-0.048-0.111-0.101-0.155-0.156c-0.064-0.083-0.113-0.177-0.146-0.279
			c-0.034-0.102-0.053-0.213-0.053-0.329c0-0.137,0.025-0.269,0.072-0.385c0.035-0.087,0.083-0.168,0.143-0.242
			c0.047-0.055,0.098-0.105,0.163-0.152c0.094-0.071,0.212-0.134,0.368-0.181c0.152-0.047,0.345-0.078,0.583-0.079
			c0.021,0,0.045,0.001,0.07,0.001l0,0c0.175,0.006,0.415,0.051,0.693,0.156c0.243,0.093,0.518,0.23,0.811,0.418
			c0.516,0.328,1.078,0.807,1.648,1.447c0.852,0.96,1.708,2.284,2.425,4.006c0.714,1.722,1.289,3.842,1.575,6.396
			c0.613,5.442,0.703,8.385,0.703,9.636c0,0.266-0.004,0.455-0.008,0.575c-0.003,0.06-0.003,0.103-0.006,0.13
			c0,0.013,0,0.021-0.002,0.027c0,0.003,0,0.004,0,0.004v0.001l0.322,0.021l-0.322-0.021l0,0l0.322,0.021l-0.322-0.021l0.551,0.035
			l-0.551-0.036v0.001l0.551,0.035l-0.551-0.036l0,0l0.742,0.051l-0.742-0.051l0,0l0.742,0.051l-0.742-0.051l1.535,0.104
			c0.002-0.02,0.021-0.279,0.021-0.842c0-1.323-0.096-4.321-0.711-9.809c-0.526-4.678-1.977-8.069-3.633-10.322
			c-0.827-1.127-1.706-1.97-2.558-2.546c-0.426-0.289-0.844-0.511-1.254-0.665c-0.408-0.155-0.81-0.245-1.2-0.256l0,0
			c-0.037,0-0.074-0.003-0.109-0.003c-0.44,0-0.841,0.068-1.202,0.202c-0.27,0.101-0.514,0.237-0.725,0.402
			c-0.156,0.125-0.297,0.266-0.417,0.418C0.22,20.538,0.086,20.792,0,21.056c-0.086,0.263-0.127,0.536-0.127,0.807
			c0,0.322,0.058,0.646,0.18,0.954c0.093,0.231,0.221,0.452,0.386,0.653c0.124,0.149,0.268,0.287,0.431,0.408
			c0.242,0.182,0.525,0.325,0.842,0.419c0.313,0.096,0.658,0.144,1.029,0.144c0.035,0,0.072,0,0.109-0.001l0,0
			c0.392-0.01,0.792-0.1,1.2-0.255c0.359-0.136,0.725-0.322,1.096-0.561c0.65-0.417,1.318-0.988,1.967-1.722
			c0.979-1.102,1.92-2.571,2.695-4.438s1.384-4.129,1.688-6.814c0.616-5.485,0.711-8.483,0.711-9.807
			c0-0.563-0.019-0.823-0.021-0.842L10.65,0.105z"/>
		<path fill="#382963" d="M18.085,1.047h-3.23c-0.257,0-0.499,0.13-0.641,0.345c-0.068,0.104-0.114,0.205-0.149,0.302
			c-0.049,0.147-0.074,0.287-0.09,0.429c-0.014,0.14-0.021,0.281-0.021,0.432c0,0.154,0.006,0.316,0.016,0.488
			c0.016,0.3,0.047,0.632,0.082,0.999c0.051,0.548,0.116,1.174,0.166,1.871c0.049,0.697,0.086,1.468,0.086,2.301
			c0,0.2-0.002,0.403-0.005,0.612c-0.01,0.396-0.034,0.846-0.073,1.334c-0.067,0.854-0.183,1.822-0.332,2.825
			c-0.228,1.503-0.537,3.082-0.901,4.461c-0.181,0.69-0.376,1.329-0.579,1.884c-0.102,0.275-0.203,0.53-0.308,0.758
			c-0.102,0.226-0.204,0.425-0.302,0.59c-0.11,0.187-0.2,0.373-0.264,0.563c-0.033,0.097-0.057,0.194-0.074,0.296
			c-0.018,0.099-0.025,0.199-0.025,0.301c0,0.097,0.009,0.192,0.023,0.287c0.023,0.14,0.063,0.271,0.112,0.391
			c0.049,0.121,0.105,0.231,0.165,0.335c0.146,0.248,0.304,0.58,0.458,0.969c0.136,0.342,0.271,0.729,0.401,1.148
			c0.232,0.735,0.452,1.571,0.65,2.448c0.299,1.315,0.55,2.726,0.732,4.039c0.093,0.655,0.165,1.288,0.216,1.871
			c0.055,0.584,0.089,1.119,0.099,1.578c0.003,0.208,0.005,0.412,0.005,0.612c0,1.271-0.084,2.391-0.17,3.336
			c-0.045,0.475-0.088,0.903-0.122,1.288c-0.018,0.193-0.032,0.375-0.042,0.546c-0.01,0.172-0.016,0.334-0.016,0.488
			c0,0.101,0,0.197,0.008,0.291c0.01,0.142,0.026,0.281,0.061,0.424c0.019,0.072,0.04,0.145,0.071,0.22
			c0.03,0.074,0.069,0.151,0.12,0.229c0.142,0.214,0.383,0.345,0.641,0.345h3.23c0.426,0,0.771-0.345,0.771-0.77
			c0-0.426-0.346-0.771-0.771-0.771h-3.23v0.771l0.643-0.426l-0.235,0.157l0.255-0.122c-0.002-0.009-0.008-0.02-0.02-0.035
			l-0.235,0.157l0.255-0.122l-0.112,0.055l0.118-0.043c0,0-0.002-0.005-0.006-0.012l-0.112,0.055l0.118-0.043l-0.016,0.007
			l0.016-0.007l0,0l-0.016,0.007l0.016-0.007V41.53c-0.002-0.008-0.012-0.047-0.018-0.107c-0.008-0.063-0.012-0.147-0.012-0.25
			c0-0.112,0.004-0.245,0.016-0.397c0.014-0.265,0.043-0.582,0.079-0.942c0.051-0.543,0.116-1.185,0.169-1.908
			c0.051-0.726,0.088-1.533,0.088-2.411c0-0.211-0.002-0.426-0.006-0.645c-0.01-0.439-0.04-0.929-0.083-1.45
			c-0.077-0.914-0.203-1.937-0.365-2.99c-0.246-1.584-0.579-3.24-0.97-4.712c-0.195-0.736-0.405-1.425-0.629-2.042
			c-0.111-0.309-0.227-0.598-0.346-0.865s-0.242-0.516-0.375-0.74c-0.043-0.073-0.065-0.127-0.078-0.162
			c-0.006-0.018-0.008-0.029-0.01-0.042c-0.002-0.011-0.002-0.02-0.002-0.029s0-0.022,0.002-0.04
			c0.006-0.027,0.017-0.066,0.04-0.121c0.021-0.056,0.058-0.127,0.107-0.213c0.205-0.346,0.391-0.741,0.568-1.182
			c0.152-0.385,0.302-0.802,0.44-1.248c0.244-0.776,0.468-1.637,0.666-2.529c0.301-1.34,0.546-2.757,0.724-4.085
			c0.09-0.664,0.16-1.307,0.214-1.905c0.051-0.601,0.084-1.157,0.096-1.655c0.004-0.219,0.006-0.434,0.006-0.645
			c0-1.339-0.088-2.514-0.179-3.478c-0.043-0.482-0.088-0.913-0.12-1.28c-0.017-0.185-0.029-0.354-0.037-0.504
			c-0.012-0.151-0.016-0.285-0.016-0.396c0-0.073,0.002-0.136,0.006-0.189c0.006-0.079,0.016-0.136,0.021-0.158
			c0-0.005,0.002-0.01,0.002-0.012l0,0l-0.199-0.069l0.174,0.115c0.02-0.029,0.025-0.046,0.025-0.046l-0.199-0.069l0.174,0.115
			l-0.643-0.425v0.771h3.23c0.426,0,0.771-0.345,0.771-0.771C18.857,1.392,18.511,1.047,18.085,1.047z"/>
	</g>
	<g>
		<path fill="#382963" d="M144.18,20.909c-0.093-0.229-0.22-0.452-0.385-0.652c-0.124-0.149-0.269-0.287-0.43-0.408
			c-0.242-0.182-0.527-0.325-0.844-0.419c-0.313-0.096-0.657-0.145-1.026-0.145c-0.038,0-0.077,0.001-0.114,0.002
			c-0.391,0.011-0.79,0.101-1.198,0.256c-0.358,0.136-0.724,0.323-1.096,0.561c-0.3,0.191-0.604,0.416-0.905,0.674
			c-0.823-0.95-1.646-2.242-2.337-3.903c-0.715-1.724-1.288-3.843-1.577-6.397c-0.61-5.44-0.701-8.384-0.701-9.634
			c0-0.265,0.003-0.455,0.008-0.575c0.002-0.06,0.004-0.104,0.004-0.129c0.002-0.014,0.004-0.021,0.004-0.027
			c0-0.003,0-0.005,0-0.005V0.104l-0.314-0.021l0.314,0.021l-0.481-0.032l-0.287-0.02L132.045,0c0,0.02-0.019,0.278-0.019,0.842
			c0,1.324,0.095,4.321,0.711,9.807c0.526,4.679,1.979,8.07,3.632,10.324c0.235,0.319,0.476,0.616,0.717,0.89
			c-0.966,1.1-1.896,2.556-2.663,4.4c-0.776,1.866-1.383,4.129-1.686,6.814c-0.616,5.486-0.711,8.482-0.711,9.808
			c0,0.563,0.019,0.822,0.019,0.842l1.074-0.074l0.463-0.029v-0.001l0,0l0,0l0,0c-0.002-0.017-0.016-0.245-0.016-0.737
			c0-1.25,0.091-4.193,0.701-9.636c0.501-4.447,1.872-7.578,3.344-9.583c0.188-0.257,0.38-0.496,0.57-0.716
			c0.25,0.212,0.499,0.401,0.744,0.568c0.426,0.289,0.846,0.511,1.256,0.666c0.409,0.155,0.808,0.246,1.198,0.255l0.012,0.001
			l-0.01-0.001c0.035,0.001,0.074,0.001,0.112,0.001c0.436,0.001,0.84-0.066,1.196-0.201c0.271-0.101,0.516-0.236,0.726-0.402
			c0.159-0.125,0.298-0.267,0.418-0.418c0.179-0.229,0.311-0.484,0.396-0.747c0.085-0.264,0.127-0.538,0.127-0.81
			C144.358,21.542,144.302,21.218,144.18,20.909z M142.749,22.249c-0.036,0.089-0.081,0.168-0.145,0.242
			c-0.043,0.055-0.096,0.105-0.16,0.152c-0.095,0.071-0.213,0.133-0.369,0.18c-0.153,0.048-0.347,0.079-0.579,0.079
			c-0.024,0-0.049-0.001-0.073-0.001c-0.175-0.004-0.415-0.05-0.692-0.155c-0.245-0.093-0.521-0.231-0.813-0.418
			c-0.203-0.131-0.415-0.285-0.63-0.464c0.349-0.287,0.687-0.513,0.998-0.677c0.235-0.125,0.456-0.215,0.647-0.272
			c0.192-0.059,0.361-0.083,0.491-0.087c0.022,0,0.049-0.001,0.073-0.001c0.278,0.001,0.497,0.043,0.664,0.105
			c0.125,0.046,0.226,0.104,0.306,0.168c0.061,0.048,0.112,0.101,0.155,0.156c0.063,0.083,0.113,0.177,0.146,0.279
			c0.035,0.104,0.053,0.214,0.053,0.33C142.821,22,142.793,22.132,142.749,22.249z"/>
		<path fill="#382963" d="M132.428,23.051c0.11-0.187,0.201-0.372,0.264-0.564c0.034-0.096,0.06-0.194,0.074-0.294
			c0.017-0.099,0.025-0.199,0.025-0.301c0-0.098-0.008-0.193-0.021-0.287c-0.025-0.14-0.066-0.271-0.113-0.391
			c-0.05-0.121-0.107-0.23-0.167-0.334c-0.146-0.249-0.301-0.579-0.456-0.97c-0.137-0.342-0.272-0.729-0.402-1.148
			c-0.232-0.735-0.452-1.571-0.648-2.448c-0.298-1.314-0.554-2.725-0.734-4.037c-0.09-0.656-0.165-1.289-0.218-1.873
			c-0.054-0.583-0.087-1.118-0.097-1.577c-0.004-0.208-0.008-0.412-0.008-0.612c0-1.271,0.086-2.392,0.175-3.337
			c0.043-0.474,0.086-0.902,0.12-1.287c0.019-0.193,0.032-0.375,0.043-0.547c0.008-0.172,0.017-0.334,0.017-0.488
			c0-0.101-0.005-0.197-0.011-0.291c-0.01-0.143-0.025-0.281-0.061-0.424c-0.021-0.07-0.042-0.145-0.071-0.218
			c-0.03-0.075-0.066-0.152-0.12-0.229c-0.14-0.214-0.385-0.345-0.642-0.345h-3.229c-0.426,0-0.771,0.345-0.771,0.77
			c0,0.426,0.346,0.771,0.771,0.771h2.593c-0.003,0.104-0.007,0.227-0.015,0.363c-0.018,0.266-0.045,0.583-0.079,0.943
			c-0.053,0.543-0.118,1.186-0.168,1.908c-0.051,0.725-0.091,1.533-0.091,2.411c0,0.21,0,0.426,0.006,0.645
			c0.01,0.44,0.039,0.929,0.082,1.449c0.075,0.915,0.2,1.938,0.366,2.992c0.247,1.583,0.579,3.239,0.97,4.711
			c0.195,0.736,0.405,1.425,0.626,2.041c0.112,0.309,0.229,0.598,0.349,0.865c0.12,0.269,0.244,0.515,0.375,0.74
			c0.042,0.073,0.063,0.127,0.079,0.161c0.005,0.019,0.008,0.03,0.01,0.042c0.002,0.011,0.003,0.021,0.003,0.03
			s-0.001,0.023-0.005,0.041c-0.002,0.027-0.015,0.065-0.036,0.122c-0.023,0.055-0.06,0.125-0.108,0.213
			c-0.207,0.344-0.393,0.74-0.569,1.18c-0.155,0.386-0.303,0.803-0.442,1.247c-0.245,0.779-0.467,1.638-0.666,2.531
			c-0.301,1.34-0.548,2.757-0.722,4.085c-0.092,0.664-0.162,1.307-0.217,1.906c-0.051,0.6-0.083,1.158-0.094,1.655l0,0
			c-0.006,0.219-0.006,0.434-0.006,0.645c0,1.338,0.091,2.513,0.179,3.478c0.045,0.482,0.088,0.912,0.12,1.28
			c0.019,0.185,0.029,0.354,0.039,0.503c0.008,0.138,0.012,0.26,0.015,0.365h-2.593c-0.426,0-0.771,0.345-0.771,0.771
			c0,0.425,0.346,0.77,0.771,0.77h3.229c0.257,0,0.502-0.13,0.642-0.345c0.069-0.104,0.114-0.205,0.147-0.303
			c0.051-0.147,0.074-0.287,0.092-0.429c0.015-0.141,0.021-0.283,0.021-0.432c0-0.154-0.008-0.316-0.016-0.488
			c-0.02-0.3-0.049-0.632-0.084-0.998c-0.053-0.548-0.114-1.174-0.167-1.872c-0.047-0.696-0.086-1.467-0.086-2.3
			c0-0.2,0.004-0.403,0.008-0.612l0,0c0.01-0.396,0.033-0.846,0.073-1.334c0.069-0.854,0.183-1.823,0.332-2.826
			c0.226-1.504,0.538-3.081,0.901-4.46c0.18-0.69,0.377-1.33,0.578-1.883c0.102-0.276,0.203-0.53,0.306-0.757
			C132.226,23.416,132.33,23.216,132.428,23.051z"/>
	</g>
</g>
<g enable-background="new    ">
	<path fill="#382963" d="M54.811,9.08c0.733,0,1.1,0.366,1.1,1.1v1.539h10.337c0.586,0,0.88,0.294,0.88,0.88
		c0,0.679-0.293,1.018-0.88,1.018h-5.416l-1.182,3.299h4.399c1.319,0,1.979,0.651,1.979,1.952v12.867
		c0,1.925-0.926,2.887-2.777,2.887c-1.1,0-2.411-0.156-3.932-0.468c-0.458-0.165-0.688-0.449-0.688-0.852
		c0-0.733,0.266-1.101,0.797-1.101c0.238,0,0.531,0.028,0.88,0.083c1.173,0.238,2.089,0.357,2.75,0.357
		c0.66,0,0.99-0.376,0.99-1.127V19.747c0-0.586-0.266-0.88-0.797-0.88H58.11v1.979c0,0.532,0.211,0.798,0.633,0.798h3.656
		c0.568,0,0.853,0.293,0.853,0.88c0,0.568-0.285,0.852-0.853,0.852h-3.986c-1.467,0-2.2-0.732-2.2-2.199v-2.31h-3.437
		c-0.11,1.118-0.302,1.971-0.577,2.557c-0.367,0.825-0.935,1.476-1.705,1.952c-0.88,0.55-1.971,0.88-3.272,0.99h-0.357
		c-0.55-0.019-0.834-0.385-0.852-1.1c0.037-0.477,0.284-0.771,0.742-0.88c0.971-0.073,1.787-0.293,2.447-0.66
		c0.586-0.33,1.008-0.751,1.265-1.265c0.22-0.385,0.375-0.916,0.468-1.595h-4.812c-0.513,0-0.77,0.294-0.77,0.88v13.884
		c0,0.66-0.339,0.99-1.018,0.99c-0.66,0-0.99-0.33-0.99-0.99V18.867c0-1.301,0.696-1.952,2.09-1.952h4.316l-1.1-3.299h-5.416
		c-0.587,0-0.88-0.339-0.88-1.018c0-0.586,0.293-0.88,0.88-0.88h10.447V10.18C53.684,9.447,54.059,9.08,54.811,9.08z M49.863,24.697
		h9.567c0.935,0,1.402,0.449,1.402,1.347v3.959c0,0.88-0.467,1.32-1.402,1.32h-9.567c-0.88,0-1.32-0.44-1.32-1.32v-3.959
		C48.543,25.146,48.983,24.697,49.863,24.697z M58.33,29.563c0.44,0,0.66-0.221,0.66-0.66v-1.787c0-0.421-0.22-0.632-0.66-0.632
		h-7.368c-0.385,0-0.577,0.211-0.577,0.632v1.787c0,0.439,0.192,0.66,0.577,0.66H58.33z M51.842,16.915h5.718l1.155-3.299h-7.973
		L51.842,16.915z"/>
	<path fill="#382963" d="M81.534,21.315h7.67c1.118,0,1.678,0.514,1.678,1.539v9.568c0,1.081-0.56,1.622-1.678,1.622h-7.67
		c-1.118,0-1.678-0.541-1.678-1.622v-9.568C79.857,21.828,80.416,21.315,81.534,21.315z M88.132,32.201
		c0.496,0,0.743-0.293,0.743-0.879v-7.368c0-0.514-0.247-0.771-0.743-0.771h-5.498c-0.531,0-0.797,0.257-0.797,0.771v7.368
		c0,0.586,0.266,0.879,0.797,0.879H88.132z M84.724,9.768h14.928c1.266,0,1.898,0.577,1.898,1.731v5.938
		c0,1.265-0.633,1.897-1.898,1.897H84.724c-1.247,0-1.869-0.633-1.869-1.897v-5.938C82.855,10.345,83.477,9.768,84.724,9.768z
		 M98.552,17.438c0.66,0,0.99-0.366,0.99-1.1v-3.739c0-0.659-0.33-0.989-0.99-0.989H85.823c-0.66,0-0.99,0.33-0.99,0.989v3.739
		c0,0.733,0.33,1.1,0.99,1.1H98.552z M95.281,21.315h7.698c1.101,0,1.649,0.514,1.649,1.539v9.568c0,1.081-0.549,1.622-1.649,1.622
		h-7.698c-1.117,0-1.677-0.541-1.677-1.622v-9.568C93.604,21.828,94.163,21.315,95.281,21.315z M101.852,32.201
		c0.531,0,0.798-0.293,0.798-0.879v-7.368c0-0.514-0.267-0.771-0.798-0.771H96.38c-0.513,0-0.77,0.257-0.77,0.771v7.368
		c0,0.586,0.257,0.879,0.77,0.879H101.852z"/>
</g>
</svg>
