<?xml version="1.0" encoding="utf-8"?>
<!-- Generator: Adobe Illustrator 16.0.0, SVG Export Plug-In . SVG Version: 6.00 Build 0)  -->
<!DOCTYPE svg PUBLIC "-//W3C//DTD SVG 1.1//EN" "http://www.w3.org/Graphics/SVG/1.1/DTD/svg11.dtd">
<svg version="1.1" id="圖層_1" xmlns="http://www.w3.org/2000/svg" xmlns:xlink="http://www.w3.org/1999/xlink" x="0px" y="0px"
	 width="178.672px" height="43.727px" viewBox="0 0 178.672 43.727" enable-background="new 0 0 178.672 43.727"
	 xml:space="preserve">
<g>
	<g>
		<path fill="#382963" d="M10.777,0.105l0.468-0.032l-0.468,0.03V0.105l0.468-0.032l-0.468,0.03l0,0
			c0.003,0.011,0.016,0.24,0.016,0.738c0,1.25-0.09,4.193-0.703,9.634c-0.498,4.449-1.868,7.581-3.34,9.585
			c-0.37,0.5-0.742,0.932-1.111,1.294c-0.553,0.543-1.091,0.937-1.562,1.187c-0.235,0.125-0.453,0.214-0.646,0.271
			c-0.195,0.06-0.364,0.084-0.493,0.087l0,0c-0.024,0-0.05,0.001-0.072,0.001c-0.279,0-0.496-0.043-0.664-0.105
			c-0.128-0.046-0.225-0.104-0.307-0.168c-0.062-0.048-0.112-0.101-0.155-0.156c-0.065-0.083-0.114-0.177-0.147-0.279
			c-0.033-0.1-0.053-0.212-0.053-0.328c0-0.137,0.025-0.269,0.072-0.385c0.036-0.087,0.083-0.168,0.142-0.242
			c0.048-0.055,0.099-0.105,0.163-0.152c0.094-0.071,0.212-0.133,0.366-0.181c0.153-0.047,0.346-0.077,0.583-0.079
			c0.022,0,0.047,0.002,0.072,0.002l0,0c0.174,0.005,0.414,0.05,0.692,0.155c0.244,0.093,0.519,0.23,0.812,0.418
			c0.515,0.328,1.078,0.807,1.648,1.447c0.852,0.96,1.708,2.284,2.425,4.006c0.715,1.722,1.288,3.842,1.574,6.396
			c0.613,5.442,0.703,8.385,0.703,9.636c0,0.266-0.003,0.455-0.008,0.575c-0.004,0.06-0.004,0.103-0.005,0.13
			c0,0.013,0,0.021-0.003,0.027c0,0.003,0,0.004,0,0.004v0.001l0.321,0.021l-0.321-0.021l0,0l0.321,0.021l-0.321-0.021l0.551,0.035
			l-0.551-0.036v0.001l0.551,0.035l-0.551-0.036l0,0l0.743,0.051l-0.743-0.051l0,0l0.743,0.051l-0.743-0.051l1.535,0.104
			c0.003-0.02,0.021-0.279,0.021-0.842c0-1.323-0.095-4.321-0.711-9.809c-0.526-4.678-1.976-8.069-3.634-10.322
			c-0.826-1.127-1.705-1.97-2.557-2.546c-0.426-0.289-0.844-0.511-1.255-0.665c-0.408-0.155-0.809-0.245-1.199-0.256l0,0
			c-0.038,0-0.074-0.003-0.111-0.003c-0.439,0-0.84,0.068-1.201,0.202c-0.27,0.101-0.513,0.237-0.725,0.402
			c-0.157,0.125-0.297,0.266-0.416,0.418c-0.177,0.23-0.311,0.485-0.396,0.749C0.041,21.319,0,21.592,0,21.863
			c0,0.322,0.06,0.646,0.181,0.954c0.093,0.231,0.22,0.452,0.385,0.653c0.124,0.149,0.267,0.287,0.43,0.408
			c0.244,0.182,0.527,0.325,0.843,0.419c0.314,0.096,0.659,0.144,1.028,0.144c0.037,0,0.073,0,0.111-0.001l0,0
			c0.391-0.01,0.791-0.1,1.199-0.255c0.36-0.136,0.726-0.322,1.096-0.561c0.65-0.417,1.318-0.988,1.969-1.722
			c0.978-1.102,1.918-2.571,2.693-4.438c0.776-1.866,1.385-4.129,1.688-6.814c0.616-5.485,0.711-8.483,0.711-9.807
			c0-0.563-0.018-0.823-0.021-0.842L10.777,0.105z"/>
		<path fill="#382963" d="M18.212,1.047h-3.229c-0.258,0-0.499,0.13-0.641,0.345c-0.069,0.104-0.114,0.205-0.149,0.302
			c-0.049,0.147-0.074,0.287-0.09,0.429c-0.014,0.14-0.02,0.281-0.02,0.432c0,0.154,0.006,0.316,0.016,0.488
			c0.016,0.3,0.046,0.632,0.082,0.999c0.051,0.548,0.116,1.174,0.165,1.871c0.049,0.697,0.087,1.468,0.087,2.301
			c0,0.2-0.003,0.403-0.007,0.612c-0.01,0.396-0.032,0.846-0.072,1.334c-0.068,0.854-0.183,1.822-0.331,2.825
			c-0.229,1.503-0.537,3.082-0.902,4.461c-0.181,0.69-0.377,1.329-0.58,1.884c-0.1,0.275-0.202,0.53-0.306,0.758
			c-0.102,0.226-0.204,0.425-0.303,0.59c-0.109,0.187-0.199,0.373-0.263,0.563c-0.033,0.097-0.057,0.194-0.074,0.296
			c-0.019,0.099-0.025,0.199-0.025,0.301c0,0.097,0.007,0.192,0.022,0.287c0.024,0.14,0.063,0.271,0.112,0.391
			c0.05,0.121,0.105,0.231,0.165,0.335c0.146,0.248,0.305,0.58,0.458,0.969c0.135,0.342,0.271,0.729,0.402,1.148
			c0.232,0.735,0.451,1.571,0.649,2.448c0.299,1.315,0.551,2.726,0.733,4.039c0.092,0.655,0.164,1.288,0.215,1.871
			c0.057,0.584,0.089,1.119,0.099,1.578c0.004,0.208,0.007,0.412,0.007,0.612c0,1.271-0.086,2.391-0.171,3.336
			c-0.046,0.475-0.089,0.903-0.122,1.288c-0.018,0.193-0.031,0.375-0.041,0.546c-0.01,0.172-0.016,0.334-0.016,0.488
			c0,0.101,0,0.197,0.007,0.291c0.01,0.142,0.028,0.281,0.062,0.424c0.018,0.072,0.039,0.145,0.07,0.22
			c0.029,0.074,0.069,0.151,0.12,0.229c0.142,0.214,0.383,0.345,0.641,0.345h3.229c0.427,0,0.772-0.345,0.772-0.77
			c0-0.426-0.346-0.771-0.772-0.771h-3.229v0.771l0.642-0.426l-0.236,0.157l0.256-0.122c-0.001-0.009-0.007-0.02-0.02-0.035
			l-0.236,0.157l0.256-0.122l-0.112,0.055l0.118-0.043c0,0-0.002-0.005-0.006-0.012l-0.112,0.055l0.118-0.043l-0.016,0.007
			l0.016-0.007l0,0l-0.016,0.007l0.016-0.007V41.53c-0.002-0.008-0.012-0.047-0.018-0.107c-0.008-0.063-0.012-0.147-0.012-0.25
			c0-0.112,0.004-0.245,0.017-0.397c0.013-0.265,0.042-0.582,0.077-0.942c0.052-0.543,0.116-1.185,0.17-1.908
			c0.051-0.726,0.087-1.533,0.087-2.411c0-0.211-0.001-0.426-0.005-0.645c-0.01-0.439-0.04-0.929-0.082-1.45
			c-0.077-0.914-0.202-1.937-0.365-2.99c-0.246-1.584-0.58-3.24-0.971-4.712c-0.194-0.736-0.404-1.425-0.628-2.042
			c-0.112-0.309-0.227-0.598-0.346-0.865c-0.119-0.268-0.244-0.516-0.375-0.74c-0.044-0.073-0.067-0.127-0.079-0.162
			c-0.005-0.018-0.008-0.029-0.01-0.042c-0.002-0.011-0.002-0.02-0.002-0.029s0-0.022,0.002-0.04
			c0.006-0.027,0.016-0.066,0.039-0.121c0.021-0.056,0.057-0.127,0.108-0.213c0.204-0.346,0.391-0.741,0.567-1.182
			c0.153-0.385,0.303-0.802,0.441-1.248c0.243-0.776,0.468-1.637,0.666-2.529c0.301-1.34,0.547-2.757,0.725-4.085
			c0.089-0.664,0.159-1.307,0.213-1.905c0.051-0.601,0.084-1.157,0.096-1.655c0.004-0.219,0.005-0.434,0.005-0.645
			c0-1.339-0.087-2.514-0.178-3.478c-0.044-0.482-0.089-0.913-0.12-1.28c-0.016-0.185-0.029-0.354-0.036-0.504
			c-0.013-0.151-0.017-0.285-0.017-0.396c0-0.073,0.002-0.136,0.007-0.189c0.005-0.079,0.016-0.136,0.021-0.158
			c0-0.005,0.002-0.01,0.002-0.012l0,0l-0.198-0.069l0.173,0.115c0.02-0.029,0.025-0.046,0.025-0.046l-0.198-0.069l0.173,0.115
			l-0.642-0.425v0.771h3.229c0.427,0,0.772-0.345,0.772-0.771C18.984,1.392,18.639,1.047,18.212,1.047z"/>
	</g>
	<g>
		<path fill="#382963" d="M178.493,20.909c-0.093-0.229-0.22-0.452-0.386-0.652c-0.123-0.149-0.267-0.287-0.43-0.408
			c-0.242-0.182-0.527-0.325-0.843-0.419c-0.313-0.096-0.658-0.145-1.026-0.145c-0.039,0-0.078,0.001-0.113,0.002
			c-0.391,0.011-0.79,0.101-1.198,0.256c-0.36,0.136-0.726,0.323-1.097,0.561c-0.301,0.191-0.604,0.416-0.904,0.674
			c-0.823-0.95-1.646-2.242-2.338-3.903c-0.715-1.724-1.288-3.843-1.576-6.397c-0.611-5.44-0.701-8.384-0.701-9.634
			c0-0.265,0.003-0.455,0.008-0.575c0.002-0.06,0.004-0.104,0.004-0.129c0.002-0.014,0.004-0.021,0.004-0.027
			c0-0.003,0-0.005,0-0.005V0.104l-0.313-0.021l0.313,0.021l-0.48-0.032l-0.287-0.02L166.357,0c0,0.02-0.017,0.278-0.017,0.842
			c0,1.324,0.095,4.321,0.71,9.807c0.527,4.679,1.979,8.07,3.631,10.324c0.236,0.319,0.477,0.616,0.719,0.89
			c-0.967,1.1-1.896,2.556-2.664,4.4c-0.775,1.866-1.383,4.129-1.686,6.814c-0.615,5.486-0.71,8.482-0.71,9.808
			c0,0.563,0.017,0.822,0.017,0.842l1.074-0.074l0.465-0.029v-0.001l0,0l0,0l0,0c-0.004-0.017-0.017-0.245-0.017-0.737
			c0-1.25,0.091-4.193,0.701-9.636c0.5-4.447,1.871-7.578,3.344-9.583c0.189-0.257,0.38-0.496,0.57-0.716
			c0.249,0.212,0.499,0.401,0.743,0.568c0.427,0.289,0.847,0.511,1.258,0.666c0.408,0.155,0.809,0.246,1.197,0.255l0.012,0.001
			l-0.01-0.001c0.035,0.001,0.074,0.001,0.111,0.001c0.437,0.001,0.842-0.066,1.198-0.201c0.271-0.101,0.515-0.236,0.724-0.402
			c0.16-0.125,0.301-0.267,0.42-0.418c0.18-0.229,0.311-0.484,0.395-0.747c0.087-0.264,0.128-0.538,0.128-0.81
			C178.672,21.542,178.614,21.218,178.493,20.909z M177.063,22.249c-0.035,0.089-0.082,0.168-0.145,0.242
			c-0.043,0.055-0.098,0.105-0.161,0.152c-0.094,0.071-0.212,0.133-0.368,0.18c-0.154,0.048-0.347,0.079-0.58,0.079
			c-0.022,0-0.049-0.001-0.072-0.001c-0.174-0.004-0.414-0.05-0.69-0.155c-0.246-0.093-0.522-0.231-0.815-0.418
			c-0.201-0.131-0.414-0.285-0.631-0.464c0.352-0.287,0.688-0.513,0.998-0.677c0.235-0.125,0.457-0.215,0.648-0.272
			c0.191-0.059,0.361-0.083,0.49-0.087c0.023,0,0.05-0.001,0.072-0.001c0.278,0.001,0.498,0.043,0.664,0.105
			c0.127,0.046,0.227,0.104,0.307,0.168c0.062,0.048,0.111,0.101,0.154,0.156c0.065,0.083,0.114,0.177,0.147,0.279
			c0.035,0.104,0.053,0.214,0.053,0.33C177.134,22,177.105,22.132,177.063,22.249z"/>
		<path fill="#382963" d="M166.742,23.051c0.109-0.187,0.199-0.372,0.263-0.564c0.033-0.096,0.06-0.194,0.074-0.294
			c0.017-0.099,0.026-0.199,0.026-0.301c0-0.098-0.008-0.193-0.022-0.287c-0.024-0.14-0.065-0.271-0.112-0.391
			c-0.051-0.121-0.105-0.23-0.168-0.334c-0.146-0.249-0.3-0.579-0.455-0.97c-0.136-0.342-0.272-0.729-0.402-1.148
			c-0.232-0.735-0.451-1.571-0.648-2.448c-0.298-1.314-0.553-2.725-0.734-4.037c-0.09-0.656-0.164-1.289-0.217-1.873
			c-0.055-0.583-0.087-1.118-0.097-1.577c-0.004-0.208-0.008-0.412-0.008-0.612c0-1.271,0.087-2.392,0.175-3.337
			c0.043-0.474,0.086-0.902,0.119-1.287c0.018-0.193,0.031-0.375,0.044-0.547c0.007-0.172,0.017-0.334,0.017-0.488
			c0-0.101-0.005-0.197-0.011-0.291c-0.01-0.143-0.024-0.281-0.062-0.424c-0.021-0.07-0.041-0.145-0.07-0.218
			c-0.029-0.075-0.066-0.152-0.12-0.229c-0.14-0.214-0.385-0.345-0.642-0.345h-3.229c-0.427,0-0.772,0.345-0.772,0.77
			c0,0.426,0.347,0.771,0.772,0.771h2.593c-0.002,0.104-0.007,0.227-0.015,0.363c-0.019,0.266-0.045,0.583-0.079,0.943
			c-0.053,0.543-0.117,1.186-0.168,1.908c-0.051,0.725-0.09,1.533-0.09,2.411c0,0.21,0,0.426,0.005,0.645
			c0.01,0.44,0.04,0.929,0.082,1.449c0.075,0.915,0.201,1.938,0.365,2.992c0.247,1.583,0.579,3.239,0.971,4.711
			c0.195,0.736,0.404,1.425,0.627,2.041c0.112,0.309,0.228,0.598,0.347,0.865c0.121,0.269,0.244,0.515,0.375,0.74
			c0.045,0.073,0.064,0.127,0.08,0.161c0.006,0.019,0.008,0.03,0.01,0.042c0.002,0.011,0.004,0.021,0.004,0.03
			s-0.002,0.023-0.006,0.041c-0.002,0.027-0.015,0.065-0.035,0.122c-0.023,0.055-0.06,0.125-0.108,0.213
			c-0.206,0.344-0.394,0.74-0.567,1.18c-0.156,0.386-0.305,0.803-0.442,1.247c-0.246,0.779-0.468,1.638-0.666,2.531
			c-0.302,1.34-0.548,2.757-0.724,4.085c-0.09,0.664-0.16,1.307-0.215,1.906c-0.052,0.6-0.084,1.158-0.096,1.655l0,0
			c-0.005,0.219-0.005,0.434-0.005,0.645c0,1.338,0.09,2.513,0.178,3.478c0.045,0.482,0.089,0.912,0.12,1.28
			c0.018,0.185,0.029,0.354,0.039,0.503c0.008,0.138,0.012,0.26,0.014,0.365h-2.592c-0.427,0-0.771,0.345-0.771,0.771
			c0,0.425,0.346,0.77,0.771,0.77h3.229c0.258,0,0.504-0.13,0.643-0.345c0.068-0.104,0.114-0.205,0.146-0.303
			c0.052-0.147,0.076-0.287,0.093-0.429c0.017-0.141,0.022-0.283,0.022-0.432c0-0.154-0.01-0.316-0.017-0.488
			c-0.021-0.3-0.049-0.632-0.084-0.998c-0.054-0.548-0.115-1.174-0.167-1.872c-0.049-0.696-0.087-1.467-0.087-2.3
			c0-0.2,0.004-0.403,0.008-0.612l0,0c0.01-0.396,0.032-0.846,0.073-1.334c0.066-0.854,0.182-1.823,0.33-2.826
			c0.227-1.504,0.539-3.081,0.902-4.46c0.18-0.69,0.377-1.33,0.579-1.883c0.101-0.276,0.202-0.53,0.304-0.757
			C166.539,23.416,166.645,23.216,166.742,23.051z"/>
	</g>
</g>
<g enable-background="new    ">
	<path fill="#382963" d="M32.438,9.41h7.918c0.22,0,0.413,0.027,0.578,0.082c0.128-0.055,0.293-0.082,0.495-0.082
		c0.348,0.036,0.642,0.229,0.88,0.577c0.715,0.843,1.384,1.604,2.007,2.282c1.173-0.936,2.117-1.806,2.832-2.612
		c0.312-0.312,0.577-0.468,0.797-0.468c0.66,0,0.99,0.33,0.99,0.99c0,0.33-0.156,0.632-0.467,0.907
		c-0.807,0.843-1.769,1.659-2.887,2.447c0.696,0.659,1.347,1.2,1.952,1.622c1.301-0.953,2.346-1.833,3.134-2.64
		c0.312-0.293,0.578-0.44,0.797-0.44c0.66,0,0.99,0.321,0.99,0.963c0,0.33-0.156,0.623-0.467,0.88
		c-0.807,0.77-1.769,1.521-2.887,2.254c1.136,0.66,2.621,1.348,4.454,2.063c0.421,0.165,0.632,0.458,0.632,0.88
		c0,0.733-0.403,1.1-1.209,1.1c-0.184,0-0.56-0.11-1.127-0.33c-2.823-1.228-5.059-2.566-6.708-4.014
		c-1.595-1.32-2.924-2.694-3.987-4.124c-0.128,0.257-0.302,0.513-0.522,0.77c-0.972,1.191-2.411,2.475-4.316,3.849
		c-1.925,1.394-3.969,2.558-6.131,3.492c-0.422,0.238-0.807,0.357-1.155,0.357c-0.733,0-1.1-0.33-1.1-0.99
		c0-0.458,0.174-0.788,0.522-0.989c2.071-0.825,3.657-1.549,4.756-2.172c-0.642-0.587-1.192-1.035-1.649-1.348
		c-0.385-0.274-0.825-0.577-1.32-0.907c-0.22-0.238-0.33-0.495-0.33-0.77c0-0.642,0.321-0.963,0.962-0.963
		c0.183,0,0.413,0.074,0.688,0.221c0.531,0.33,1.008,0.669,1.429,1.017c0.66,0.459,1.283,0.99,1.87,1.595
		c0.037,0.037,0.064,0.073,0.083,0.11c1.026-0.66,1.952-1.356,2.777-2.09c0.935-0.77,1.402-1.282,1.402-1.539
		c0-0.128-0.074-0.192-0.22-0.192h-6.461c-0.586,0-0.879-0.303-0.879-0.907C31.558,9.703,31.851,9.41,32.438,9.41z M32.658,20.765
		h16.276c1.081,0,1.622,0.504,1.622,1.512v3.877c0,1.1-0.541,1.649-1.622,1.649h-2.31l-0.907,4.289h7.066
		c0.66,0,0.99,0.33,0.99,0.989c0,0.642-0.33,0.963-0.99,0.963H29.441c-0.66,0-0.99-0.321-0.99-0.963c0-0.659,0.33-0.989,0.99-0.989
		h6.598l-1.072-4.289h-2.31c-1.1,0-1.65-0.55-1.65-1.649v-3.877C31.008,21.269,31.558,20.765,32.658,20.765z M47.944,25.906
		c0.44,0,0.66-0.247,0.66-0.742v-1.896c0-0.422-0.22-0.633-0.66-0.633H33.647c-0.458,0-0.688,0.211-0.688,0.633v1.896
		c0,0.495,0.229,0.742,0.688,0.742H47.944z M45.634,16.806c0.586,0,0.88,0.284,0.88,0.853c0,0.659-0.293,0.989-0.88,0.989h-9.458
		c-0.605,0-0.907-0.33-0.907-0.989c0-0.568,0.302-0.853,0.907-0.853H45.634z M38.129,32.092h5.499l0.907-4.289h-7.451L38.129,32.092
		z"/>
	<path fill="#382963" d="M61.223,10.51h6.818c0.953,0,1.622,0.559,2.007,1.677c1.191,4.326,2.557,7.845,4.096,10.558
		c1.045,1.906,2.337,3.794,3.876,5.663c0.861,1.045,2.2,2.42,4.014,4.124c0.202,0.22,0.302,0.477,0.302,0.771
		c-0.037,0.622-0.367,0.952-0.99,0.989c-0.22,0-0.467-0.119-0.742-0.357c-1.87-1.613-3.345-3.125-4.426-4.536
		c-1.668-1.998-3.199-4.325-4.591-6.983c-0.624-1.283-1.201-2.657-1.732-4.124c-1.265,3.299-2.749,6.131-4.454,8.495
		c-1.833,2.731-4.252,5.187-7.258,7.368c-0.348,0.238-0.632,0.357-0.852,0.357c-0.678,0-1.018-0.366-1.018-1.1
		c0-0.293,0.193-0.55,0.578-0.77c3.464-2.566,6.048-5.242,7.753-8.028c1.375-2.053,2.786-5.021,4.234-8.907
		c0.037-0.056,0.073-0.101,0.11-0.138c-0.22-0.788-0.449-1.585-0.687-2.392c-0.092-0.44-0.303-0.66-0.632-0.66h-6.406
		c-0.66,0-0.99-0.339-0.99-1.018C60.233,10.84,60.563,10.51,61.223,10.51z"/>
	<path fill="#382963" d="M95.342,9.19c0,0.11-0.027,0.248-0.082,0.413L85.252,34.924c-0.165,0.421-0.45,0.632-0.853,0.632
		c-0.275,0-0.532-0.101-0.77-0.303c-0.202-0.183-0.303-0.422-0.303-0.715c0-0.109,0.027-0.247,0.083-0.412L93.445,8.832
		C93.592,8.411,93.885,8.2,94.324,8.2c0.275,0,0.514,0.101,0.715,0.303C95.24,8.686,95.342,8.915,95.342,9.19z"/>
	<path fill="#382963" d="M106.504,13.506c0.66,0,0.99,0.33,0.99,0.99s-0.33,0.989-0.99,0.989h-8.66
		c-0.678,0-1.018-0.329-1.018-0.989s0.34-0.99,1.018-0.99H106.504z M99.713,25.163h5.059c1.229,0,1.842,0.577,1.842,1.732v5.306
		c0,1.229-0.613,1.843-1.842,1.843h-5.059c-1.246,0-1.869-0.614-1.869-1.843v-5.306C97.844,25.74,98.467,25.163,99.713,25.163z
		 M105.652,17.438c0.567,0,0.852,0.303,0.852,0.907c0,0.66-0.284,0.99-0.852,0.99h-6.818c-0.605,0-0.908-0.33-0.908-0.99
		c0-0.604,0.303-0.907,0.908-0.907H105.652z M105.652,21.424c0.567,0,0.852,0.285,0.852,0.853c0,0.66-0.284,0.99-0.852,0.99h-6.818
		c-0.605,0-0.908-0.33-0.908-0.99c0-0.567,0.303-0.853,0.908-0.853H105.652z M105.404,9.877c0.586,0,0.88,0.294,0.88,0.88
		c0,0.642-0.294,0.962-0.88,0.962h-6.461c-0.605,0-0.907-0.32-0.907-0.962c0-0.586,0.302-0.88,0.907-0.88H105.404z M103.865,32.201
		c0.531,0,0.797-0.293,0.797-0.879v-3.52c0-0.531-0.266-0.798-0.797-0.798h-3.3c-0.495,0-0.742,0.267-0.742,0.798v3.52
		c0,0.586,0.247,0.879,0.742,0.879H103.865z M121.158,12.929c0.659,0,0.989,0.33,0.989,0.99c0,0.659-0.33,0.989-0.989,0.989H116.1
		v6.626h4.591c0.659,0,0.989,0.33,0.989,0.99c0,0.642-0.33,0.962-0.989,0.962H116.1v8.386h5.58c0.678,0,1.018,0.32,1.018,0.962
		c0,0.678-0.34,1.018-1.018,1.018h-12.977c-0.66,0-0.99-0.34-0.99-1.018c0-0.642,0.33-0.962,0.99-0.962h5.416v-8.386h-4.398
		c-0.678,0-1.018-0.32-1.018-0.962c0-0.66,0.34-0.99,1.018-0.99h4.398v-6.626h-4.838c-0.66,0-0.99-0.33-0.99-0.989
		c0-0.66,0.33-0.99,0.99-0.99h5.059c-0.605-0.715-1.238-1.402-1.897-2.062c-0.147-0.275-0.22-0.468-0.22-0.577
		c0-0.733,0.366-1.101,1.1-1.101c0.201,0,0.43,0.11,0.688,0.33c0.807,0.771,1.576,1.659,2.309,2.667
		c0.146,0.238,0.221,0.449,0.221,0.633c0,0.036,0,0.073,0,0.109H121.158z"/>
	<path fill="#382963" d="M129.516,9.657h17.156c1.246,0,1.869,0.55,1.869,1.649v9.018h0.989c0.66,0,0.989,0.33,0.989,0.99
		c0,0.715-0.329,1.072-0.989,1.072h-0.989v9.705c0,1.612-0.99,2.419-2.97,2.419c-0.679,0-1.484-0.155-2.419-0.467
		c-0.439-0.165-0.66-0.449-0.66-0.853c0-0.733,0.256-1.1,0.77-1.1c0.129,0,0.293,0.027,0.495,0.082
		c0.679,0.238,1.2,0.357,1.567,0.357c0.732,0,1.1-0.366,1.1-1.1v-9.045h-4.619v10.915c0,0.659-0.32,0.989-0.962,0.989
		c-0.66,0-0.989-0.33-0.989-0.989V22.387h-3.877v10.915c0,0.659-0.321,0.989-0.963,0.989c-0.659,0-0.989-0.33-0.989-0.989V22.387
		h-4.427v11.135c0,0.659-0.367,0.989-1.1,0.989c-0.66,0-0.989-0.33-0.989-0.989V22.387h-1.43c-0.66,0-0.989-0.357-0.989-1.072
		c0-0.66,0.329-0.99,0.989-0.99h1.43v-9.018C127.509,10.207,128.178,9.657,129.516,9.657z M129.598,20.324h4.427V11.61h-3.986
		c-0.294,0-0.44,0.266-0.44,0.797V20.324z M135.977,20.324h3.877V11.61h-3.877V20.324z M141.805,20.324h4.619v-7.918
		c0-0.531-0.174-0.797-0.522-0.797h-4.097V20.324z"/>
</g>
</svg>
