<?xml version="1.0" encoding="utf-8"?>
<!-- Generator: Adobe Illustrator 16.0.0, SVG Export Plug-In . SVG Version: 6.00 Build 0)  -->
<!DOCTYPE svg PUBLIC "-//W3C//DTD SVG 1.1//EN" "http://www.w3.org/Graphics/SVG/1.1/DTD/svg11.dtd">
<svg version="1.1" id="圖層_1" xmlns="http://www.w3.org/2000/svg" xmlns:xlink="http://www.w3.org/1999/xlink" x="0px" y="0px"
	 width="178.493px" height="43.727px" viewBox="0 0 178.493 43.727" enable-background="new 0 0 178.493 43.727"
	 xml:space="preserve">
<g>
	<g>
		<path fill="#382963" d="M10.777,0.105l0.467-0.032l-0.467,0.03V0.105l0.467-0.032l-0.467,0.03l0,0
			c0.002,0.011,0.016,0.24,0.016,0.738c0,1.25-0.09,4.193-0.703,9.634c-0.499,4.449-1.867,7.581-3.34,9.585
			c-0.369,0.5-0.742,0.932-1.112,1.294c-0.551,0.543-1.089,0.937-1.561,1.187c-0.236,0.125-0.454,0.214-0.646,0.271
			c-0.194,0.06-0.363,0.084-0.493,0.087l0,0c-0.023,0-0.048,0.001-0.07,0.001c-0.281,0-0.497-0.043-0.666-0.105
			c-0.127-0.046-0.224-0.104-0.306-0.168c-0.061-0.048-0.112-0.101-0.155-0.156c-0.064-0.083-0.114-0.177-0.147-0.279
			c-0.034-0.1-0.054-0.212-0.054-0.328c0-0.137,0.025-0.269,0.073-0.385c0.036-0.087,0.083-0.168,0.142-0.242
			c0.047-0.055,0.098-0.105,0.163-0.152c0.094-0.071,0.212-0.133,0.367-0.181c0.154-0.047,0.346-0.077,0.583-0.079
			c0.022,0,0.045,0.002,0.07,0.002l0,0c0.175,0.005,0.415,0.05,0.693,0.155c0.244,0.093,0.519,0.23,0.812,0.418
			c0.514,0.328,1.078,0.807,1.647,1.447c0.853,0.96,1.709,2.284,2.425,4.006c0.715,1.722,1.289,3.842,1.575,6.396
			c0.613,5.442,0.703,8.385,0.703,9.636c0,0.266-0.004,0.455-0.008,0.575c-0.004,0.06-0.004,0.103-0.006,0.13
			c0,0.013,0,0.021-0.002,0.027c0,0.003,0,0.004,0,0.004v0.001l0.322,0.021l-0.322-0.021l0,0l0.322,0.021l-0.322-0.021l0.55,0.035
			l-0.55-0.036v0.001l0.55,0.035l-0.55-0.036l0,0l0.742,0.051l-0.742-0.051l0,0l0.742,0.051l-0.742-0.051l1.536,0.104
			c0.002-0.02,0.02-0.279,0.02-0.842c0-1.323-0.094-4.321-0.711-9.809c-0.526-4.678-1.975-8.069-3.633-10.322
			c-0.827-1.127-1.707-1.97-2.557-2.546c-0.427-0.289-0.845-0.511-1.255-0.665c-0.408-0.155-0.809-0.245-1.2-0.256l0,0
			c-0.037,0-0.075-0.003-0.11-0.003c-0.439,0-0.841,0.068-1.202,0.202c-0.269,0.101-0.513,0.237-0.725,0.402
			c-0.157,0.125-0.296,0.266-0.417,0.418c-0.176,0.23-0.31,0.485-0.396,0.749C0.042,21.319,0,21.592,0,21.863
			c0,0.322,0.059,0.646,0.181,0.954c0.092,0.231,0.22,0.452,0.385,0.653c0.124,0.149,0.267,0.287,0.431,0.408
			c0.243,0.182,0.526,0.325,0.842,0.419c0.314,0.096,0.657,0.144,1.029,0.144c0.035,0,0.073,0,0.11-0.001l0,0
			c0.391-0.01,0.792-0.1,1.2-0.255c0.359-0.136,0.725-0.322,1.096-0.561c0.65-0.417,1.318-0.988,1.968-1.722
			c0.978-1.102,1.918-2.571,2.694-4.438s1.384-4.129,1.687-6.814c0.617-5.485,0.711-8.483,0.711-9.807
			c0-0.563-0.018-0.823-0.02-0.842L10.777,0.105z"/>
		<path fill="#382963" d="M18.212,1.047h-3.23c-0.257,0-0.499,0.13-0.64,0.345c-0.068,0.104-0.114,0.205-0.149,0.302
			c-0.049,0.147-0.075,0.287-0.09,0.429c-0.014,0.14-0.02,0.281-0.02,0.432c0,0.154,0.005,0.316,0.015,0.488
			c0.016,0.3,0.048,0.632,0.083,0.999c0.051,0.548,0.116,1.174,0.165,1.871c0.049,0.697,0.086,1.468,0.086,2.301
			c0,0.2-0.002,0.403-0.006,0.612c-0.01,0.396-0.033,0.846-0.072,1.334c-0.069,0.854-0.183,1.822-0.332,2.825
			c-0.228,1.503-0.536,3.082-0.901,4.461c-0.181,0.69-0.377,1.329-0.58,1.884c-0.1,0.275-0.202,0.53-0.306,0.758
			c-0.102,0.226-0.205,0.425-0.302,0.59c-0.11,0.187-0.2,0.373-0.263,0.563c-0.033,0.097-0.057,0.194-0.075,0.296
			c-0.018,0.099-0.025,0.199-0.025,0.301c0,0.097,0.008,0.192,0.023,0.287c0.024,0.14,0.063,0.271,0.112,0.391
			c0.048,0.121,0.105,0.231,0.165,0.335c0.145,0.248,0.305,0.58,0.458,0.969c0.136,0.342,0.271,0.729,0.403,1.148
			c0.231,0.735,0.452,1.571,0.65,2.448c0.298,1.315,0.55,2.726,0.732,4.039c0.092,0.655,0.165,1.288,0.216,1.871
			c0.055,0.584,0.088,1.119,0.098,1.578c0.004,0.208,0.006,0.412,0.006,0.612c0,1.271-0.085,2.391-0.171,3.336
			c-0.045,0.475-0.088,0.903-0.122,1.288c-0.018,0.193-0.031,0.375-0.042,0.546c-0.01,0.172-0.015,0.334-0.015,0.488
			c0,0.101,0,0.197,0.007,0.291c0.01,0.142,0.028,0.281,0.062,0.424c0.018,0.072,0.039,0.145,0.071,0.22
			c0.029,0.074,0.069,0.151,0.119,0.229c0.142,0.214,0.383,0.345,0.64,0.345h3.23c0.426,0,0.772-0.345,0.772-0.77
			c0-0.426-0.346-0.771-0.772-0.771h-3.23v0.771l0.643-0.426l-0.236,0.157l0.255-0.122c-0.002-0.009-0.008-0.02-0.02-0.035
			l-0.236,0.157l0.255-0.122l-0.112,0.055l0.118-0.043c0,0-0.002-0.005-0.006-0.012l-0.112,0.055l0.118-0.043l-0.016,0.007
			l0.016-0.007l0,0l-0.016,0.007l0.016-0.007V41.53c-0.002-0.008-0.012-0.047-0.018-0.107c-0.008-0.063-0.012-0.147-0.012-0.25
			c0-0.112,0.004-0.245,0.015-0.397c0.014-0.265,0.043-0.582,0.079-0.942c0.051-0.543,0.116-1.185,0.169-1.908
			c0.051-0.726,0.088-1.533,0.088-2.411c0-0.211-0.002-0.426-0.006-0.645c-0.01-0.439-0.039-0.929-0.082-1.45
			c-0.077-0.914-0.202-1.937-0.365-2.99c-0.246-1.584-0.58-3.24-0.97-4.712c-0.194-0.736-0.404-1.425-0.628-2.042
			c-0.112-0.309-0.226-0.598-0.346-0.865c-0.12-0.268-0.244-0.516-0.375-0.74c-0.043-0.073-0.067-0.127-0.079-0.162
			c-0.006-0.018-0.008-0.029-0.01-0.042c-0.002-0.011-0.002-0.02-0.002-0.029s0-0.022,0.002-0.04
			c0.006-0.027,0.015-0.066,0.039-0.121c0.022-0.056,0.057-0.127,0.108-0.213c0.204-0.346,0.391-0.741,0.567-1.182
			c0.153-0.385,0.302-0.802,0.442-1.248c0.244-0.776,0.467-1.637,0.666-2.529c0.3-1.34,0.545-2.757,0.724-4.085
			c0.088-0.664,0.159-1.307,0.212-1.905c0.051-0.601,0.084-1.157,0.096-1.655c0.004-0.219,0.006-0.434,0.006-0.645
			c0-1.339-0.088-2.514-0.179-3.478c-0.043-0.482-0.089-0.913-0.12-1.28c-0.016-0.185-0.03-0.354-0.038-0.504
			c-0.011-0.151-0.015-0.285-0.015-0.396c0-0.073,0.002-0.136,0.005-0.189c0.006-0.079,0.016-0.136,0.022-0.158
			c0-0.005,0.002-0.01,0.002-0.012l0,0l-0.198-0.069l0.173,0.115c0.02-0.029,0.025-0.046,0.025-0.046l-0.198-0.069l0.173,0.115
			l-0.643-0.425v0.771h3.23c0.426,0,0.772-0.345,0.772-0.771C18.984,1.392,18.638,1.047,18.212,1.047z"/>
	</g>
	<g>
		<path fill="#382963" d="M178.493,20.909c-0.092-0.229-0.22-0.452-0.385-0.652c-0.124-0.149-0.268-0.287-0.43-0.408
			c-0.242-0.182-0.526-0.325-0.842-0.419c-0.315-0.096-0.658-0.145-1.028-0.145c-0.037,0-0.076,0.001-0.114,0.002
			c-0.391,0.011-0.79,0.101-1.197,0.256c-0.359,0.136-0.726,0.323-1.097,0.561c-0.301,0.191-0.603,0.416-0.905,0.674
			c-0.822-0.95-1.646-2.242-2.336-3.903c-0.715-1.724-1.289-3.843-1.578-6.397c-0.609-5.44-0.701-8.384-0.701-9.634
			c0-0.265,0.004-0.455,0.008-0.575c0.002-0.06,0.004-0.104,0.004-0.129c0.002-0.014,0.003-0.021,0.003-0.027
			c0-0.003,0-0.005,0-0.005V0.104l-0.313-0.021l0.313,0.021l-0.479-0.032l-0.287-0.02L166.358,0c0,0.02-0.018,0.278-0.018,0.842
			c0,1.324,0.094,4.321,0.711,9.807c0.527,4.679,1.978,8.07,3.631,10.324c0.234,0.319,0.475,0.616,0.717,0.89
			c-0.966,1.1-1.895,2.556-2.663,4.4c-0.774,1.866-1.382,4.129-1.685,6.814c-0.617,5.486-0.711,8.482-0.711,9.808
			c0,0.563,0.018,0.822,0.018,0.842l1.075-0.074l0.463-0.029v-0.001l0,0l0,0l0,0c-0.001-0.017-0.015-0.245-0.015-0.737
			c0-1.25,0.09-4.193,0.701-9.636c0.5-4.447,1.871-7.578,3.344-9.583c0.189-0.257,0.379-0.496,0.57-0.716
			c0.25,0.212,0.498,0.401,0.744,0.568c0.426,0.289,0.846,0.511,1.256,0.666c0.408,0.155,0.808,0.246,1.198,0.255l0.013,0.001
			l-0.011-0.001c0.036,0.001,0.074,0.001,0.111,0.001c0.437,0.001,0.841-0.066,1.198-0.201c0.271-0.101,0.514-0.236,0.725-0.402
			c0.159-0.125,0.298-0.267,0.418-0.418c0.178-0.229,0.311-0.484,0.395-0.747c0.086-0.264,0.129-0.538,0.129-0.81
			C178.672,21.542,178.616,21.218,178.493,20.909z M177.062,22.249c-0.035,0.089-0.081,0.168-0.144,0.242
			c-0.043,0.055-0.096,0.105-0.162,0.152c-0.094,0.071-0.211,0.133-0.369,0.18c-0.153,0.048-0.346,0.079-0.58,0.079
			c-0.023,0-0.049-0.001-0.072-0.001c-0.175-0.004-0.415-0.05-0.691-0.155c-0.246-0.093-0.521-0.231-0.813-0.418
			c-0.203-0.131-0.415-0.285-0.631-0.464c0.351-0.287,0.688-0.513,0.998-0.677c0.235-0.125,0.456-0.215,0.647-0.272
			c0.192-0.059,0.361-0.083,0.491-0.087c0.024,0,0.05-0.001,0.072-0.001c0.28,0.001,0.498,0.043,0.664,0.105
			c0.125,0.046,0.226,0.104,0.306,0.168c0.061,0.048,0.112,0.101,0.155,0.156c0.063,0.083,0.114,0.177,0.147,0.279
			c0.035,0.104,0.053,0.214,0.053,0.33C177.133,22,177.106,22.132,177.062,22.249z"/>
		<path fill="#382963" d="M166.741,23.051c0.11-0.187,0.201-0.372,0.264-0.564c0.035-0.096,0.06-0.194,0.074-0.294
			c0.017-0.099,0.026-0.199,0.026-0.301c0-0.098-0.008-0.193-0.021-0.287c-0.025-0.14-0.067-0.271-0.114-0.391
			c-0.05-0.121-0.106-0.23-0.167-0.334c-0.145-0.249-0.301-0.579-0.455-0.97c-0.137-0.342-0.273-0.729-0.403-1.148
			c-0.231-0.735-0.452-1.571-0.647-2.448c-0.297-1.314-0.553-2.725-0.734-4.037c-0.09-0.656-0.165-1.289-0.218-1.873
			c-0.054-0.583-0.087-1.118-0.097-1.577c-0.002-0.208-0.008-0.412-0.008-0.612c0-1.271,0.086-2.392,0.176-3.337
			c0.043-0.474,0.086-0.902,0.119-1.287c0.019-0.193,0.032-0.375,0.043-0.547c0.008-0.172,0.017-0.334,0.017-0.488
			c0-0.101-0.005-0.197-0.011-0.291c-0.01-0.143-0.024-0.281-0.061-0.424c-0.02-0.07-0.041-0.145-0.07-0.218
			c-0.029-0.075-0.066-0.152-0.119-0.229c-0.14-0.214-0.385-0.345-0.643-0.345h-3.229c-0.426,0-0.772,0.345-0.772,0.77
			c0,0.426,0.347,0.771,0.772,0.771h2.592c-0.002,0.104-0.006,0.227-0.014,0.363c-0.019,0.266-0.045,0.583-0.08,0.943
			c-0.053,0.543-0.117,1.186-0.168,1.908c-0.051,0.725-0.09,1.533-0.09,2.411c0,0.21,0,0.426,0.006,0.645
			c0.01,0.44,0.039,0.929,0.082,1.449c0.076,0.915,0.201,1.938,0.365,2.992c0.248,1.583,0.58,3.239,0.971,4.711
			c0.194,0.736,0.406,1.425,0.627,2.041c0.111,0.309,0.228,0.598,0.348,0.865c0.12,0.269,0.244,0.515,0.376,0.74
			c0.042,0.073,0.063,0.127,0.078,0.161c0.006,0.019,0.008,0.03,0.01,0.042c0.002,0.011,0.004,0.021,0.004,0.03
			s-0.002,0.023-0.006,0.041c-0.001,0.027-0.013,0.065-0.035,0.122c-0.022,0.055-0.059,0.125-0.108,0.213
			c-0.205,0.344-0.393,0.74-0.569,1.18c-0.154,0.386-0.302,0.803-0.442,1.247c-0.244,0.779-0.467,1.638-0.664,2.531
			c-0.302,1.34-0.549,2.757-0.724,4.085c-0.091,0.664-0.161,1.307-0.216,1.906c-0.051,0.6-0.083,1.158-0.096,1.655l0,0
			c-0.006,0.219-0.006,0.434-0.006,0.645c0,1.338,0.092,2.513,0.18,3.478c0.045,0.482,0.088,0.912,0.119,1.28
			c0.019,0.185,0.031,0.354,0.041,0.503c0.008,0.138,0.011,0.26,0.014,0.365h-2.592c-0.426,0-0.772,0.345-0.772,0.771
			c0,0.425,0.347,0.77,0.772,0.77h3.229c0.258,0,0.504-0.13,0.643-0.345c0.068-0.104,0.113-0.205,0.146-0.303
			c0.051-0.147,0.074-0.287,0.094-0.429c0.014-0.141,0.021-0.283,0.021-0.432c0-0.154-0.009-0.316-0.017-0.488
			c-0.02-0.3-0.049-0.632-0.084-0.998c-0.054-0.548-0.115-1.174-0.168-1.872c-0.047-0.696-0.086-1.467-0.086-2.3
			c0-0.2,0.004-0.403,0.008-0.612l0,0c0.01-0.396,0.035-0.846,0.072-1.334c0.069-0.854,0.184-1.823,0.333-2.826
			c0.226-1.504,0.538-3.081,0.901-4.46c0.181-0.69,0.377-1.33,0.58-1.883c0.101-0.276,0.201-0.53,0.304-0.757
			C166.54,23.416,166.644,23.216,166.741,23.051z"/>
	</g>
</g>
<g enable-background="new    ">
	<path fill="#382963" d="M36.439,21.315h7.67c1.118,0,1.677,0.514,1.677,1.539v9.568c0,1.081-0.56,1.622-1.677,1.622h-7.67
		c-1.118,0-1.677-0.541-1.677-1.622v-9.568C34.762,21.828,35.321,21.315,36.439,21.315z M43.038,32.201
		c0.495,0,0.743-0.293,0.743-0.879v-7.368c0-0.514-0.248-0.771-0.743-0.771h-5.499c-0.532,0-0.797,0.257-0.797,0.771v7.368
		c0,0.586,0.266,0.879,0.797,0.879H43.038z M39.628,9.768h14.929c1.265,0,1.897,0.577,1.897,1.731v5.938
		c0,1.265-0.632,1.897-1.897,1.897H39.628c-1.247,0-1.869-0.633-1.869-1.897v-5.938C37.759,10.345,38.382,9.768,39.628,9.768z
		 M53.458,17.438c0.66,0,0.99-0.366,0.99-1.1v-3.739c0-0.659-0.33-0.989-0.99-0.989H40.729c-0.66,0-0.99,0.33-0.99,0.989v3.739
		c0,0.733,0.33,1.1,0.99,1.1H53.458z M50.186,21.315h7.698c1.1,0,1.65,0.514,1.65,1.539v9.568c0,1.081-0.55,1.622-1.65,1.622h-7.698
		c-1.118,0-1.677-0.541-1.677-1.622v-9.568C48.509,21.828,49.068,21.315,50.186,21.315z M56.757,32.201
		c0.531,0,0.797-0.293,0.797-0.879v-7.368c0-0.514-0.266-0.771-0.797-0.771h-5.471c-0.513,0-0.77,0.257-0.77,0.771v7.368
		c0,0.586,0.257,0.879,0.77,0.879H56.757z"/>
	<path fill="#382963" d="M65.995,23.954v0.329c0,2.017-0.175,3.904-0.522,5.664c-0.33,1.521-0.77,2.85-1.32,3.986
		c-0.257,0.385-0.513,0.577-0.77,0.577c-0.697-0.037-1.063-0.366-1.1-0.989c0-0.165,0.064-0.357,0.192-0.577
		c0.678-1.559,1.136-3.162,1.375-4.812c0.201-1.283,0.302-2.566,0.302-3.85V10.619c0-0.641,0.284-0.962,0.853-0.962
		c0.66,0,0.99,0.321,0.99,0.962v6.517h2.419V9.988c0-0.605,0.303-0.907,0.908-0.907c0.66,0,0.99,0.302,0.99,0.907v7.148h0.742
		c0.586,0,0.88,0.293,0.88,0.88c0,0.567-0.293,0.852-0.88,0.852h-5.059v3.3h3.216c1.466,0,2.2,0.705,2.2,2.116v9.238
		c0,0.659-0.33,0.989-0.99,0.989c-0.605,0-0.907-0.33-0.907-0.989v-8.688c0-0.586-0.293-0.879-0.88-0.879H65.995z M87.687,28.215
		c0.568,0,0.852,0.294,0.852,0.88c0,0.679-0.284,1.018-0.852,1.018h-4.619v3.519c0,0.66-0.33,0.99-0.99,0.99
		c-0.66,0-0.99-0.33-0.99-0.99v-3.519H72.62c-0.587,0-0.88-0.339-0.88-1.018c0-0.586,0.293-0.88,0.88-0.88h8.468v-3.052
		c0-0.659,0.33-0.989,0.99-0.989c0.66,0,0.99,0.33,0.99,0.989v3.052H87.687z M79.769,8.778c0.256,0,0.476,0.092,0.66,0.275
		c0.22,0.201,0.33,0.439,0.33,0.715c0,0.274-0.083,0.522-0.248,0.742c-0.128,0.293-0.266,0.559-0.413,0.797h5.169
		c1.375,0,2.062,0.66,2.062,1.979v7.891c0,1.394-0.688,2.09-2.062,2.09h-5.141c-0.349,0.861-0.944,1.649-1.787,2.364
		c-0.825,0.715-1.979,1.384-3.464,2.007c-0.33,0.11-0.541,0.165-0.632,0.165c-0.66,0-0.99-0.366-0.99-1.1
		c0-0.44,0.192-0.742,0.578-0.907c1.375-0.513,2.382-1.045,3.024-1.595c0.367-0.275,0.669-0.587,0.907-0.935h-3.189
		c-1.375,0-2.062-0.696-2.062-2.09v-7.891c0-1.319,0.688-1.979,2.062-1.979h3.052c0.091-0.128,0.183-0.256,0.275-0.385
		c0.366-0.55,0.696-1.127,0.99-1.732C79.09,8.915,79.383,8.778,79.769,8.778z M74.462,16.118h4.206v-2.941H75.26
		c-0.532,0-0.797,0.247-0.797,0.742V16.118z M78.586,21.424c0.055-0.311,0.082-0.604,0.082-0.879v-2.64h-4.206v2.64
		c0,0.586,0.265,0.879,0.797,0.879H78.586z M84.607,21.424c0.513,0,0.77-0.293,0.77-0.879v-2.64h-4.729v2.64
		c0,0.293-0.019,0.586-0.055,0.879H84.607z M80.648,13.177v2.941h4.729v-2.199c0-0.495-0.257-0.742-0.77-0.742H80.648z"/>
	<path fill="#382963" d="M102.092,13.039c0.587,0,0.881,0.293,0.881,0.88c0,0.659-0.294,0.989-0.881,0.989h-4.096v4.839h2.09
		c1.264,0,1.896,0.596,1.896,1.787v9.897c0,1.173-0.633,1.76-1.896,1.76h-6.461c-1.266,0-1.897-0.587-1.897-1.76v-9.897
		c0-1.191,0.632-1.787,1.897-1.787h2.309v-4.839h-4.206c-0.587,0-0.88-0.33-0.88-0.989c0-0.587,0.293-0.88,0.88-0.88h4.206V9.768
		c0-0.66,0.32-0.99,0.963-0.99c0.732,0,1.1,0.33,1.1,0.99v3.271H102.092z M99.206,31.432c0.514,0,0.77-0.303,0.77-0.907v-8.138
		c0-0.568-0.256-0.853-0.77-0.853h-4.729c-0.494,0-0.742,0.284-0.742,0.853v8.138c0,0.604,0.248,0.907,0.742,0.907H99.206z
		 M106.381,8.97c0.715,0,1.072,0.34,1.072,1.018c-0.055,1.1-0.129,2.117-0.22,3.052h8.056c0.586,0,0.879,0.293,0.879,0.88
		c0,0.659-0.293,0.989-0.879,0.989h-1.21c-0.019,1.137-0.155,2.604-0.412,4.399c-0.294,2.053-0.743,4.014-1.347,5.883
		c-0.478,1.155-0.99,2.182-1.54,3.08c0.586,0.788,1.301,1.539,2.144,2.254c0.679,0.66,1.568,1.329,2.668,2.007
		c0.531,0.184,0.797,0.513,0.797,0.99c0,0.732-0.367,1.1-1.1,1.1c-0.092,0-0.229-0.046-0.412-0.138
		c-1.449-0.935-2.604-1.824-3.465-2.667c-0.678-0.568-1.283-1.182-1.814-1.842c-0.164,0.22-0.34,0.422-0.521,0.604
		c-1.43,1.54-3.053,2.813-4.867,3.822c-0.312,0.146-0.541,0.22-0.688,0.22c-0.807,0-1.209-0.367-1.209-1.1
		c0-0.33,0.137-0.596,0.412-0.798c2.107-1.209,3.767-2.52,4.977-3.932c0.201-0.22,0.394-0.457,0.577-0.715
		c-0.568-0.916-1.091-2.062-1.567-3.437c-0.531-1.393-0.962-2.887-1.292-4.481c-0.22,0.478-0.449,0.936-0.688,1.375
		c-0.349,0.349-0.687,0.522-1.017,0.522c-0.734,0-1.1-0.33-1.1-0.99c0-0.109,0.118-0.283,0.357-0.521
		c0.824-1.576,1.41-3.198,1.759-4.866c0.33-1.54,0.55-3.438,0.66-5.691C105.392,9.31,105.721,8.97,106.381,8.97z M106.272,17.795
		c0.385,0.056,0.641,0.267,0.77,0.633c0.458,2.328,0.953,4.225,1.484,5.69c0.293,0.752,0.605,1.458,0.936,2.117
		c0.421-0.732,0.787-1.521,1.1-2.364c0.787-2.181,1.291-5.169,1.512-8.963h-5.086c-0.074,0.459-0.156,0.89-0.248,1.292
		C106.611,16.75,106.455,17.282,106.272,17.795z"/>
	<path fill="#382963" d="M142.893,10.977c0.567,0,0.852,0.285,0.852,0.853c0,0.587-0.284,0.88-0.852,0.88h-10.338v1.319h7.258
		c1.173,0,1.76,0.522,1.76,1.567v1.952c0,1.118-0.587,1.677-1.76,1.677h-7.258v1.54h7.67c1.338,0,2.008,0.623,2.008,1.869v1.649h1.1
		c0.586,0,0.879,0.294,0.879,0.88c0,0.587-0.293,0.88-0.879,0.88h-1.1v1.76c0,1.246-0.67,1.869-2.008,1.869h-7.67v2.42
		c0,1.612-0.963,2.419-2.887,2.419c-1.027,0-2.41-0.192-4.152-0.577c-0.531-0.165-0.797-0.495-0.797-0.989
		c0.037-0.679,0.34-1.036,0.908-1.072c0.127,0,0.338,0.027,0.632,0.082c1.649,0.312,2.712,0.468,3.188,0.468
		c0.678,0,1.018-0.33,1.018-0.99v-1.76h-8.468c-0.604,0-0.907-0.293-0.907-0.88c0-0.586,0.303-0.879,0.907-0.879h8.468v-1.87
		h-10.667c-0.604,0-0.907-0.293-0.907-0.88c0-0.586,0.303-0.88,0.907-0.88h10.667v-1.759h-8.578c-0.586,0-0.879-0.293-0.879-0.88
		s0.293-0.88,0.879-0.88h8.578v-1.54h-7.148c-1.191,0-1.787-0.559-1.787-1.677v-1.952c0-1.045,0.596-1.567,1.787-1.567h7.148v-1.319
		H120.1c-0.586,0-0.879-0.293-0.879-0.88c0-0.567,0.293-0.853,0.879-0.853h10.365V9.988c0-0.678,0.33-1.018,0.99-1.018
		c0.732,0,1.1,0.34,1.1,1.018v0.989H142.893z M130.465,17.548v-1.842h-6.488c-0.313,0-0.467,0.174-0.467,0.522v0.687
		c0,0.422,0.154,0.633,0.467,0.633H130.465z M139.125,17.548c0.313,0,0.468-0.211,0.468-0.633v-0.687
		c0-0.349-0.155-0.522-0.468-0.522h-6.57v1.842H139.125z M132.555,22.525v1.759h7.67v-1.017c0-0.495-0.211-0.742-0.632-0.742
		H132.555z M132.555,26.043v1.87h7.038c0.421,0,0.632-0.266,0.632-0.798v-1.072H132.555z"/>
</g>
</svg>
