<?xml version="1.0" encoding="utf-8"?>
<!-- Generator: Adobe Illustrator 16.0.0, SVG Export Plug-In . SVG Version: 6.00 Build 0)  -->
<!DOCTYPE svg PUBLIC "-//W3C//DTD SVG 1.1//EN" "http://www.w3.org/Graphics/SVG/1.1/DTD/svg11.dtd">
<svg version="1.1" id="圖層_1" xmlns="http://www.w3.org/2000/svg" xmlns:xlink="http://www.w3.org/1999/xlink" x="0px" y="0px"
	 width="50px" height="50px" viewBox="0 0 50 50" enable-background="new 0 0 50 50" xml:space="preserve">
<path fill="#35275E" d="M40.244,42.367L7.634,9.756c-0.586-0.586-0.586-1.535,0-2.121s1.535-0.586,2.121,0l32.61,32.61
	c0.586,0.585,0.586,1.536,0,2.122S40.83,42.951,40.244,42.367z"/>
<path fill="#35275E" d="M42.365,9.755L9.755,42.366c-0.586,0.586-1.536,0.585-2.121,0c-0.586-0.586-0.586-1.536,0-2.122l32.61-32.61
	c0.586-0.585,1.536-0.586,2.121,0C42.951,8.22,42.951,9.17,42.365,9.755z"/>
</svg>
