<?xml version="1.0" encoding="utf-8"?>
<!-- Generator: Adobe Illustrator 16.0.0, SVG Export Plug-In . SVG Version: 6.00 Build 0)  -->
<!DOCTYPE svg PUBLIC "-//W3C//DTD SVG 1.1//EN" "http://www.w3.org/Graphics/SVG/1.1/DTD/svg11.dtd">
<svg version="1.1" id="圖層_1" xmlns="http://www.w3.org/2000/svg" xmlns:xlink="http://www.w3.org/1999/xlink" x="0px" y="0px"
	 width="400px" height="396.039px" viewBox="0 0 400 396.039" enable-background="new 0 0 400 396.039" xml:space="preserve">
<g>
	<path fill="#8169AC" d="M400,97.953c-3.208-26.125-23.583-33.5-45.18-33.402c-14.401,0.014-217.896,0.004-217.896,0.004
		c-30.331,0-60.671,0.004-91.002,0.016C25.511,64.58,2.366,70.902,0,102.578c0,26,0,191.627,0,191.627
		c1.619,6.598,4.362,14.438,8.959,20.499c8.905,11.738,21.544,16.767,36.907,16.767h0.067c12.686-0.015,276.301-0.01,308.502-0.017
		c24.355,0.748,44.605-10.752,45.563-35.229C400,232.328,400,119.787,400,97.953z M379.943,113.717H20.81
		c-1.921-14.336,5.101-25.84,17.758-28.836c2.194-0.521,4.623-0.594,6.918-0.594c103.231-0.031,206.462-0.041,309.691-0.015
		c8.13,0.002,14.787,2.736,19.255,7.906C378.99,97.453,380.928,105.063,379.943,113.717z M379.673,134.029v29.146H21.14v-29.146
		H379.673z M20.671,183.352h359.497c0,0,0.01,79.342-0.008,103.103c-0.012,15.835-9.391,25.292-25.086,25.297
		c-103.105,0.021-206.21,0.018-309.315,0c-15.517-0.003-25.164-9.66-25.177-25.203C20.559,258.047,20.624,184.191,20.671,183.352z
		 M45.866,329.924L45.866,329.924v0.002V329.924z"/>
	<path fill="#8169AC" d="M303.747,281.463c4.134,0.438,19.308,0.51,22.629,0.215c15.043-1.559,23.718-12.131,23.853-26.504
		c0.047-5.188,0.084-10.715-0.019-16.256c-0.252-13.476-9.794-24.199-22.688-25.502c-7.494-0.756-15.582-0.748-23.771,0.021
		c-10.983,1.033-20.226,9.813-21.974,20.873c-0.475,2.996-0.496,20.42-0.403,22.662C281.909,269.85,291.318,280.15,303.747,281.463z
		 M307.57,262.273c-4.188-0.188-6.641-2.69-6.735-6.869c-0.133-5.858-0.128-11.139,0.013-16.141
		c0.111-3.959,2.623-6.492,6.555-6.607c5.246-0.155,10.783-0.159,16.517-0.014c4.011,0.104,6.433,2.34,6.644,6.139
		c0.313,5.609,0.32,11.396,0.021,17.197c-0.202,3.908-2.66,6.148-6.921,6.308C321.824,262.352,308.471,262.314,307.57,262.273z"/>
	<path fill="#8169AC" d="M160.822,262.615c-1.486-0.28-97.12-0.293-97.12-0.293c-10.789,0.002-13.114,5.296-13.165,9.734
		c0.687,8.533,8.191,9.961,12.975,9.963c0,0,95.815-0.014,97.517-0.356c4.696-0.949,7.762-4.634,7.808-9.386
		C168.881,267.332,165.735,263.539,160.822,262.615z"/>
	<path fill="#8169AC" d="M59.975,248.961c0.473,0.035,99.486,0.033,100.23-0.06c5.371-0.666,8.989-5.086,8.603-10.514
		c-0.39-5.455-4.449-8.854-10.598-8.875c-7.222-0.023-92.004-0.025-98.024,0.053c-5.47,0.07-9.62,4.189-9.653,9.582
		C50.501,244.338,54.56,248.559,59.975,248.961z"/>
</g>
</svg>
