<?xml version="1.0" encoding="utf-8"?>
<!-- Generator: Adobe Illustrator 16.0.0, SVG Export Plug-In . SVG Version: 6.00 Build 0)  -->
<!DOCTYPE svg PUBLIC "-//W3C//DTD SVG 1.1//EN" "http://www.w3.org/Graphics/SVG/1.1/DTD/svg11.dtd">
<svg version="1.1" id="圖層_1" xmlns="http://www.w3.org/2000/svg" xmlns:xlink="http://www.w3.org/1999/xlink" x="0px" y="0px"
	 width="400px" height="399.49px" viewBox="0 0 400 399.49" enable-background="new 0 0 400 399.49" xml:space="preserve">
<path fill="#8169AC" d="M399.723,124.572c0,10.674,0.43,31.267-1.035,38.099c-2.859,9.913-9.242,16.068-18.518,20.488
	c-3.083,1.47-3.965,3.056-3.958,6.362c0.112,57.651,0.11,115.303,0.065,172.954c-0.017,21.641-14.934,36.945-36.324,36.963
	c-93.439,0.079-186.878,0.093-280.316-0.115c-13.372-0.226-35.334,0.589-36.34-37.237c-0.002-57.781-0.018-115.563,0.055-173.346
	c0.003-2.665-0.647-4.11-3.242-5.231c-5.406-1.923-17.608-10.547-19.438-25.535c-0.628-8.031-1.017-30.237-0.188-35.229
	c2.595-15.64,14.414-27.544,30.111-28.732c14.625-1.108,48.908-0.678,51.872-0.678c-1.015-1.746-1.672-2.971-2.415-4.142
	c-18.634-29.41-7.528-68.575,24.008-83.508c6.01-2.847,17.529-6.638,34.987-5.364c13.984,1.771,25.173,8.451,34.001,19.298
	c10.362,13.107,23.864,46.752,26.695,53.667c0.823-1.874,12.051-28.282,17.903-39.982c6.852-13.697,16.621-24.847,31.574-30.217
	c4.223-1.517,15.288-3.958,29.311-2.771c38.535,5.988,60.521,45.653,44.979,81.305c-1.689,3.875-3.938,7.507-6.173,11.714
	c1.582,0,31.918-0.04,45.843,0.013C377.823,93.977,398.321,98.125,399.723,124.572z M152.652,376.047c0-63.256,0-126.029,0-188.803
	c-35.375,0-70.463,0-105.928,0c0,1.313-0.004,117.868,0.005,175.005c0.001,9.37,4.473,13.786,13.931,13.793
	C81.614,376.054,142.759,376.047,152.652,376.047z M246.934,187.244c0,63.051,0,125.825,0,188.803
	c1.565,0,62.192,0.002,91.217-0.001c10.529-0.002,14.713-4.145,14.713-14.579c0.003-56.615,0.001-172.64,0.001-174.223
	C317.398,187.244,282.311,187.244,246.934,187.244z M176.646,116.931c0,86.534,0,172.724,0,258.927c15.585,0,30.889,0,46.368,0
	c0-86.378,0-172.566,0-258.927C207.497,116.931,192.193,116.931,176.646,116.931z M152.764,163.831
	c0-15.727,0.062-31.896,0.062-47.281c-0.653-0.089-78.827,0.188-117.45,0.255c-7.147,0.013-11.936,4.918-12.048,12.082
	c-0.115,7.409-0.093,14.823-0.013,22.235c0.083,7.64,4.832,12.465,12.464,12.475C74.143,163.645,151.993,163.895,152.764,163.831z
	 M246.818,163.525c0.607,0.126,78.873,0.123,117.627,0.044c6.904-0.015,11.677-4.967,11.809-11.914
	c0.131-6.891,0.044-13.784,0.036-20.679c-0.011-9.909-4.323-14.21-14.274-14.212c-37.063-0.007-113.72-0.002-115.17-0.002
	C246.846,132.437,246.818,147.931,246.818,163.525z M181.803,93.334c0.035-0.624,0.14-0.919,0.05-1.129
	c-6.875-16.12-13.341-32.433-20.804-48.277c-5.095-10.817-12.965-18.871-25.965-20.656c-23.118-3.173-43.313,16.348-40.241,39.387
	c2.397,17.981,16.766,30.454,35.569,30.647c13.532,0.141,27.066,0.027,40.599,0.028C174.616,93.334,178.22,93.334,181.803,93.334z
	 M217.17,93.159c18.864,0,37.066,0.03,55.268-0.042c2.054-0.009,4.16-0.409,6.148-0.96c26.114-7.246,35.128-37.303,17.264-57.677
	c-12.834-14.639-41.535-17.082-54.082,3.842C231.46,55.507,225.212,74.362,217.17,93.159z"/>
</svg>
