<?xml version="1.0" encoding="utf-8"?>
<!-- Generator: Adobe Illustrator 16.0.0, SVG Export Plug-In . SVG Version: 6.00 Build 0)  -->
<!DOCTYPE svg PUBLIC "-//W3C//DTD SVG 1.1//EN" "http://www.w3.org/Graphics/SVG/1.1/DTD/svg11.dtd">
<svg version="1.1" id="圖層_1" xmlns="http://www.w3.org/2000/svg" xmlns:xlink="http://www.w3.org/1999/xlink" x="0px" y="0px"
	 width="400px" height="399.977px" viewBox="0 0 400 399.977" enable-background="new 0 0 400 399.977" xml:space="preserve">
<g>
	<path fill="#8169AC" d="M391.361,102.316c-8.123-11.82-21.461-18.878-35.678-18.878c-11.107,0-21.774,4.254-30.037,11.978
		c-6.063,5.669-25.752,26.256-25.752,26.256s0.084-48.204,0.023-61.57c-0.057-12.967-7.35-22.527-19.51-25.574
		c-2.702-0.676-38.84-0.804-45.559-0.896c-1.379-0.021-3.281-0.988-3.769-1.918c-5.047-9.644-13.25-14.583-24.377-14.688
		c-8.335-0.078-16.872-0.078-24.528,0.024l-0.185,0.001c-2.337,0-3.608-0.641-4.856-2.449c-4.871-10.1-14.967-15.331-27.901-14.519
		c-10.542-0.244-19.041,4.75-23.302,10.989c-3.895,5.705-8.659,6.269-14.712,6.029c-7.728-0.304-15.186-0.19-22.175,0.339
		c-8.639,0.654-15.417,5.342-19.603,13.559c-1.076,2.109-2.153,2.787-4.436,2.787l-0.141-0.001
		c-4.63-0.054-35.743-0.208-38.732-0.208c-18.489,0-25.771,11.813-26.103,21.693c-0.184,2.572-0.012,323.407-0.012,323.407
		C0,385.951,8.8,398.992,21.339,400.021c0,0,251.035-0.12,257.165,0.03c8.921-0.56,22.213-6.893,21.316-27.828
		c0.203-40.285,0.149-79.665,0.066-123.278c-0.005-2.602,0.692-4.311,2.486-6.095c9.605-9.553,19.339-19.298,28.753-28.722
		c15.356-15.375,31.235-31.273,46.99-46.771c9.957-9.793,19.091-19.762,21.481-34.063
		C399.598,133.296,402.326,116.856,391.361,102.316z M357.068,161.921l-36.883-36.797c2.086-1.965,15.918-15.694,21.396-19.707
		c3.97-2.908,16.306-11.754,33.317,4.17c9.138,10.274,9.539,24.771,0.955,34.468C371.857,148.569,358.96,160.152,357.068,161.921z
		 M344.165,174.873L228.898,290.135c-7.414-16.52-19.638-28.67-36.349-36.133l115.339-115.338L344.165,174.873z M17.529,62.851
		c0-9.209,2.353-11.593,11.444-11.595l37.539-0.001c-0.006,0.848-0.151,6.317,0.059,8.163c0.609,5.357,3.648,8.096,9.29,8.371
		c0.518,0.023,73.972,0.021,73.972,0.021l70.446-0.001c10.834,0,13.193-2.346,13.289-13.212c0.007-0.76-0.014-2.982,0.002-3.266
		c0.154-0.018,29.535-0.105,39.455-0.06c6.255,0.029,9.308,2.962,9.334,8.97c0.103,22.799,0.092,47.75-0.03,76.279
		c-0.005,1.222-0.877,2.739-1.737,3.606c-15.427,15.573-29.203,29.339-42.119,42.085c-1.699,1.423-8.272,1.007-8.947,1.007
		c-23.487-0.006-46.97-0.008-70.458-0.008l-48.374-0.001c-3.144,0.101-10.625,0.344-10.98,8.68c-0.07,7.235,6.803,8.999,10.54,8.865
		c0.336,0,109.661-0.017,109.661-0.017c-0.19,0.209-35.448,35.597-46.038,46.323c-1.815,1.838-3.658,2.588-6.446,2.588h-0.001
		c-10.698-0.06-57.61-0.056-57.61-0.056c-4.662,0-10.055,2.991-10.046,9.372c0.599,6.514,6.377,7.973,10.753,8.044
		c6.907,0.097,53.083,0.113,53.083,0.113s-9.754,38.794-11.481,46.224c-0.487,2.096-1.209,2.671-3.451,2.671c0,0-0.001,0-0.002,0
		c-5.311-0.041-36.979-0.041-36.979-0.041c-9.71,0.008-11.875,4.714-11.979,8.66c0.453,6.711,5.805,8.171,11.806,8.658
		c0,0,22.319,0.31,25.087,0.456c14.305,0.747,28.852-1.04,44.651-5.507c7.65-2.162,36.083-9.119,42.527-10.867
		c3.361-0.912,6.777-2.834,9.138-5.146c15.152-14.831,49.486-49.046,49.486-49.046l-0.002,107.771
		c-0.001,9.188-2.37,11.564-11.522,11.564H29.193c-9.375,0-11.664-2.318-11.664-11.812C17.527,268.091,17.527,165.471,17.529,62.851
		z M170.355,312.74l11.083-44.199c16.258,6.055,27.093,16.895,33.099,33.116L170.355,312.74z M85.157,39.38
		c2.08-3.861,6.573-4.998,12.954-4.741c2.598,0.104,26.372,0.1,26.372,0.1c5.346,0,8.806-2.19,10.889-6.896
		c2.792-6.308,7.805-9.666,14.498-9.71H150c6.711,0,11.781,3.411,14.66,9.866c2.049,4.592,5.447,6.73,10.696,6.73l0.184-0.001
		c7.695-0.068,29.563-0.021,29.563-0.021c8.434,0.012,10.748,2.364,10.76,10.945v4.443H84.351
		C84.332,50.043,83.725,42.04,85.157,39.38z"/>
	<path fill="#8169AC" d="M111.504,134.357c0,0,112.887-0.001,143.545-0.019c1.833-0.001,10.756-0.108,11.518-8.616
		c0.029-8.947-9.94-9.033-12.284-9.037c-14.011-0.021-132.045-0.022-142.768-0.019c-7.602,0.003-11.79,3.142-11.795,8.839
		C100.009,133.075,107.777,134.356,111.504,134.357z"/>
	<path fill="#8169AC" d="M58.576,150.885c16.072,0.313,25.54-10.917,25.42-25.263c0.043-6.683-2.6-13.045-7.44-17.917
		c-6.956-7.555-18.028-7.571-18.028-7.571c-13.829,0.058-25.131,11.394-25.192,25.269c-0.03,6.785,2.608,13.188,7.428,18.028
		C45.548,148.238,51.749,150.936,58.576,150.885z M66.281,125.482c-0.24,7.958-7.682,7.752-7.682,7.752
		c-1.996,0-4.171-0.778-5.665-2.309c-1.475-1.512-2.118-3.604-2.07-5.564c0.1-4.037,3.875-7.666,7.737-7.579
		C61.45,117.83,66.396,119.856,66.281,125.482z"/>
	<path fill="#8169AC" d="M58.554,299.451c-7.778,0.361-12.984,2.638-17.764,7.425c-4.819,4.826-7.466,11.215-7.455,17.986
		c0.023,13.861,12.602,25.576,25.123,25.336c20.387,0.125,25.658-17.065,25.538-25.416
		C83.903,310.938,73.249,299.722,58.554,299.451z M66.282,324.695c0.062,4.25-2.734,7.96-7.693,7.842
		c-2.248-0.063-3.956-0.857-5.438-2.354c-1.471-1.485-2.304-3.458-2.286-5.414c0.037-4.076,3.137-7.658,7.712-7.687
		C62.818,317.207,66.22,320.497,66.282,324.695z"/>
	<path fill="#8169AC" d="M58.907,166.578c-13.522-0.415-25.29,11.159-25.561,24.892c-0.273,13.827,10.761,25.376,24.596,25.744
		c13.726,0.28,25.536-10.877,26.041-24.775c0.234-6.447-2.155-12.688-6.728-17.571C72.513,169.802,65.825,166.781,58.907,166.578z
		 M58.669,184.28c4.25,0.025,7.597,3.374,7.619,7.624c0.021,4.209-2.365,7.789-7.684,7.801c-1.963,0-4.205-0.783-5.709-2.323
		c-1.495-1.529-2.074-3.623-2.029-5.569c0.094-4.152,3.575-7.532,7.759-7.532H58.669z"/>
	<path fill="#8169AC" d="M58.568,283.778h0.084c6.626,0,13.193-2.81,18.018-7.71c4.765-4.84,7.439-11.339,7.337-17.832
		c-0.055-12.846-8.407-24.604-25.735-25.131c-14.218,0.445-25.029,11.603-24.938,25.432
		C33.425,272.406,44.745,283.73,58.568,283.778z M66.292,258.355c0.114,3.901-2.44,7.764-7.657,7.696
		c-2.233-0.023-4.105-0.872-5.588-2.392c-1.461-1.496-2.239-3.423-2.191-5.423c0.098-4.053,3.683-7.563,7.754-7.608
		C63.426,250.67,66.279,254.206,66.292,258.355z"/>
</g>
</svg>
