<?xml version="1.0" encoding="utf-8"?>
<!-- Generator: Adobe Illustrator 16.0.0, SVG Export Plug-In . SVG Version: 6.00 Build 0)  -->
<!DOCTYPE svg PUBLIC "-//W3C//DTD SVG 1.1//EN" "http://www.w3.org/Graphics/SVG/1.1/DTD/svg11.dtd">
<svg version="1.1" id="圖層_1" xmlns="http://www.w3.org/2000/svg" xmlns:xlink="http://www.w3.org/1999/xlink" x="0px" y="0px"
	 width="1000px" height="182.984px" viewBox="100 18.298 1000 182.984" enable-background="new 100 18.298 1000 182.984"
	 xml:space="preserve">
<path fill="#8169AC" d="M357.63,112.309l-56.475,18.825c-1.02,0.354-1.921,0.138-2.706-0.647c-0.098-0.098-0.224-0.266-0.383-0.501
	c-0.332-0.529-0.46-1.099-0.381-1.707c0.078-0.607,0.333-1.126,0.764-1.559l16.942-16.94L298.45,92.838
	c-0.43-0.431-0.687-0.951-0.764-1.559c-0.08-0.608,0.047-1.176,0.381-1.707c0.333-0.531,0.786-0.902,1.353-1.115
	c0.568-0.219,1.148-0.229,1.735-0.031l56.474,18.825c0.393,0.118,0.743,0.33,1.06,0.646c0.53,0.528,0.782,1.156,0.765,1.885
	c0.019,0.566-0.139,1.086-0.471,1.559C358.651,111.809,358.2,112.131,357.63,112.309z"/>
<path fill="#8169AC" d="M632.565,112.309l-56.476,18.825c-1.022,0.354-1.922,0.138-2.705-0.647
	c-0.099-0.098-0.227-0.266-0.386-0.501c-0.33-0.529-0.46-1.099-0.382-1.707c0.079-0.607,0.333-1.126,0.767-1.559l16.94-16.94
	l-16.94-16.941c-0.432-0.431-0.688-0.951-0.767-1.559c-0.078-0.608,0.05-1.176,0.382-1.707c0.334-0.531,0.787-0.902,1.354-1.115
	c0.568-0.219,1.146-0.229,1.736-0.031l56.476,18.825c0.39,0.118,0.74,0.33,1.056,0.646c0.531,0.528,0.784,1.156,0.764,1.885
	c0.021,0.566-0.137,1.086-0.468,1.559C633.583,111.809,633.133,112.131,632.565,112.309z"/>
<path fill="#8169AC" d="M912.491,112.309l-56.471,18.825c-1.021,0.354-1.925,0.138-2.707-0.647
	c-0.098-0.098-0.225-0.266-0.382-0.501c-0.334-0.529-0.461-1.099-0.383-1.707c0.078-0.607,0.333-1.126,0.765-1.559l16.941-16.94
	l-16.941-16.941c-0.43-0.431-0.687-0.951-0.765-1.559c-0.078-0.608,0.047-1.176,0.383-1.707c0.332-0.531,0.783-0.902,1.353-1.115
	c0.568-0.219,1.148-0.229,1.736-0.031l56.471,18.825c0.394,0.118,0.744,0.33,1.062,0.646c0.53,0.528,0.783,1.156,0.764,1.885
	c0.021,0.566-0.136,1.086-0.47,1.559C913.513,111.809,913.064,112.131,912.491,112.309z"/>
<g>
	<path fill="#8169AC" d="M834.48,65.575c-1.417-11.543-10.419-14.802-19.962-14.757c-6.363,0.005-96.281,0.002-96.281,0.002
		c-13.402,0-26.811,0.001-40.211,0.007c-9.02,0.002-19.244,2.798-20.29,16.793c0,11.488,0,84.673,0,84.673
		c0.716,2.916,1.927,6.382,3.958,9.057c3.934,5.188,9.521,7.411,16.309,7.411h0.03c5.604-0.008,122.085-0.003,136.315-0.01
		c10.76,0.333,19.712-4.748,20.129-15.566C834.48,124.949,834.48,75.223,834.48,65.575z M825.62,72.542H666.932
		c-0.85-6.334,2.253-11.419,7.847-12.744c0.967-0.229,2.041-0.259,3.056-0.259c45.613-0.017,91.229-0.019,136.841-0.009
		c3.594,0,6.534,1.208,8.508,3.495C825.197,65.355,826.056,68.715,825.62,72.542z M825.5,81.516v12.879H667.077V81.516H825.5z
		 M666.87,103.31h158.851c0,0,0.005,35.06-0.005,45.558c-0.008,6.997-4.149,11.177-11.086,11.178
		c-45.56,0.011-91.117,0.01-136.675,0c-6.858,0-11.122-4.27-11.124-11.136C666.819,136.313,666.849,103.681,666.87,103.31z
		 M678.003,168.073L678.003,168.073L678.003,168.073L678.003,168.073z"/>
	<path fill="#8169AC" d="M791.952,146.66c1.826,0.194,8.529,0.225,9.999,0.095c6.645-0.69,10.478-5.359,10.539-11.711
		c0.019-2.291,0.037-4.735-0.009-7.184c-0.11-5.956-4.326-10.692-10.025-11.268c-3.311-0.334-6.885-0.329-10.503,0.009
		c-4.854,0.458-8.938,4.337-9.709,9.224c-0.21,1.322-0.223,9.023-0.181,10.012C782.301,141.527,786.458,146.08,791.952,146.66z
		 M793.641,138.181c-1.851-0.082-2.937-1.189-2.976-3.033c-0.061-2.589-0.057-4.924,0.004-7.134c0.049-1.749,1.16-2.868,2.897-2.919
		c2.318-0.068,4.765-0.07,7.299-0.008c1.771,0.044,2.842,1.035,2.938,2.715c0.134,2.478,0.139,5.034,0.006,7.597
		c-0.088,1.729-1.175,2.717-3.058,2.787C799.939,138.216,794.038,138.199,793.641,138.181z"/>
	<path fill="#8169AC" d="M728.798,138.333c-0.657-0.123-42.914-0.13-42.914-0.13c-4.768,0.001-5.795,2.342-5.816,4.301
		c0.303,3.771,3.62,4.401,5.732,4.402c0,0,42.338-0.008,43.088-0.155c2.078-0.423,3.432-2.051,3.449-4.152
		C732.36,140.414,730.97,138.741,728.798,138.333z"/>
	<path fill="#8169AC" d="M684.239,132.3c0.207,0.014,43.957,0.014,44.284-0.027c2.374-0.292,3.972-2.249,3.804-4.646
		c-0.174-2.409-1.969-3.911-4.684-3.922c-3.191-0.011-40.652-0.011-43.314,0.024c-2.416,0.03-4.251,1.851-4.265,4.232
		C680.05,130.256,681.843,132.121,684.239,132.3z"/>
</g>
<path fill="#8169AC" d="M1099.976,78.158c0,4.492,0.18,13.156-0.438,16.031c-1.2,4.172-3.886,6.762-7.79,8.622
	c-1.298,0.617-1.668,1.284-1.667,2.678c0.048,24.256,0.048,48.517,0.027,72.774c-0.009,9.11-6.283,15.549-15.285,15.556
	c-39.318,0.034-78.639,0.04-117.958-0.047c-5.627-0.097-14.87,0.246-15.294-15.671c0-24.314-0.006-48.627,0.024-72.943
	c0-1.121-0.273-1.729-1.363-2.201c-2.276-0.81-7.41-4.437-8.181-10.744c-0.263-3.38-0.426-12.724-0.08-14.825
	c1.094-6.582,6.067-11.592,12.674-12.091c6.153-0.464,20.579-0.286,21.825-0.286c-0.426-0.733-0.704-1.249-1.018-1.742
	c-7.839-12.377-3.166-28.857,10.104-35.142c2.53-1.198,7.378-2.791,14.723-2.256c5.886,0.745,10.593,3.556,14.309,8.121
	c4.36,5.517,10.043,19.674,11.233,22.583c0.348-0.788,5.071-11.9,7.534-16.824c2.883-5.765,6.994-10.457,13.286-12.717
	c1.778-0.638,6.434-1.665,12.333-1.164c16.219,2.519,25.468,19.21,18.93,34.211c-0.712,1.63-1.658,3.16-2.6,4.929
	c0.666,0,13.433-0.016,19.291,0.007C1090.76,65.284,1099.387,67.028,1099.976,78.158z M996.009,183.979c0-26.619,0-53.032,0-79.449
	c-14.889,0-29.652,0-44.578,0c0,0.554,0,49.599,0.004,73.642c0,3.943,1.881,5.804,5.861,5.805
	C966.112,183.983,991.845,183.979,996.009,183.979z M1035.682,104.531c0,26.53,0,52.945,0,79.448c0.658,0,26.171,0.002,38.384,0
	c4.432,0,6.191-1.745,6.191-6.133c0.002-23.825,0-72.647,0-73.314C1065.332,104.531,1050.569,104.531,1035.682,104.531z
	 M1006.105,74.942c0,36.41,0,72.684,0,108.958c6.558,0,12.996,0,19.511,0c0-36.35,0-72.618,0-108.958
	C1019.085,74.942,1012.646,74.942,1006.105,74.942z M996.053,94.679c0-6.618,0.027-13.423,0.027-19.897
	c-0.275-0.037-33.168,0.08-49.424,0.108c-3.006,0.006-5.021,2.07-5.069,5.085c-0.047,3.117-0.04,6.237-0.005,9.355
	c0.032,3.215,2.033,5.247,5.243,5.25C962.972,94.601,995.729,94.705,996.053,94.679z M1035.634,94.55
	c0.254,0.054,33.19,0.052,49.498,0.019c2.902-0.006,4.913-2.089,4.968-5.014c0.057-2.9,0.021-5.8,0.017-8.701
	c-0.006-4.171-1.819-5.98-6.006-5.98c-15.598-0.004-47.855,0-48.465,0C1035.645,81.468,1035.634,87.986,1035.634,94.55z
	 M1008.272,65.012c0.016-0.261,0.061-0.386,0.023-0.474c-2.895-6.783-5.616-13.647-8.756-20.316
	c-2.144-4.552-5.456-7.941-10.926-8.692c-9.728-1.335-18.226,6.878-16.933,16.573c1.009,7.568,7.054,12.816,14.968,12.898
	c5.693,0.058,11.389,0.011,17.082,0.011C1005.248,65.012,1006.769,65.012,1008.272,65.012z M1023.156,64.939
	c7.938,0,15.597,0.013,23.257-0.018c0.865-0.003,1.752-0.171,2.589-0.404c10.989-3.048,14.781-15.697,7.264-24.271
	c-5.399-6.16-17.479-7.188-22.76,1.617C1029.169,49.095,1026.541,57.03,1023.156,64.939z"/>
<g>
	<path fill="#8169AC" d="M124.752,164.546c1.433-17.172,9.489-33.172,22.591-44.598c2.313-2.012,2.55-5.508,0.535-7.818
		c-2.002-2.305-5.504-2.547-7.814-0.535c-16.925,14.748-26.625,36.063-26.625,58.492c0,3.063,2.484,5.539,5.541,5.539h102.39
		c-1.174-3.777-2.736-7.293-3.899-11.08H124.752L124.752,164.546z"/>
	<path fill="#8169AC" d="M244.666,126.798c-18.548,0-33.584,15.039-33.584,33.586c0,18.545,15.037,33.582,33.584,33.582
		c18.548,0,33.582-15.037,33.582-33.582C278.252,141.837,263.215,126.798,244.666,126.798z M244.666,183.151
		c-12.577,0-22.768-10.193-22.768-22.768c0-12.576,10.193-22.77,22.768-22.77c12.573,0,22.767,10.193,22.767,22.77
		C267.436,172.954,257.24,183.151,244.666,183.151z"/>
	<path fill="#8169AC" d="M223.942,99.91c7.044-7.851,11.372-18.188,11.372-29.537c0-24.438-19.881-44.317-44.317-44.317
		c-24.438-0.001-44.317,19.879-44.317,44.317c0,24.434,19.879,44.313,44.317,44.313c8.612,0,16.634-2.508,23.445-6.78
		c13.028,4.909,23.857,13.618,31.392,24.604c5.295,1.658,10.56,2.969,15.647,5.209C253.936,121.302,240.764,107.793,223.942,99.91z
		 M190.997,103.61c-18.332,0-33.239-14.909-33.239-33.237s14.907-33.239,33.239-33.239c18.328,0,33.238,14.911,33.238,33.239
		S209.325,103.61,190.997,103.61z"/>
	<path fill="#8169AC" d="M256.241,155.933h-6.295v-6.295c0-2.914-2.364-5.277-5.278-5.277c-2.916,0-5.278,2.363-5.278,5.277v6.295
		h-6.295c-2.915,0-5.279,2.363-5.279,5.281c0,2.916,2.365,5.279,5.279,5.279h6.295v6.291c0,2.916,2.363,5.281,5.278,5.281
		c2.915,0,5.278-2.363,5.278-5.281v-6.291h6.295c2.915,0,5.276-2.363,5.276-5.279C261.517,158.296,259.156,155.933,256.241,155.933z
		"/>
</g>
<g>
	<path fill="#8169AC" d="M549.344,67.266c-3.535-5.142-9.339-8.215-15.529-8.215c-4.834,0-9.475,1.851-13.072,5.214
		c-2.638,2.464-11.208,11.425-11.208,11.425s0.036-20.978,0.01-26.796c-0.023-5.644-3.2-9.804-8.49-11.13
		c-1.176-0.295-16.905-0.35-19.83-0.389c-0.598-0.011-1.427-0.432-1.641-0.835c-2.195-4.197-5.765-6.347-10.608-6.393
		c-3.627-0.034-7.343-0.034-10.676,0.01h-0.081c-1.017,0-1.571-0.277-2.113-1.065c-2.12-4.396-6.513-6.672-12.144-6.32
		c-4.586-0.104-8.286,2.068-10.139,4.784c-1.697,2.482-3.771,2.729-6.404,2.623c-3.363-0.132-6.608-0.083-9.651,0.149
		c-3.758,0.284-6.709,2.326-8.532,5.902c-0.468,0.918-0.937,1.213-1.93,1.213l-0.062-0.002c-2.014-0.023-15.555-0.088-16.856-0.088
		c-8.046,0-11.217,5.14-11.361,9.439c-0.08,1.123-0.004,140.754-0.004,140.754c-0.006,3.164,3.822,8.842,9.279,9.289
		c0,0,109.254-0.052,111.924,0.014c3.882-0.247,9.667-3,9.277-12.113c0.088-17.535,0.064-34.67,0.027-53.649
		c-0.002-1.133,0.302-1.879,1.083-2.656c4.18-4.154,8.416-8.397,12.515-12.499c6.681-6.688,13.592-13.609,20.449-20.353
		c4.333-4.264,8.309-8.6,9.35-14.825C552.927,80.749,554.115,73.596,549.344,67.266z M534.417,93.207l-16.052-16.014
		c0.909-0.855,6.929-6.831,9.314-8.576c1.727-1.266,7.096-5.116,14.498,1.816c3.979,4.472,4.153,10.779,0.418,14.998
		C540.853,87.398,535.241,92.439,534.417,93.207z M528.803,98.845l-50.166,50.162c-3.228-7.187-8.548-12.476-15.82-15.725
		l50.197-50.195L528.803,98.845z M386.643,50.093c0-4.01,1.026-5.047,4.982-5.047h16.338c-0.002,0.368-0.066,2.748,0.026,3.552
		c0.266,2.329,1.586,3.521,4.044,3.642c0.225,0.009,32.193,0.009,32.193,0.009h30.659c4.715,0,5.741-1.022,5.784-5.749
		c0.002-0.331-0.006-1.298,0-1.423c0.067-0.007,12.855-0.046,17.173-0.026c2.721,0.014,4.05,1.292,4.062,3.906
		c0.043,9.923,0.039,20.78-0.014,33.195c-0.002,0.533-0.383,1.194-0.757,1.568c-6.713,6.777-12.709,12.771-18.33,18.317
		c-0.739,0.622-3.6,0.438-3.893,0.438c-10.223-0.002-20.443-0.002-30.665-0.002H427.19c-1.367,0.046-4.624,0.15-4.778,3.778
		c-0.029,3.149,2.961,3.915,4.588,3.857c0.146,0,47.726-0.008,47.726-0.008c-0.082,0.092-15.428,15.49-20.036,20.158
		c-0.791,0.8-1.592,1.127-2.806,1.127l0,0c-4.657-0.026-25.074-0.026-25.074-0.026c-2.028,0-4.375,1.306-4.371,4.084
		c0.26,2.832,2.774,3.467,4.679,3.497c3.006,0.045,23.103,0.053,23.103,0.053s-4.245,16.88-4.996,20.117
		c-0.213,0.912-0.526,1.16-1.502,1.16l0,0c-2.311-0.017-16.095-0.017-16.095-0.017c-4.226,0.003-5.167,2.051-5.213,3.769
		c0.196,2.921,2.527,3.555,5.139,3.768c0,0,9.712,0.136,10.917,0.198c6.228,0.323,12.557-0.449,19.434-2.396
		c3.33-0.94,15.704-3.968,18.508-4.73c1.464-0.395,2.95-1.232,3.978-2.238c6.594-6.453,21.538-21.345,21.538-21.345l-0.002,46.904
		c0,3.998-1.033,5.033-5.016,5.033h-105.19c-4.081,0-5.077-1.011-5.077-5.144C386.643,139.413,386.643,94.753,386.643,50.093z
		 M453.157,158.849l4.825-19.239c7.075,2.633,11.791,7.354,14.404,14.413L453.157,158.849z M416.077,39.876
		c0.906-1.682,2.862-2.176,5.637-2.063c1.133,0.045,11.479,0.043,11.479,0.043c2.327,0,3.833-0.953,4.739-3.002
		c1.213-2.743,3.397-4.206,6.309-4.226h0.057c2.921,0,5.127,1.485,6.38,4.294c0.893,1.999,2.37,2.93,4.654,2.93h0.082
		c3.347-0.031,12.865-0.011,12.865-0.011c3.671,0.006,4.678,1.029,4.683,4.764v1.934h-57.237
		C415.718,44.518,415.455,41.033,416.077,39.876z"/>
	<path fill="#8169AC" d="M427.543,81.212c0,0,49.13,0,62.475-0.007c0.797-0.005,4.681-0.049,5.011-3.754
		c0.014-3.893-4.325-3.931-5.345-3.931c-6.098-0.009-57.47-0.009-62.136-0.009c-3.308,0.001-5.129,1.366-5.134,3.846
		C422.541,80.654,425.923,81.212,427.543,81.212z"/>
	<path fill="#8169AC" d="M404.51,88.406c6.994,0.134,11.114-4.751,11.063-10.995c0.019-2.91-1.131-5.678-3.239-7.798
		c-3.026-3.288-7.846-3.295-7.846-3.295c-6.02,0.023-10.938,4.958-10.963,10.996c-0.012,2.954,1.135,5.739,3.232,7.847
		C398.838,87.252,401.538,88.428,404.51,88.406z M407.863,77.348c-0.104,3.464-3.345,3.375-3.345,3.375
		c-0.867,0-1.816-0.337-2.465-1.004c-0.641-0.656-0.92-1.568-0.9-2.421c0.043-1.756,1.688-3.337,3.369-3.299
		C405.762,74.021,407.915,74.901,407.863,77.348z"/>
	<path fill="#8169AC" d="M404.5,153.063c-3.384,0.156-5.652,1.147-7.732,3.232c-2.097,2.098-3.249,4.879-3.243,7.827
		c0.009,6.034,5.484,11.13,10.934,11.026c8.873,0.054,11.165-7.425,11.114-11.063C415.531,158.062,410.895,153.18,404.5,153.063z
		 M407.863,164.048c0.028,1.851-1.189,3.466-3.348,3.412c-0.977-0.024-1.722-0.369-2.367-1.022c-0.64-0.646-1.001-1.507-0.994-2.355
		c0.016-1.772,1.365-3.333,3.356-3.347C406.355,160.787,407.836,162.22,407.863,164.048z"/>
	<path fill="#8169AC" d="M404.653,95.235c-5.885-0.18-11.006,4.857-11.124,10.833c-0.119,6.016,4.684,11.044,10.705,11.206
		c5.974,0.119,11.113-4.736,11.332-10.784c0.102-2.807-0.938-5.522-2.927-7.647C410.576,96.638,407.665,95.321,404.653,95.235z
		 M404.551,102.939c1.849,0.012,3.305,1.467,3.314,3.318c0.01,1.831-1.029,3.39-3.345,3.393c-0.854,0-1.829-0.339-2.484-1.009
		c-0.65-0.667-0.901-1.575-0.883-2.424c0.04-1.806,1.557-3.278,3.378-3.278H404.551L404.551,102.939z"/>
	<path fill="#8169AC" d="M404.505,146.244h0.036c2.884,0,5.743-1.226,7.842-3.355c2.073-2.109,3.239-4.936,3.193-7.763
		c-0.024-5.589-3.659-10.709-11.201-10.938c-6.187,0.193-10.893,5.05-10.853,11.069C393.564,141.29,398.491,146.219,404.505,146.244
		z M407.868,135.178c0.049,1.698-1.063,3.379-3.333,3.348c-0.97-0.011-1.787-0.38-2.431-1.039c-0.636-0.65-0.974-1.491-0.953-2.362
		c0.042-1.762,1.602-3.289,3.373-3.31C406.621,131.832,407.862,133.372,407.868,135.178z"/>
</g>
</svg>
